<mxfile host="www.draw.io" modified="2020-05-10T11:18:57.585Z" agent="5.0 (X11; Linux x86_64) AppleWebKit/537.36 (KHTML, like Gecko) Chrome/81.0.4044.122 Safari/537.36" etag="HXHLvduf3aEWy54zpmoj" version="12.9.14" type="github">
  <diagram id="UHiFiQ8tBaN5sUJ-tNkC" name="Page-1">
    <mxGraphModel dx="525" dy="503" grid="1" gridSize="10" guides="1" tooltips="1" connect="1" arrows="1" fold="1" page="1" pageScale="1" pageWidth="827" pageHeight="1169" math="1" shadow="0">
      <root>
        <mxCell id="0" />
        <mxCell id="1" parent="0" />
        <mxCell id="KH99gnBK2z-O9xpqxuGS-1" value="&lt;h1&gt;カメラモデルについて&lt;/h1&gt;&lt;p&gt;Basaltに入っているカメラモデルを使うために…&lt;/p&gt;" style="text;html=1;strokeColor=none;fillColor=none;spacing=5;spacingTop=-20;whiteSpace=wrap;overflow=hidden;rounded=0;" vertex="1" parent="1">
          <mxGeometry x="20" y="20" width="390" height="120" as="geometry" />
        </mxCell>
        <mxCell id="KH99gnBK2z-O9xpqxuGS-2" value="" style="shape=image;verticalLabelPosition=bottom;labelBackgroundColor=#ffffff;verticalAlign=top;aspect=fixed;imageAspect=0;image=data:image/png,iVBORw0KGgoAAAANSUhEUgAAAhUAAAFHCAYAAAAWSr4fAAAABHNCSVQICAgIfAhkiAAAABl0RVh0U29mdHdhcmUAZ25vbWUtc2NyZWVuc2hvdO8Dvz4AACAASURBVHic7N15eExn/8fx92RfJLIRSYiIXdQWW2Mn1BKxlWqLtvq02vqhfbSlG1r1oNVFi6quqlSp2mOL2qldrLEFISISsu+Zmd8fR4ZYgyTnTPJ9XZdrIjOZ+YTM5DP3uc9964xGoxEhhBBCiMdkoXYAIYQQQpQOUiqEEEIIUSSkVAghhBCiSEipEEIIIUSRkFIhhBBCiCIhpUIIIYQQRUJKhRBCCCGKhJQKIYQQQhQJKRVCCCGEKBJSKoQQQghRJKRUCCGEEKJISKkQQgghRJGQUiGEEEKIIiGlQgghhBBFQkqFEEIIIYqElAohhBBCFAkpFUIIIYQoElIqhBBCCFEkpFQIIYQQokhIqRBCCCFEkZBSIYQQQogiIaVCCCGEEEVCSoUQQgghioSUCiGEEEIUCSkVQgghhCgSUiqEEEIIUSSkVAghhBCiSEipEEIIIUSRkFIhhBBCiCIhpUIIIYQQRUJKhRBCCCGKhJQKIYQQQhQJKRVCCCGEKBJSKoQQQghRJKRUCCGEEKJISKkQQgghRJGQUiGEEEKIImGldgAhhCiN0vIyyDXkAZBjyCVdn2m6zs7CFntLWwB0Oh0u1k6qZBSiqEmpEEKIB8jQZxGdEUtM5lUuZcYRk3mVhOwkEnISuZadTEJOItdzUkjPyyBDn0VybtpDP4ajlT0OlnY4WTnibO2Ih40rFWxd8bB1wd3GBU87dyrbe+LrUAkf+4q427gUw3cqxOPRGY1Go9ohhBBCbXqjgXPplziReo7IlHNEpp7jROo5TqVe4FpO0kPfn6XOAmfrcgU+V87KgfS8TIzcfNnN0meTqc9+6Pu3t7SlVjk/ajtVpa6zP3Wd/Knt5EcdJz/sboyCCFHSpFQIIcqcuKxr7LoewYHEE0SmnifyRnnINuTc9fbWFlZ42VWgir0nvg5eeNl7UMHGrcBIgquNM/aWtrhaO+NgZYethU2h8xgxkpSTStqNkY6k3FQSspO4lpNkGhG5nBnPpcw4LmXGEZ0Re88iYqGzwM/BmzpO1ajn7E/98jVo6daA2k5+j/JPJcRDkVIhhCjV8ox6DiefYmfCIf69foRd1yKISr9019tWsvOgrlM16jhXo45TNeo6VaO2kx+V7T2x0GlrXntCdhKn0s5zwjSqEkVk6nnOp8egNxruuL27jQtPujegpVsDgjwa0cw1gHJWDiokF6WZlAohRKmSqc9mc/xetiUcYOe1CPYlHiM9L7PAbRws7WjqGkAL9yeo61SNes7Vqe3kVyomTGYbcjiZel4ZgUk5x/6k4+y6FkF8dmKB21nqLKjvXJMgj4a0cm9EF88gKti6qpRalBZSKoQQZu98+mXWx+0k/Opu1l7ZQWpeeoHrvew8CHStR2uPxrRyb0wzt4CHOjxRGlzOjGfHtYNsTzjI/sTj7E08Ro4h13S9hc6Cxi51CK7YkhCvtgS5N9Tc6IzQPikVQgizk2PIZVvCAdZc2c7q2G1Epp4rcH2D8rXo7NmSVu6NaeneAC87D5WSaldaXgZ7rh9l57VDbIrfy/aEgwVKRkVbN7pVak13rzZ0rtgSVxtnFdMKcyGlQghhFrINOay5sp0F0WvuGI0oZ+VAZ8+WdKvUmm6VWlPZ3lPFpOYpNS+d8LjdhF3Zxpor24nJvGq6zkpnSSuPxgys0pX+lTvL6azinqRUCCE0bX/icX67sJI/Lq4pMC/A37EywZ7KUH0XzyfL3OGM4haVfomVl7ewKnYrWxL2mRbystRZ0KFCcwZXDaGfTzCOVvYqJxVaIqVCCKE5x1LOMj96NQuiw7iQEWv6fIBzdZ737cEzVZ7C37GyignLlsScFJZd/of50WFsit+L4cbZJc7WjvT1CWaQbw86VGgmczCElAohhDak5KYz98IKfj6/lENJJ02f97avwLNVujHIN4RGLrVVTCgAYjKvsvDiWn6PXnXH/9Mg3xBe9x+An6O3igmFmqRUCCFUdTbtIj+c+5s55/4iMScFUFaLDPFqx+CqIXSr1BornaXKKcXdnEiJ4s9L6/g9ejVn0y4CylkkHSs0Z2TN5wjxaosOncopRUmSUiGEKHFGjKy7spNvzixgXdxO03B6kHsj/q/GQHp7dzRtuCW0z4iRbQkH+O7sIpbEhJvmX9R3rsHIms/xvG8PHCztVE4pSoKUCiFEiUnNS+eP6DV8c2YBx1LOAmBjYU0v7w68VXMQT7o3VDmheFxXshKYe2EF3575w3QGSXnrcrxQNZS3ag6WQyOlnJQKIUSxS8xJ4cvT8/jmzHxScpVTQX3sK/K6/wBe8e9HRVs3lROKopZtyOHPi+v45swC9iceB5QzR56p0pWP6r5KHadqKicUxUFKhRCi2KTmpTPr7J9MifyZpNxUAAJd6zGyxnM8W6Ub1hZWKicUJWF/4nGmn5nPwotryTXkYaGzoJ9PMBMDhstGZ6WMlAohRJFLy8tg5tmFTD35i2nyZSv3RnwSMJyOFZurnE6oJTojli9O/cb3UX+RbcgxlYtPA/6PWk5V1Y4nioCUCiFEkckvE5+d/JXrOcmAUiY+DniDThVbqJxOaMWFjFj+F/kjP59bSp5RL+WiFJFSIYR4bDmGXL45s4ApkT9zLScJgNYejfm43hsyMiHu6WzaRSaemMP86NXkGfVY6Sx5ya83EwOG42nnrnY88QikVAghHkv41X9589BnprM5Wro14P26/6GnVzuVkwlzcT79MpNP/mQauXC0suftWi/wXp2XZfl1MyOlQgjxSE6nRfNWxGesjt0GQI1yvnzZ8G0pE+KRnUiJ4q2Iz1kXtxOAOk7V+LrRuzzlGaRyMlFYUiqEEA8lPS+Tz0/9ypTIn8k25JjeVY6tPRQ7WbBKFIHwq/8y8tBUTqREARBcsSXfNBpDXWd/lZOJB5FSIYQoFCNG/rq0gdGHv+BixhV06Hi6cmemNfgvvg5eascTpUyuIY9ZZ/9k3PGZpOSmY21hxev+A5gY8H84WzuqHU/cg5QKIcQDnUmL5qV949iecBCAZq4BfNN4LC3dGqicTJR2lzPjGXPkK+ZHh2HESGV7T+YEjqNbpdZqRxN3IaVCCHFPBqOBGWcX8t6R6WTos/C0c2dy/ZG8UDVUtrkWJWrntUOMODiFA0knABjq15svG75DeetyKicTt5JSIYS4q3PpMby8bzyb4vcC0L9yF2Y1/gAPWxeVk4myKs+o54tTcxl/7DuyDTl42XnwfeA4mRysIVIqhBAFGDHyQ9QSRh/+grS8DCraujGryQf08wlWO5oQABxLOctLez9ib+IxQCm83zf5CFcbZ5WTCSkVQgiT8+mXeXn/eP65ugdQXqxnNn6fCrauKicToqC7jVrMCRxPiFdbtaOVaVIqhBAA/HJ+GSMPTSUtL4MKtq7MbPw+/St3UTuWEPd1JPk0L+79iANJJ9Ch443qz/BFw9GyaJZKpFQIUcZl6bMZc+RrvjmzAIAQr7Z832Qc3vYVVE4mROHcPmrRxKUui1p+TvVyVdSOVuZIqRCiDDudFk3/XW8TkXwSO0tbptQfxaiaz6sdS4hHciDpBP13vU1U+iWcrR35KfBjnq7cWe1YZYqUCiHKqGWX/+GlveNIyk2lqoMXi1pOo7lbfbVjCfFYknPTGLpvHH/HbESHjhE1nmVag9FYW1ipHa1MkFIhRBmTZ9Tz4dEZfHbyF4wYCfVuz69NJ8rMeVFqGDHyzekFvHPkS3INebTxaMLCFp/JIb0SIKVCiDLkYsYVntn9LruuRWCls+TT+v/Hu7VfQodO7WhCFLmtCfsZ+O+7xGYlUMHWld+bT6aL55NqxyrVpFQIUUbsvHaIXjtHkZCdRGV7T/5s+RlB7o3UjiVEsbqSlcCzu8ewOX4fljoLvmr4LiNqPKt2rFJLSoUQZcDiS+sZsvdDsvTZBFdsyYIWU2TtCVFm6I0GPjj6LVNP/gzAmzUH8UWD0bLUfDGQUiFEKTf99Hz+e3gaBqOBl/x68X2TcTJpTZRJv55fzrADE8kx5NLbuyPzW0zGwdJO7VilipQKIUopvdHAqENTmXl2ITp0jKs3jAn1Xlc7lhCq+ufqHvrt+i9Juak0cw1gZatv8bRzVztWqSGlQohSKD0vk4G732VV7FZsLWz4sekEBvn2UDuWEJpwLOUsPbYP50JGLNUcfVjdagZ1nf3VjlUqSKkQopSJzUqg544R7E88jquNM0uf/Ip2FZqqHUsITbmSlUDPHSPZl3gMVxtnljz5JR0qNFM7ltmTUiFEKXImLZpOW18lOiOW6uWqsLrVDGo7+akdSwhNSs/L5NndY1gZuwUbC2sWtJgiu/E+JikVQpQSJ1PP03Hrf7icGU8LtydY2epbOcNDiAe4de6Rlc6S35tP5pkqT6kdy2xJqRCiFIhMPUenra9wOTOe1h6NWd1qJs7WjmrHEsJsfHRsJp+emIOlzoKfmn7MC1VD1Y5kluQkXSHM3ImUKDpuUUYo2ng0Iay1FAohHtbEgOGMr/caeqOBofvG88v5ZWpHMksyUiGEGTuUdJLO214lITuJdhWasqrVt5SzclA7lhBma+rJnxl7ZDo6dHzbeCzDqw9UO5JZkZEKIczUgaQTBG9VCkXXSq1Y03qWFAohHtOY2kOZ+sSbGDEy4uAUvj3zh9qRzIqUCiHM0L/XD9Nxy3+4lpNEiFdblgV9jb2lrdqxhCgV3q39Ep898RZGjIw6NJVvzixQO5LZkMMfQpiZYylnabP5RRJzUgjxastfT36BrYWN2rGEKHVmRy3mjQOTAPix6QSG+vVWOZH2yUiFEGbkYsYVum57ncScFHp6tePvJ7+SQiFEMXnNvz/TGozGiJFh+z8h7Mo2tSNpnoxUCGEmknPTaLv5JQ4nn6K5W33+afsjjlb2ascSd5OTC1cTIDUNMjIhLw9S029eb2cL9nZgYw3lHKGiBzjKfBiteufwl0w7NRd7S1vC284hyL2R2pE0S0qFEGYgU59Nl23D2J5wkJrlfNneYS4Vbd3UjlV26fVw/iJEnoETp5XL8xfhSjzExUPC9Ye/T0cH8KmkFIzKXlC3JtSpAbVrKJe2MiKlFiNGhu4bz6/nl+Nu48L2Dr9Sx6ma2rE0SUqFEBqnNxoY8O/b/B2zEW/7CuzsMI+qDl5qxypbYuNg137YuQ927YMDRyAr+9631+lujj6UcwBra2Vkws4W9AZISVVul5gMOTnKqEZO7r3vz9JSKRZPBkJQM2jZRPm7Tle036e4p1xDHqE7R7L2yg4q23uys8NvVHGopHYszZFSIYTGjTg0hRln/sDZ2pEt7X6hkUtttSOVfplZsGkHhP0DazfB2fN33sazws3RhDo1oHpV8PJU/lR0Byurh3vM+GvKKEfsVWXU4+TZgqMgBkPB27u5QOe20L0TdO2glBhRrDL0WXTa8gr/Xj9MfecabG3/C642zmrH0hQpFUJo2ITj3/Hx8dnYWdqypvUs2stuo8UnKQWWrIa/VsGWXUqxyFfOEZo2hFY3RglaBoJHCR5+ysyCfRE3Rkv2wr8HlAKSz8ICAhtAr6fguT5QzbfkspUxV7Ov02rTC5xJi6ZDhWasaTNLJkvfQkqFEBq18OJant09BgudBQtbTKV/5S5qRyp9snMgbCP8vkS5zD+kodNBowDo1lEZCWjR+OFHHopb5Bkl85p/YNtu5XsBJXtQU6VcPNML3GVTuaIWlX6JVpte4EpWAoOrhvBbs0lqR9IMKRVCaNCR5NM8uWkw6XmZTGswmtG1hqgdqXS5eBlm/Qo/Lrg5qdLCAtq0UH4Z9+ysHMYwF2npEL4NFi6DFetvjrLYWEP/njBiKLRoom7GUmZv4jHabn6JLH023zX5kNf8+6sdSROkVAihMYk5KTT/53nOpEXzbJVuLGgxRe1Ipcf2PfDNT7B0jXKaJ0BAbRjUTykTvj7q5isKKanwdxjM/xv+2XFzLkbzxjDyZaVk2Firm7GUmHdhFUP2foC1hRUb2/5AGw8pblIqhNAQg9FAzx0jCbuyjQbla7Gzw2+yFkVR2L4HJkyDjduVv1tYKIc1Rv0HOrUuvWdRRF2AOb/DD/PhepLyOV8f+O8weG2InKZaBN44OInvzi6ikp0H+zr9gY99RbUjqUpKxUMyGo3oSusLkFDdh8dmMOnED7jaOLO34wKql6uidiTztm03jJ+mnMkB4OIMr7+g/KnirW62kpSWDvP+gq/mwOlzyuf8q8JHbyqjNFqbL2JGcg15dNr6CtsSDvCke0M2t/sJG4uyOxIky3Q/pF9//ZWEhAS1Y4hSaMXlzfzvxI9Y6Cz4vfn/pFA8jjPnYcAwaNtHKRTlHGHMcIjaDf97r2wVClC+/9dfgMhtsOh7qOWvjGK89BYEtFcmfIpHYm1hxaKWn+NjX5Fd1yIYffgLtSOpSkrFQ/ru269ZuFC2whVF61TqBYbs/QAjRiYGDKd7pTZqRzJPqWkwdhLUbw+LVyq/TD98E6L3wZQPwLW82gnVZWGhzKk4thl++UoZrTgVBT0GQ68X774eh3igSnYeLG45DRsLa2ac+YOfzy9TO5Jq5PDHQzhy5AjNAptQr5Y/B46eVDuOKCXS8zJp/s9zHE+Jord3R/4O+hIdcojtoS1aAW+OV1a/1OmUYf0pH4C3GZ3FUdKyc+DL7+F/3yiHSGxt4N3hShGTyZwPbdbZPxl+8H/YW9qys8O8MrlQnYxUPISff5jNW+0rcj0+joMHD6odR5QSb0V8zvGUKGo7+TG32adSKB5WYjIMGQnPvKYUiiZPwLZl8Ns3UigexNYG3hsBJ7fDq4MgNw8mfgVNuiiLbYmH8kb1Z3ihaiiZ+mye2zOWDH3Wg7+olJFSUUg5OTksmD+fl5s780KgIz//MFvtSKIUWBrzDz+cW4KthQ1/tJiKs7Wj2pHMy5LVUKeNMgnR0QG+nQR71ygrX4rC8/aE7z+DjYuUQyLHTkJQqDLJ9X57kog7zGz8PnWcqnEiJYrREdPUjlPipFQU0vLly6nnaUsNDxteaurM/PnzyczMVDuWMGMxmVd5Zf/HAPyv/kgau9RROZEZycyCl/8LT7+ibMbVtiUc3gj/95Iyb0A8mvZBEBEOb7yorOPxyZfQKlTZe0QUiqOVPfNbTMbGwprZUYtZfGm92pFKlDz7Cunn72cwtIktAH5uNjSpUo7ly5ernEqYKyNGBu95n2s5SXTxfJK3ag1SO5L5OH0OngyBnxcqu35Onwib/lLeYYvHV84RZv4Pwv9U1rTYF6EcDlm5Qe1kZqOJS10m1R8BwOsHJhGbVXbOGJRSUQgxMTHs3r2Xfg1uzhwf2sSWn2d/q2IqYc5mnlnIpvi9eNi6yDyKh7F4JTTtChHHobof7FyprBIpoxNFr2NrOLBe2f8kMVk5O2TspJsrkYr7+m/NwXSq2IJrOUkM2/+J2nFKjDwTC+GXn39iQGMXHGxu/nP1bVCeAwcPERUVpWIyYY7Opcfw3tFvAJjZ+AMq2cmW1YUy/UdlMmZKKoR2UeZONK6vdqrSzd0VVs+Drz8BS0uYOhO6D1L+D8R9WegsmNvsU1ysnVgZu4W5F1aoHalESKl4AKPRyK8/zGZo04IT6OysdAxs4sJvv/6sUjJhjgxGAy/tG0daXga9vDswQHYefbCcXHjxTXhznHKq6GcfwrJfZM2JkqLTKcuZr1sAbi6wYSu06wsxV9ROpnk+9hX5vMF/ARh1aCoXM0r/v5mUinvIy8vj3Llz/Pjjj9hb5NDc1+GO2wwNdOTXn35g9+7dxMfHq5BSmJtZZ/9kS/w+Kti6MidwnNpxtC81TRl2n7tImT+xYBa880bp3atDyzq2hj1hULs6HDoGzbvBgSNqp9K8l6v1oWulViTnpvH6wU/VjlPsyvTiV0lJSURFRd38c+oEUadPEnX+PBdj46no4oC/hwPDm9sxoJHzXe9j2N8J7LucS1RcGnqDEf+qlfH398e/Vl38a9RSPvb3x8/PDxsb2bynLIvJvEq99b1JyU3nz5afyyjFgyQmQ5eBykRBd1dY/qucKqoF15Og90vKvirlnWHNfHgyUO1UmnYpM46A9X3KxHO/TJaKP+f/xhtvvEF2Ti7+ns74u9vgX96Av6ul8rGHDdXcbLC1erh3Q9cz9ERdyyHqWrZymWxJVKKeqIQsYq6lUamCO11DejFjxgysrWW1urKm7663WBrzD90qtSas9Uy142hbXDx0HghHTkANP1j3h5zdoSWZWfD8cGULeadyEPY7tG6udipNm3HmD0YcmkIlOw9OPLUMF2sntSMVizJZKnbu3En/PqG80dye9zu6FftIalxqHv3nx+FU5QnmL16Ki4tL8T6g0JywK9vosf3/cLC042iXv6nm6KN2JO2Ki4fgZ+BopLLx1T9/gU8ltVOJ2+n1ylyX35eAgz2smKtsIy/uymA00Hrzi+y6FsEb1Z9hZuP31Y5ULMrknIqgoCD2HjzMqlh3QudeITlLX2yPdTAmk5YzLhHUcwgr122UQlEGpeVl8NoB5VjqxID/k0JxP1cTlJ1Fj0ZCvVqw5W8pFFplaalsSvZcH8jIhNAXlEMi4q4sdBbMavwBVjpLZkctZvf10jkfpUyWCgBvb28279iNV5OuNP/2Eifisov8MebvT6brT7FMm/UTUz7/Egs5l75Mmhz5ExczrtDYpQ4jaz6ndhztSktXdss8FQX16ygLWlWqqHYqcT9WVsoeK4OfvlksjkaqnUqzGrnUZlTN5zEYDYw8NAWD0aB2pCJXJg9/3G7O99/z/pjR/NivAr2fuPuEzIeRZzDyXlg8S09bsGz1OurXl3Ppy6qo9EsErO9Ltj6Hze1/oq2HTGi7q9xcCH0R1m6Cyl7KolZVvNVOJQpLr4cBw+DvMGUfkZ0roWpltVNpUmpeOrXXhhKblcDPTT/mJb/eakcqUvLWGXh12DBWhK1n+KpUxoYlYHiMmpWQnkebb87y3barXIq7xltvvcXUqVM5ceJE0QUWZuOtiM/J0mfznG93KRT3YjTCy6OVQuHhBuGLpFCYG0tLmPctBDWFy3HQ7XnlLBFxBycrR/5XfyQAY49MJzk3TeVERUtGKm4RExNDv9DuNHVKYEbvh1/lMDlLT/1p56nbsBkZ2bns3LmTW/95/f39CQ4OJiQkhC5dumBra1uU8YXGbIjbRZdtr+FoZc/Jp1bgYy9D+Xc1aTp8OBXs7ZRCEdRU7UTiUSWnKHNiDp9Q1rVYt0A5RCIKMBgNPLlpMHuuH+XtWi+YFsgqDWSk4hY+Pj688sZIUnIe7esdrC2IT8lmxeo1bN++nbi4OBYtWsTgwYNxcXEhKiqKOXPmEBoaipubG507d2b69OlcuHChaL8RoTojRtNS3GNrD5VCcS9rN8G4z5XFrObPlEJh7so7K2eBeLjBP9vh/SlqJ9IkC50F0xuNQYeOGWcXlqqVNqVU3Cby+DHquD3a4I21pY6qFZ04c+YMABUqVKB///789ttvJCQksG/fPsaPH09gYCCZmZmEh4fz5ptv4ufnR/Xq1Rk1ahTh4eHk5DxiqxGaseRSOPsTj1PB1pU3a8oOpHd1/iIMHgEGA3wwCvp0UzuRKApVK8Ofs5URimnfwZ9lY8+Lh9XSrQF9fDqSpc/m08gf1I5TZOTwx21Cu3bkBa8o+jW8+74CBiNY3Gddi17zEhj83nSefvrp+z5OXFwc69atY9WqVaxbt46UlBTTdY6OjnTo0IGePXvSvXt3KleWCU/mRG800GBDP46nRPFNo7GMqPGs2pG0JzNL2b484riyC+aq32Sn0dJm2nfwzkRlK/V/V0FAbbUTac7J1PMErO8DwLEuS6nt5KduoCIgz+LbnDx5itoV7z7XYd/FTBp+Fc1//rp6z7UtarsaOHnywadUeXp6MmTIEBYtWsS1a9fYtm0bY8aMITAwkPT0dFatWsWwYcOoUqUKAQEBjB07lvDwcHJzcx/r+xPF7/foVRxPiaKqgxev+vdTO442jZ10c/vy+TOlUJRGo1+DZ0KVU4WfH65sDCcKqO3kx3O+3dEbDUw8MUftOEVCRipukZubi1M5R5Im1cHuliW6s/OMfLIhgR/2pjFl2lfs2r6V9auXM6ePG0/VKbjU6k//XmeLriW//bH4kXOcO3eODRs2EB4ezpo1a0hLuzk72M3NjU6dOpkmfHp7yyx5Lck15FFnXS+i0i+VytPFisTG7dD5GeWMge3LoEUTtROJ4pKWDo07w5nzMGY4TPlA7USacz79MrXXhZJn1HMgeCENy5v3iI6UilucOHGCnp2COPOur+lzEZezeGlxAl41GzLnl3n4+CirIa5fv55XXhpCC2+Y3ccDNwdLALZHpTN6qy27Dx0rkkyZmZns2LGD8PBwli9fTmTkzVEQCwsLGjdubCoYQUFBssCWymad/ZPhB/9HLaeqHOuyFCudpdqRtCU5BRp0gugYGD8aJoxWO5Eobjv2KlulG42wcRG0D1I7kea8fuBTZkctprd3R5YGfaV2nMcipeIWy5Yt44ePh7P6BQ9y9Ua+3JbIF1uT+XTK57z66rA7bp+SksI7/x3FyqVLmN3HndD6ziSk51F98jmS0zKKJWNUVBTh4eGsXLmSDRs2kJ19cyVQDw8POnToQHBwMKGhoVSqJMsbl6QsfTY11/bkUmZcqd+J8JENHqHsFdG0IexcAbKxXtkw5lP4bBZU84WIcGUTMmESm5VAjTU9yNBnsavjPFq6NVA70iOTUnGLKVMmc3XDt7wQ6HTX0Yl7uX3UotbUcxyJPIOXl1ex5s3IyGDnzp2sXLmSZcuWER0dbbrO0tKSRo0amUYxWrVqha64d04r4z47+QtjjnzNE+Vrcih4ERY6GTUqYMNWZStzezs4sB7q1FA7kSgp2TnQorsyj2b0azBtnNqJNOedw18y7dRcOns+yfo2s9WO88ikVNxi6OBnObBpBbGZVnwxfQaDBg0uMgjlWQAAIABJREFU9NempKQw+s0RrF+9nKzsHP5cFkb79u2LL+xdREVFsXLlSlatWsXWrVsLnJpasWJF2rVrR0hICKGhobKxWRHL1GdTNewp4rMTWdnqW0K82qodSVtycqFhJ4g8AxPfhQ/fVDuRKGn7IqBFD2VS7v510KCu2ok0JSE7iepru5OSm86ODnMJcm+kdqRHIm+lbnHy9BmqNmzNoaORD1UoAJydnfnh57n8MG8RduXKF5j7UFL8/f0ZNWoUGzZs4Pr166xYsYJXX30VHx8frl69yuLFi3nhhRfw8PCgadOmTJgwgf379yO98vH9dmEl8dmJNChfix5ebdSOoz2fz1IKRQ0/ePt1tdMINTRtCC8/C3l5MPw9ZY6FMPGwdeE1/wEAfHX6d5XTPDoZqbjFqlWrCAkJeez7SUlJISIigjZttPPL5dixY6xatYrw8HC2bNlS4NRUT09PunTpQs+ePXnqqadwdn78TdXKEiNGAtb35URKFL81m8Tgqo//M1SqnL8IAe2VXSzX/QFd2qmdSKjlWiLUbq1czvsWBskp17eKybxKtTXdMBgNnHxqBdXLVVE70kOTUlEGXbt2jX/++cc04TM2NtZ0nZWVFS1atKBnz54EBwcTGCibYD3I6ththOz4P7ztK3Cu2xpsLGTyYQH5kzOfDoHFpeNcfPEYfpgPr74Dvj5wagfY2qidSFOe2z2WPy6u4c2ag/iq4Ttqx3loUirKOIPBwMGDB00FY9euXRgMBtP11apVo3PnzgQHB9OtWzfKlZNZ27cL3voqG6/u5n/1R/JenZfVjqMtx04qp5BaWsKJLcpiV6JsMxiUtSsOn4DpE2GkPGdutT/xOE03PouTlSMXe6ynvLV5veZKqRAFJCQksGnTJtOEz8TERNN19vb2tGrViuDgYHr16kWdOnVUTKoNR5JP03BDf+wtbYnusQ53G5kAW0Dfl2HpGnhtCHwnm0uJG/4Og37/gQrucHaXnGJ6m7abX2JbwgGmNRjN6FpD1I7zUKRUiHvS6/UcOnTIVDAOHDggW7nf5sW9HzH3wgreqP4MMxu/r3YcbdkXAc27K8Pbp3dC5eI9xVqYEaMRnuwJuw/ApLHw/ki1E2nK0ph/6LvrLao6eHGm22qzWkRPSoUotKtXr7J27VpWrVrF+vXrSU5ONl3n4OBAUFAQISEh9OnTB19f3/vcU+kQl3UNvzXdyNbncPyppdRxqqZ2JG0JfQFWbpB1CcTdrdsMXZ8DNxeI3geODmon0gyD0UCtdaGcTbvIwhaf8UyVp9SOVGhSKsQj0ev17Nq1y3RGyd1GMUJCQujZsydt27bFxqb0Tcb66NhMPj0xhxCvtqxs9a3acbTlVBTUbQvWVnB+D1SqqHYioUUtQ5TRihmTYPhLaqfRlG/OLGDUoam0cHuCfzuazymmUipEkTh//jzr168nPDyctWvXkpqaarru1q3ce/To8cAVSs2B3mjAN6wLlzPjCW87h04VW6gdSVteHwuzf4OXnoGfzXsvA1GM/lgGz70BNatB5DbZrfYWqXnpVFndheTcNCI6L6ZB+VpqRyoUKRWiyGVlZbF9+3bTGSXHjx8vcH29evVMp6y2a9cOazPc/2HtlR102/4Gfo7eRHULQ4csgW5yPQl8m0J6BhwKh4b11E4ktCovD6o/qWwwt+wX6GU+w/wl4ZX9H/Pjub8ZXWsI0xqYx+Z7UgtFkbOzsyM4OJgpU6Zw7Ngxzp49y/fff09ISAh2dnYcP36cqVOn0rlzZ7y8vBgwYABz5swpsF6G1s29sAKAF6qGSqG43ZzflULRqbUUCnF/VlY3D3tM/1HdLBr0QtVQAH6PXk2eUa9ymsKRkQpRom7dyn3ZsmWcPHnSdJ25bOWekpuO16qOZOqzOd11pVmueles6rSBk2flnaconMRk8G6kbDp2dpeyk6kwqb0ulFOpF1jdegbdK2lnleZ70d4rtijV7O3tTaMYkZGRBUYxrK2t2b9/P1OnTqVNmzZ4enoyYMAAfvvttwLrZajtz0trydBn0dqjsRSK2+3arxSKih7QvaPaaYQ5cC0PPbsop5nO+0vtNJrzfJUeAMw9v0LlJIUjIxVCM27dyn3p0qVcvHjRdF3+Vu75Z5Q0adJEta3cW296gR3XDvFj4ARertZHlQyalT9B881X4KuP1U4jzMXqcAgZooxSnN0FKj23tehCRiz+a7pjY2HN5R7huNpoe28mKRVCs27dyv32TdAqVqzIU089Rc+ePenSpQvly5cvkUzn0mOovqYHdpY2XA7ZiIu1U4k8rlnIyVWGsa8lwsEN0ChA7UTCXOTlgW8ziI2DbcugdXO1E2lKhy0vszl+H981+ZDX/PurHee+5PCH0KwHbeU+b948BgwYgLu7O61bt2bq1KnFvpX7rxeWY8RIH59OUihut36zUiieqCuFQjwcKyt4trfy8SLzGOYvSfkTNs3hEIiMVAizdOtW7ps3byYvL890nZ+fH126dCE4OJiuXbvi5FQ0v/yNGKm+pgfn0mNY12Y2XTyfLJL7LTVefUfZgXL8aJhgHqe/CQ3Zvgfa9IaqlZUF04RJWl4GlVZ1JD0vk5NPraCWU1W1I92TlAph9m7dyn3FihVcuXLFdJ2dnR2tW7cmODiYnj17Uq/eo5/ieCDpBIHhA6lk58GlHhuw1MlAn4nRCFUCIeYK7FsLgQ3UTiTMjV4PlRpCwnU48g/Ulw0Lb/X8nvdYEB3G5PqjGFtnqNpx7kleFYXZc3d3p3///nz//ffExMSwb98+pkyZQqtWrcjOziY8PJyxY8cSEBBA9erVGTZsGCtXriQrK+uhHmfF5c0A9PRqJ4XidnsPKYXC2xOaPKF2GmGOLC2h240zhlZuUDeLBvXy7gDAytgtKie5P3llFKWKhYUFgYGBjBkzhu3btxMXF8eiRYsYPHgwLi4uREVFMWfOHEJDQ3Fzc6Nz585MnTq1wHoZ92IqFd7tivebMEerNyqXIZ1l5r54dD07K5erpFTcrqtnK2wsrPn3+mHisq6pHeee5PCHKDMeZyv3mMyrVFndBTtLGxJCt+JgaafGt6BdHZ6GzTvhrx+gXw+10whzlZgMHgFgZQmJkeBgr3YiTem8dRjhV//ll6af8KJfL7Xj3JWMVIgyw9LSksDAQCZMmMC+ffuIjY1l7ty59O/fn/Lly991FGP69OlcvHiRFZc3Y8RIcMWWUihul5sLew4qHwc1VTeLMG+u5aFeLeX05PyfKWGSP0qq5UMgMlIhBJCdnc22bdsICwsjLCyswOEQnU6HUw13Uqob6dugG32eeIqqVavi4+ODj49PgRGNMmnXfgjqCbX84eR2tdMIc/fGe/DdXJj4Lnz4ptppNOVCRix+YV0pZ+VAfM/N2Flq77VHSoUQdxEVFcWaNWtYvXo1mzdvJjMz85639fT0xMfHh8qVK+Pr62v6uEqVKqaP7exK8ejGZ7NgzKfw8rPw4xdqpxHmLn879Kfaw9oFaqfRnCfW9+NoyhnWtJ5F10qt1I5zBykVQjzAwrNhPPvz/1Hlmgt9bNtw8eJFYmJiuHTpEleuXMFgMDzwPipWrHhH2ahSpUqBj822ePR/Ff5aBT99CUMHqp1GmLvoGKjaDFyclXkVooD3j37D5MifeKP6M8xs/L7ace4gpUKIBxi6bxy/nF/OJwHD+ajuq3dcn5iYSFRUFJcvXyY2NvaOj6OjowssznUvdnZ2eHt74+/vj5eX1x0f16xZE2dnDa77n78rqaxPIYqKez24ngQX90NlL7XTaMquaxEEbRqCr4MXF7qvVTvOHazUDiCE1m2K3wtAt3sMNbq6uhIYGEhgYOA976MwxSMrK4uoqCiioqLueT8PKh41atQosX1QgBvbVV8ACwuoU6PkHleUbvVqKStsHo2UUnGbFm5P4GZTnuiMWM6kRVOjnLa2ipdSIcR9xGRe5Xz6ZcpZOdDI5dFX+CuK4nHx4sUiKR7Vq1fHxcXlkb+XAo6fUjaDquEHjg5Fc59CBNS+WSq6dlA7jaZY6CwIcm/IqtitbE84KKVCCHOyNWE/AEHuDbHSWRbrY2mpePj7++Pq6vrg0MdPKZcBtR/22xXi3vKX6D52St0cGtXao7FSKq4d1Nx6FVIqhLiP7QnKufKtPZqonERR2OJxr9Jx+fJlLly4QHp6+iMVjzsKSNQF5ca1qhf1tyrKslr+ymX+z5cooM2N16P81yctkVIhxH1sSzgA3HwSmwNXV1dcXV0JCLj79uNGo5ErV65w6dIlYmJiiI6OJiYmxvRx/ucLM+LhZG2DLwZW2ltTrbi+IVH25M+juBSrbg6NauoagIOlHadSL3A1+zoVbd3UjmQiZ38IcQ9Juam4r2iLpc6CpF47ytxKmleuXDGVjQsXLhQoHvmn1GZnZwMwpH0n5m4KVzmxKDVS08C5FtjaQOY52U/mLtpveZkt8ftY8uSX9PXppHYcExmpEOIediQcwmA00Ny1fpkrFACVKlWiUqVK9z3UElG7Bc1O7WH+1k2MPXGCunXrlmBCUWo5lQNnJ0hJhfhrUNFD7USa09qjMVvi97Hj2kFNlQrZ+0OIe9h+7cahjwrmc+ijpDVMzOBFHNAbDIwbN07tOKI08amkXF6OUzeHRrV2bwzAtvgDKicpSEqFEPeQPwmqlXsjlZNoWHIKEyiHvb09S5YsYe/evWonEqVF+RsLvaWkqptDo4LcG2Gps+BgUiRpeRlqxzGRUiHEXRiMBg4mKUsEP+neUOU0GpWbCzm5eOusePWVVzAajUyYMEHtVKK0KHdj3ZO0dHVzaJSztSMBzjXIM+qJSNbOqbdSKoS4i6j0S6TnZVLJzkNTM6s1JfXGi72jAx98+CFOTk6EhYWxZYt2t2UWZsRRSsWDPFG+JgBHk8+onOQmKRVC3MXRFOVJWt9Zlp6+p/wX+3KOVKhQgREjRgDw4YcfqhhKww4ehY+/gGXa269Bk8o5KpdphR/aL8weO6VJgLOyPsyxFCkVQmhafvOvX15KxT1l5yiXtjYAvPPOO7i5ubF9+3Y2bNigYjANOhcNrUJhwhfQZyj8tljtRNpnZ6tc3jhtuTDmzJlTTGG0Kf/1SUsjFXJKqRB3cSzlLHDznUBRmjBhAg0bNmTHjh2cPXuWrl27UqFCBZYsWUJ2djbPPfccKSkpLF++nMqVK9OxY0ciIyPZs2cPTZs2pV69emzatImLFy/Ss2dPXF1d+eOPP7C0tGTAgAHEx8ezZs0aqlWrRps2bThy5AgHDx4kKCiIGjVqsH79eq5cuULfvn1xdHRk3rx5ODs707t3by5fvkx4eDi1atWiZcuW7N+/n2PHjtGuXTuqVq3K6tWruXbtGgMHDsQxLoEQ4HpCApv//pvo6Gg8PT25fv06r7/+Ov369ePUqVMEBwfj7e3N0qVLSUtLY9CgQaSnp7N06VI8PT3p0qULp0+fZteuXTRu3JgnnniCbdu2ce7cObp3746HhweLFi1Cr9czcOBAkpKSWLlyJb6+vrRv357jx4+zb98+mjdvTp06ddi4cSMxMTH06tWL8uXLM3/+fGxtbXn66aeJi4tj3bp1VK9enVatWhEREUFERAStW7fG39+ftWvXcvXqVZ5++mlsbW2ZP38+Li4uhIaGcunSJTZt2kTt2rVp3rw5e/fu5cSJE3To0IEqVaqwcuVKEhMTee6558jNzWXx4sVUqFCBrl27YrNiPSGZWaafgd3TvmHK0gV06dKFSpUqsWTJEjIzMxk0aJDp/97Ly4vg4GBOnjzJ7t27CQwMJCAggC1btnDhwgVCQkJwc3Nj4cKF6HQ6BgwYwPXr11m9ejV+fn60bduWo0ePcuDAAVq2bEmtWrXYsGEDsbGx9OnTBycnJ+bNm4ejoyN9+/YlNjaWDRs2ULNmTVq2bMmhQ4c4cuQIbdu2xc/Pj7CwMBISEhgwYACWlpb88ccfuLm5ERISQnR0NFu2bKFu3bo0bdqU3bt3c/LkSTp16oSPjw/Lly8nOTmZQYMGkZmZyZIlS0z/91FRUezYsYNGjRrRoEEDtm/fTlRUFFPisqkN/PjLL6zduJLnn3/e9H/v4+NDx44dOXHiBHv37qVZs2bUrl2bt99+m7CwMPr164eLiwsLFizA2tqap59+moSEBNasWYO/vz+tW7fm8OHDRERE8OSTT1KjRg3WrVtHXFwc/fr1w97envnz5+Pk5ETv3r2JiYlh48aNpv/7AwcOcOzYMdq3b4+vry+rVq3i+vXrDBw4EKPRyJ9//omHhwfdu3fn/PnzbNu2jYCAAJo0acKuXbs4ffo0nTt3xsvLi4iIiEeei5Q/knok5fTjvzAVEVn8Soi7eGJ9P46mnGFXx3m0dNPWdt65ublYW1urHQOiY6BqM/DyhMvKmTLp6elUr16duLg4li1bRq9e2tqXQDXRMVCvHaTfGMpfMAue7a1uJq0bMhLm/QU/fQlDBz7w5jt37qRVq1YsWrSI/v37l0BA9RkxUn5ZK1Lz0rkS8g+edu5qR5LDH0LcLteQx6m0C+jQUc9Je3tazJw5U+0ICqsbA523HMd2dHRk7NixgDK3wmAwqJFMe3x9YO8amDYONvwphaIw8n+urAq3kd+qVasAWLJkSXEl0hwdOuo6KwvkH9XIvAopFULc5mTaeXIMufg6VMLZ2lHtOAUkJyfzySefkJOTo3aUmy/2t02Oe+2116hSpQpHjx5l4cKFKgTTqLo1YfRrENxG7STmQX+jkFoWrlT89ddfAKxdu5ayNACffwhEK/MqpFQIcRstT9IMDw8nMTGRnTt3qh1FWUoZlNn5t7yI29nZmc4AGT9+PLm5uWqkE+Yuf9Gr/J+z+4iLi+PsWWUeVHp6OocOHSrOZAVcunSJ6dOnm/bBKWkBN0pF/jwwtUmpEOI2p1KV7ZbrOvmrnOROs2bNAmD27NkqJwHs7ZQ/ubl3rHo4dOhQateuzZkzZ5g7d65KAYVZS7iuXHo8eJ2YdevWmQ616fV606GQ4paYmEiHDh3o3r07NjY2zJkzh44dO/LFF1+UyOMDBJRXDtFGpp4rsce8HykVQtzmYuYVAKo6eKmcpCCj0ciuXbsAtHPKZv4Lfv4vgBusrKz46KOPAOVsl8zMzJJOJszdQ5SKsLAw08/bnDlzWL9+fXEmMzl16hQXL15k586dtG/fnmHDhnH69Gk6duxYIo8P4Guv7JFyKVMbe6RIqRDiNjGZVwHwsfdUOUlBhw8fRq/XA5Camkp0dLTKiQB3V+XytlIB8Oyzz9KwYUNiYmLK3PoBogjk/0zl/4zdg16vp02bNnzyyScA/Oc//+GVV14hKSmpuBPSokULxo0bx8SJE3nuuef4999/OX36NI0bNy72x85X2UF5nYrJvIrBqP7EaCkVQtwmv/HnP1m1YvXq1aYhXp1Ox7p161ROxM13kfHX7rjKwsKC8ePHAzBp0iRSU2VjKFFImVnKiq2WluBa/r43tbCwYPjw4QU+N2TIEMqXv//XFQW9Xs/y5cvZuXMnw4YNo0WLFtjZ2RX7497KycqR8tblyDHkEp+dWKKPfTdSKoS4jalUaGykYtGiRaZliHNycli0aJHKiQC/Kspl1N1HTfr06UOLFi2Ij49nxowZJRhMmLVzN36eqniDxf1/Tel0uof6fFGKjIykfv36VKxYsdgf637yX6u0cAhESoUQt8jQZ5GYk4KVzlJTG4mlpKQQGRlZ4HM7duxQ/9TS6n7K5dnz97xJ/rD0Z599xvXrdx4mEeIOZ84rlzX81EzxQJUrV2bPnj0cP36cn376idDQUBo2bMinn35asjmkVAihTZcylCelt31FLHXaeXps2LABW1vbAp+zsbFhx44dKiW6oXpV5fLshXvepEuXLrRv356kpCS+/PLLEgomzFp+Sc0vrRrl6OiIr68vffv2ZezYsWzevBlbW1vq1q1bojnyD9VKqRBCY2Ky8idpqjucebu///77jjkJaWlpLFu2TKVEN9RQVvPjzP1PZ8t/5/b1118TF6f+C5/QuPySml9aNSgxMZEePXrQv39/IiMjiY+PJyUlhT179tCvX78SzZI/UpE/yVxNUiqEuEX+SIWW5lMYjUbWrFmD0Wg07flhZWWFXq9Xv1TUrKYc846KVibX3UOrVq3o2rUr6enpTJ06tQQDCrN07KRyWUt7y+Tne/XVV3n33Xd58cUX1Y5iehMkIxVCaExsVjwA3vYVVE5y0+HDh8nOzsbOzo5KlZRz0r29vbG1tSU+Pp4LF+596KHYlXOEWv7KAlgRx+57008//RSdTsd3333HxYsXSyigMDsGAxw4onzctKG6We5h3bp1ODk50alTJ7WjADdLhYxUCKExyblpALhYO6mc5KawsDAyMjJo0qSJ6V3RyJEjqV27NllZWeqfWpr/wr/v8H1vFhgYSN++fcnKyirxiWzCjJw8q6zQWqki+FRSO81dLVy4UDOFAm6+XqXkpqucREqFEAWk5SlbU5ezclA5yU3Lli0jKCiI8PBw0+EPOzs7tm3bRoMGDVi6dKm6AQNvbA2///6lApT1KqysrPjll19MezUIUcC+COWymTZHKQCOHTumqblB+a9X+a9fapJSIcQttFYqkpOT8fDwIDw8HHt7+wLXOTs7s3XrVoxGo7qnluaPVOx98CZOtWvX5tlnnyU3N5cJEyYUby5hnvJLRX5Z1SBXV1cmTZrE+vXrSUhIUDuOlAohtEprpSI9PZ2//vrrjkKRz9nZmcWLF5OcnFzCyW4R2ADsbOH4KYiLf+DNP/nkE2xsbFiwYAERERElEFCYlU03duANalaom+fl5ZGenv7AzxWl559/nuvXr/PUU09RoUIFrKyssLa2pnz58gwaNMi08m1JcbRUXh/S9ervsSOlQohbpOUpT8pyVnf/JV7SvL2971ko8jk5OVGhgooTS+3toFUzZfvzjdsfeHM/Pz+GDh2KwWDg448/LoGAwmxcuQpHI5WS2rp5ob7EysqKESNGmE651uv1jBgxAhsbm2KLOWTIED7//HN8fX1Nj5mXl0dKSgrz588v8UOS+W+CUmVOhRDakpqnPCm1MlJhNjq3Uy43bC3UzceNG4eDgwNLly5l9+7dxRhMmJUNW5Vy2qaFUlYLqVy5cqaJk6GhoVy+fNk0/6i4vP3221y4cIHc3FxSUlLIycnh8OHDODg4kJaWVqyPfTsHKzssdBbkGfVkG9RdZVdKhRC30NrhD7PRua1yuWFLoW7u5eXFa6+9BmDadEwIwrcpl8FtH+rLunfvzt69ewHlbKmePXsWdbJ7srKywsnJCWtra+rVq0eFChUIDg4usccH0KEzHQJRe16FlAohbpH/hHSyclQ5iZlpFAAVPSDmChy6/3oV+d577z2cnZ1Zt24dmzdvLt58Qvv0eli3Wfm488OVinbt2pkOd1hbW9OtW7ciDndv69atY/LkycydO5eBAwcSGhqKj49PiT1+vvxDtvmHcNUipUKIW+SXivzWLwrJwgJ6d1U+XrSiUF/i4eHBqFGjAPjwww+LK5kwF5t3KRN9q/kqJfUh2Nvb07y5MgejcuXKJfpLfcSIEbz//vumNWTUWjFWK2eASKkQ4hZ6ozJr29rCSuUkZqj/jSHnP1cox8ULYfTo0bi5ubFjxw7Wrl1bjOHUtyV+H6MOTeXn88swGEv27ACzsHilcjmgJzzCtuUDBgwAoHfv3kWZ6oH+/vtvvv76a8LDw1m8ePEDJ1YXF0udJQB6o16Vx88npUKIW+TvTJqn8hPTLHUIAs8KEHXh5jLLD1C+fHneeecdQBmtMBayjJibU6kX6LxtGN+cWcDL+8bzw7m/1Y6kLXo9LF2jfDwg9JHuonv37gD06tWrqFIVSv369Rk1apTqK2zmlwkrnbpviOTtmBC3sLoxQpFnyFM5iRmytIQ+3WD2b7BweaEXLxo1ahQzZsxg//79LF26lL59+xZz0KI1YcIELCzu//7seEoUuZdiTH//YeMs4ryOF8nj6/X6AmXMaDSiK8Q7/aK6nZVVEfwaOXsBrp4HNxdYtVT5UwhGo9H0/et0Ory9vdmwYQMbN2685+2L8t/GwsICS0vLQpVhnU5319sFBQUVycTO/DdC+W+M1CKlQohbWJmGEGV4+pE831cpFb8thk/HgO2D1wqwt7dnzJgxjBw5kvfff5/Q0NCi+UVVQgqzMmhsVgLr158lMScFHTo+CvqIXt4dij+cuRgwDCgH/zcSxr39yHfTuXNn2rRpU3S5zEieaaTCUtUccvhDiFvkPyHl8Mcjat0cnqgLVxNgyepCf9mwYcOoVq0aJ0+e5I8//ijGgOrwsvMgIngxPzX9mD2d5kuhuNWVq7BsrTLSNXTgY91VWS0UcMvhD5Xng0mpEOIWpsMfRjn88cheG6xcfje30F9iY2PDBx98ACgLY6m6l0kxqeJQiaF+vWnq+nBnNpR6P8yH3FwICYaqldVOY7byDDJSIYTmWN54Ssjhj8cw+GlwdoLte+DIiUJ/2YsvvkidOnU4f/48v/zySzEGFJqh18NPN0amXhuibhYzJ4c/hNAgKws5/PHYnMrBuLdg/kyoU6PQX2Zpacm4ceMAZdOxjAz1d1wUxczSEhbMgtdfgC7t1E5j1vSmiZpSKoTQjPzTseTsj8c0+jV4rg885P4LAwcOpFGjRly+fJnZs2cXUzihKUFNYdZkZQE18chMIxUWUiqE0Aw7S+VshSyVN+Upq3Q6nWnn0smTJ5t2nhRC3JsRIzmGXABsLYpvd9bCkFIhxC3cbMoDcC07SeUkZVdoaCgtW7YkISGB6dOnqx1HCM1Lzk0j15CHg6Ud9pa2qmaRUiHELdzzS0VOsspJyraJEycCMG3aNK5fv65yGiG0LSE7EQAPW1eVk0ipEKKA/Cdl/pNUqCM4OJiOHTuSnJzM559/rnYcITQt/01Q/psiNUmpEOIWMlKhHZPEamiBAAAUyklEQVQnT0an0/Htt99y5coVteMIoVkJNw7XykiFEBrjbuMCwLUcmVOhtubNm9O9e3fS09OZPHmy2nGE0KyEnBuHP268fqlJSoUQt/CwVZ6UCTJRUxMmT56MhYUFs2fP5ty5c2rHEUKTrmXfOPxhK6VCCE2RkQpteeKJJ3j66afJyclh0qRJascRQpPyX69kToUQGpM/fJggpUIzJk6ciJWVFb/++iuRkZFqxxFCc/Jfr+TwhxAakz/RKT5bTmPUilq1ajFo0CD0ej2ffPKJ2nGE0Jz8s9Xk8IcQGuNh64KjlT0puelyCERDJkyYgK2tLX/++ScRERFqxxFCU6LSLwHg5+CtchIpFUIUoEOHv6Oy/fKZtIsqpxH5qlatyn/+8x8MBgPjx49XO44QmpJfKqqXq6JyEikVQtyhxo0n5lkpFZrywQcf4ODgwPLly/n333/VjiOEJsRlXSMlN51yVg5UtHVTO46UCiFuV91RKRUyUqEtXl5eDB8+HICPPvpI5TRCaMPZdOV1qoYGRilASoUQd8gfQsx/sgrtGDNmDM7OzoSHh7Np0ya14wihuvw3PzXK+aqcRCGlQojb5Dd+GanQHnd3d/773/8CMHbsWIxGo8qJhFBX/puf/BFWtUmpEOI2NRyVxi8jFdo0evRoKlasyJ49ewgLC1M7jhCqOpuWP0mzsspJFFIqhLiNr0MlbC1sTBOghLaUK1eOt99+G4D33nsPg8GgciIh1HMmLRqQwx9CaJaFzgI/R+V8bxmt0KYRI0bg4+PDkSNHWLJkidpxhFDNzcMfMlIhhGbVc/YHICLppMpJxN3Y2dnx3nvvAfDhhx+Sl5enciIhSl5M5lUSspNwsnKksr2n2nEAKRVC3FWgSz0A9iUeVzmJuJdXX30Vf39/Tp06xe+//652HCFK3N7EowAEutbFQqeNX+faSCGExjR1CwBgX+IxlZOIe7G2tjatVzFhwgSys7NVTiREydqfeAKApq4BKie5SUqFEHfRzDUAHToikk+Ra5Chda0aPHgwdevW5cKFC/z0009qxxGiROW/6Ql0radykpukVAhxF2425fFz9CZLn82xlLNqxxH3YGlpyYQJEwD49NNPycjIUDeQECVo/43Ds02lVAihfflDinIIRNv69+9P48aNiY2NZebMmWrHEaJEnE+/THx2Iq42zprYSCyflAoh7iHQtS5w892A0CadTsfEiRMBmDp1KikpKSonEqL4mQ59uNRDh07lNDdJqRDiHvKPU8oZINrXo0cP2rZt+//t3XtUVXWiB/DvPuA5vJEDPghB8IUNoo2a6Giajaj5aCC86tVVJs6opZFF3tQUFWShQsvH7XG1aw8rbXSWl+n6uKEO6lQmaD4SDUQ0BU2EAxxA4MBh3z8IkpE3B357w/ezFkvOYR/4gi787r1/D+Tm5mLLli2i4xC1uXP5v9760Cvn1gfAUkFUr+ozgEsFaSirNImOQ43YsGEDACAuLg73798XnIaobVXP/Bja9XHBSWpjqSCqh4vWCQMce8NUWY4kw2XRcagRTz31FCZMmICioiLExcWJjkPUZsorK/B97iUAQIDeX3Ca2lgqiBrwx+4BAICj904LTkJNERMTA0mSsH37dmRlZYmOQ9QmvjdcQmFFMQY49oaXnbvoOLWwVBA1ILDHSADA0XvfC05CTTF8+HBMnz4dpaWliImJER2HqE1Un+RM6D5ScJJHsVQQNWB8txGwlqyQnHcZeSbOKlCD6OhoaDQa7Ny5ExkZGaLjEFlc9UlO9UmPkrBUEDXAuYsDhrv4wSxX4mTOWdFxqAkGDRqEWbNmoby8vGbwJlFHkV9eiLN5KbCSNBjnNlx0nEewVBA1grdA1Gf9+vWwtrbG7t27cfXqVdFxiCwmMTsZFbIZI/T+cNE6iY7zCJYKokYE9hgFgIM11aR///6YN28ezGZzzTLeRB3B0eyq30NKvPUBsFQQNWqU6xA4dbHHtaJbuFHMGQVqERERAZ1Oh/379+P8+fMAgLt37yIxMVFwMqKWq75iqsRBmgBLBVGjrCUrjHUbBgA4nn1GcBpqKi8vLyxatAiyLCMiIgIAsPvTT7Hz/f8UnIyoZX5+cBfpRbfgaG2PkfrBouPUiaWCqAkm9fgDAOCrOyeE5qDmWb16NRwdHXHw4EGcPHkSH3/4Pr46eAgGg0F0NKJm+987JwAAT3cbji4aa6FZ6sNSQdQEIb0CoZE0+Pred5xaqiLdunXDkiVLAABhYWGQy4ow1V+PPXu+EJyMqPn+mvk1AGBGr0DBSerHUkHUBO42bhjt+gRMleX46u4J0XGoGd566y24uLjg2tXLCB1qiwVDbfHxDm6RTuqSWXIP3+VehE6jxZ8eGy86Tr1YKoiaaGaviQCAfbcTBCeh5ujatSsWLVqESlnGvCe7ItDXETnZv+DMGY6PIfXYn5mASrkSk3uOhnMXB9Fx6qXMmzJECjSjVyCWXdyMo9mnkWvKh6u2q+hIVIekpCQcPnQQGWlXkHE9HRk3b8GQX4jnBjmjp2PVr7yloxzxx6fHQqftgj69PdGnb1/08f0d+vTtj8GDByMgIEDwd0FUW/XJTPXJjVKxVBA1UU8bN4x1G4bE+8mIz0rEAp9g0ZFUL3DbtzBXyhb9nJnxsfj5u4OImdoDCwLs0GdKT3g4e0Ij/XbM8qf1WP60HvcKK5CRa0Jq9iUsfy8B5TZ6+IbGwv67cotm6sxiQwZhmBcLeGvcfvALzhh+hI2VDtPcx4mO0yCWCqJmmOk5CYn3k7E/M4GlwgIS0+5bvFRg4AvQFQJx//wHvv6zIzy7dqn30B6O1rDSAG8czEWJqy+Kn/kPJBkdAON9y2bqxAzFJtERVO+vmV9DhowpPcfAqYu96DgNYqkgaoYZHoF49XwMjmefQXaZAd11etGRVO3w0j+g0tKlAgDwFI5/tQ/jNq7ChyFuCBlc93LGZ2+XIHj3Lxgb9CIiXlsNSZLqPI5abiivUrTavttVsz5meU4WnKRxLBVEzeCm64rx3Ufg6L3TiM/6Bxb2mSE6kqpNfLx7m33uyX6v4gkvPbZueKPeUvHpD0WY/dIixMbGtlkOota4UZyFs3lXYGdlg6k9nxIdp1Gc/UHUTLN6TQIAfHbroOAk1Bij0Qhft9/OnX68W4qE1MKax756DYwG3uog5fr81iHIkDHNfSzsrW1Fx2kUSwVRM83ynAQHazt8k3MeV40ZouNQA35K+RED9TLKzTI2HDfgmZ138ef4IrywJxMFpWb4dtch9epl0TGJ6iRDxqc/fwUAeMn7T4LTNA1LBVEzOVjb4d9+XdHu45//LjgNNSQ15RLKKmSMfC8L/yz2wbmLl3E5NR33nYfAJ+on3DSYcDU1XXRMojodvfc9rhfdRi/bHpj461YBSsdSQdQCC3yeBwB8fDMeZZUc3a5UqdfSsflkPhaviMH/HT8JLy8vODk54UjCcXT37IfX/ucOsg0FyM/PFx2V6BH/feMAAGCBTzCsJHX8d62OlEQKM9r1CfzOqQ9yyvK5yZhClZSUYKD/7/HjlVT8ZeHCWjM7JEnC1q1bUVJeCa1Wi7NnzwpMSvSo7DID/n4nERpJg/neQaLjNBlLBVELLfSpmvnxbvqXgpNQXbRaLQ4fPgwvL686Pz558mSMGzcOJpMJJ06caN9wRI3YmfE3mCrLMbnHaPS2cxcdp8lYKohaKNQnCE5d7HEq5xzO5V0RHYf+hZWVVaPrTmzYsAEAsG3bNmRnZ7dHLKJGVchm7Mj4GwDg1X7/LjhN87BUELWQo7U9XvCaDgD4IGOf4DTUEmPGjMGkSZNQVFSEzZs3i45DBAA4kHUcmSX30N/BCxN7jBIdp1lYKohaYWm/2ZAgYX9mAh6YS0XHoRaIjo6GJEl47733kJmZKToOEXb/Oo10Sd/Z0KhkgGY1daUlUpiBjj7YMWwNLgcegJ2Vjeg41ALDhg1DUFAQSktLER0dLToOEfaNjMP7v39bVQM0q7FUELXSX3xC4GnXU3QMaoWoqChoNBrs2rUL169fFx2HOjk7Kxu83Hem4jcPqwtLBRF1en5+fpgzZw7Ky8sRGRkpOg6RarFUUIf0ww8/ICwsDKGhoTh37hwAICkpCXFxcYKTkVJFRUVBq9Xiiy++wJUrnM1D1BIsFdTh7NmzB8HBwVi2bBk2b96M8PBwFBYWYtGiRSgoKBAdjxTK29sbL730EsxmMyIiIkTHIVIllgrqUNLS0jB//nxERkaiT58+cHNzQ1BQEMLDw3Hr1i28+eaboiOSgq1duxa2trY4cOAAkpKSRMchUh2WCupQvvzyS8iyjBkzZtQ85+npiQ8//BArV66Es7OzwHSkdI899hgWL14MWZaxbt060XGIVIelgjqU48ePw8/PD/b2v42azs3NhYeHB5YuXSowGanFqlWr4OjoiCNHjuDkyZOi4xCpCksFdShGoxHdunWreVxcXIyYmBhMnDgRNjY2yMrKEpiO1MDNzQ1hYWEAgNWrVwtOQ6QuLBXUoQwaNAh3796tebxy5UoEBATgwoULuHbtGvbv3y8wHanF8uXLodfr8c033yAhIUF0HCLVYKmgDmXt2rUoKSnB66+/jjlz5sBoNOLzzz9H//79MXToUEybNk10RFIBZ2dnhIeHA6i6HSLLsuBEROpgLToAkSX169cP6enpuHHjBpycnODq6goA+Oyzz1BcXAwXFxfBCUktXnvtNWzfvh3nzp1DfHw8goODRUciUjxeqaAOycfHp6ZQAIBWq2WhoGaxt7fHypUrAQBr1qxBZWWl4EREysdSQYq3bt06SJLU7m+cUkgvv/wyvL29kZKSgr1794qOQ6R4LBWkeOvWrYMsy+3+xlJBWq0Wq1atAlB1tcJkMglORKRsLBWkSg8ePBAdgTqJ0NBQ+Pr64saNG/jkk09ExyFSNJYKUpWzZ89i6tSp2LJli+go1ElYWVnV7AWyfv16lJSUCE5EpFwsFaQaBoMBOp0OKSkpoqNQJzN79mwMGTIEd+7cwY4dO0THIVIslgpSDb1eD39//1orZrYWt0inptBoNDVjbKKjo1FYWCg2EJFCsVRQp8Ut0qk5goKCMHLkSOTk5GD79u2i4xApEksFdUrcIp1aIjIyEgAQGxsLg8EgOA2R8rBUUIdQXl6O4uLiBt8eXmqZW6RTSwQGBmL8+PEoKCjAO++8IzoOkeJwmW7qEPbt24cLFy40eMyLL74If39/ANwinVouKioKY8aMwbZt2xAWFoYePXqIjkSkGCwV1CHMnTsXc+fObfLxTdki3cPDoy2iksqNHj0aU6ZMweHDh7Fx40ZObyZ6CG9/kOqUlpa2etdIbpFOrRETEwONRoMPPvgAt2/fFh2HSDFYKkg1jEYjdu3ahZSUFBw6dAjHjh1r8efiFunUGoMHD8bzzz+PsrIyREVFiY5DpBiS3NpTPiIV+9ct0k0mk6K3SI+KikJERATeffddLFmyRHScTi0tLQ1+fn6QZRkpKSnw9fUVHYlIOF6poE6NW6RTSw0YMABz586F2Wzm1QqiX7FUEBG10Pr166HVarF3715cvHhRdBwi4VgqiIhaqHfv3liwYAEqKytrlvEm6sxYKoiIWmHNmjWws7NDfHw8zpw5IzoOkVAsFUQKduXKFZw6darBY06dOlVreiy1L3d3d7zyyisAULNFOlFnxVJBpGADBw5EaGgoTp8+XefHjx07hiVLlsDd3b2dk9HDVqxYAScnJyQkJCAxMVF0HCJhWCqIFEyj0WDIkCEYP378I8Xi6NGjePbZZzFq1ChB6aiaq6srli1bBqDqdghRZ8VSQaRwISEhMJvNCAwMrFm98aeffkJwcDAkSUJwcLDghAQAb7zxBlxdXfHtt9/iyJEjouMQCcHFr4gUrnqjs7KyMmi1WphMppo/dTod8vLyYGtrKzomAdi0aRNWrFiBwYMH4/z589BoeN5GnQv/xRMpnKurK/r27QugasXPh/8cPnw4C4WChIWFwcPDA5cuXcKBAwdExyFqdywVRCowY8YMaLXaWs/Z2tpi5syZghJRXWxtbbFixQoAwNtvv42KigrBiYjaF0sFkQpMmzYNOp2u1nOSJGHKlCmCElF9Fi5cCB8fH6SlpWHPnj2i4xC1K46pIFKByspKuLi4wGg01jzn7u6OO3fuCExF9fnoo4+wYMECeHt7IzU19ZGrTEQdFa9UEKmARqPBhAkTah5LkoTnnntOYCJqyLx58/D444/j5s2b2LVrl+g4RO2GpYJIJUJCQmpugeh0Ok4lVTArKyusXbsWQNV29Q8ePBCciKh98PYHkUoYDAZ0794dZrMZ1tbWMBqNnPmhYLIsY+jQobhw4QLi4uIQHh4uOhJRm+OVCiKV0Ov10Ov1AKp2x2ShUDZJkhAZGQkA2LhxY63xMEQdFUsFkYrMnz8fkiRh8eLFoqNQE0yfPh2jRo1CTk4Otm7dKjoOUZvj7Q8iFUlOTsaIESOQnp5esyAWKdupU6cwbtw4ODs74/r163B1dRUdiajN8EoFkYoMGzYMY8aMYaFQkbFjx+KZZ55BQUEBYmNjRcchalO8UkGkMsnJyXjyySdFx6BmSE5ORkBAAHQ6GyRdvAL/Ad6iIxG1CZYKIoXZtGlTvR/Lzc2FJEkAqmYXVL9va2tb58BNWZaRl5dX69jq9+3s7GBjY1NzrCRJkGW55jV1sbe3h06nqzm2+nVmsxn5+fl1vsbBwaFm8aeHX2c2m1FQUPDI9yLLMhwdHetcMKr669T1M3j46zysoqKi3kGS1V/n4e9FluUGX+Pk5ARra+tHfgYmkwmFhYW1jq3O5+TkhP/a9SmyMm9jzJwwnPqk/r9jIjVjqSAiagdZWVlwdnaGg4OD6ChEbYalgoiIiCyCAzWJiIjIIlgqiIiIyCJYKoiIiMgiWCqIiIjIIlgqiIiIyCJYKoiIiMgiWCqIiIjIIlgqiIiIyCJYKoiIiMgiWCqIiIjIIlgqiIiIyCJYKoiIiMgiWCqIiIjIIlgqiIiIyCJYKoiIiMgiWCqIiIjIIlgqiIiIyCJYKoiIiMgiWCqIiIjIIlgqiIiIyCJYKoiIiMgiWCqIiIjIIlgqiIiIyCL+H3XuNAgf13DgAAAAAElFTkSuQmCC;" vertex="1" parent="1">
          <mxGeometry x="30" y="110" width="260.8" height="160" as="geometry" />
        </mxCell>
        <mxCell id="KH99gnBK2z-O9xpqxuGS-3" value="Double sphere model&lt;br&gt;主人公" style="text;html=1;align=center;verticalAlign=middle;resizable=0;points=[];autosize=1;" vertex="1" parent="1">
          <mxGeometry x="95.78999999999999" y="280" width="130" height="30" as="geometry" />
        </mxCell>
        <mxCell id="KH99gnBK2z-O9xpqxuGS-4" value="" style="shape=image;verticalLabelPosition=bottom;labelBackgroundColor=#ffffff;verticalAlign=top;aspect=fixed;imageAspect=0;image=data:image/png,iVBORw0KGgoAAAANSUhEUgAAAc0AAAFGCAYAAAAIMsQGAAAABHNCSVQICAgIfAhkiAAAABl0RVh0U29mdHdhcmUAZ25vbWUtc2NyZWVuc2hvdO8Dvz4AACAASURBVHic7N13fNPV/sfxV7p3GaW07JZdNgiigAjiBPUi4uAiTsSJoLjHz+u6igIqIkOGBRQpQ0RUvA4QUZDVtNC0pXtAC7RA90zy+yO0ijI60pxvks/z8eAhlibfNwTyzvl+z/ccndlsNiOEEEKIi3JRHUAIIYSwF1KaQgghRB1JaQohhBB1JKUphBBC1JGUphBCCFFHUppCCCFEHUlpCiGEEHUkpSmEEELUkZSmEEIIUUdSmkIIIUQdSWkKIYQQdSSlKYQQQtSRlKYQQghRR1KaQgghRB1JaQohhBB1JKUphBBC1JGUphBCCFFHUppCCCFEHUlpCiGEEHUkpSmEEELUkZSmEEIIUUdSmkIIIUQdSWkKIYQQdSSlKYQQQtSRlKYQQghRR1KaQgghRB1JaQohhBB1JKUphBBC1JGUphBCCFFHUppCaEB+fj7Lli1THUMIcRFSmkJowGerVzN39n9VxxBCXISUphAasGzRfLKzsti1a5fqKEKIC5DSFEKxffv2UXQqjxfGBLHik4Wq4wghLkBnNpvNqkMI4cwemXY/7Y5+z/1DAun5bjqZR4/h5+enOpYQ4hxkpCmEQmVlZURFRXHXoABa+7sxoksA69evUx1LCHEeUppCKLRhwwYu7eRP+2buANw30IsViz9SnEoIcT5SmkIotHzRfO7r71H7/2Mj/ElKSiIhIUFhKiHE+bipDiCEo8vPzyc1NfXPH4cNpCYlkpqeQWlxETeO71L7vW4uOiYP8OeyIYPoGt6R8PBwwrv3IrxzV8vPw8Np3749rq6uCn9HQjgvmQgkRBM5deoUYR3bozObCG/tR3gLD8IDTYQ3dyG8pSfhLT3o0Nwdd1fdPx57oria1PxKy4+TVaQWuJB6ykTq8RKOFZTRpUsXPvt8Df369VPwOxPCIjExke7du6uOYVNSmkI0kZKSEu6/ezJpMTvZ8O9WtDtz3bKhzGZ4/cd8lh6oYN2mLVx66aVWSipE/ZnNZgYOHMj27dsJDAxUHcdm5JqmEE3E19eXL9Z/yf1PvcaQj7L5Oam4wc9VVGHi1tW5/C8vmD8OxEphCuV27tyJXq9n7dq1qqPYlIw0hbCBX375hTsnjueJy3x4dlTLej026UQF41cdZ9jVNzF/4RI8PDwu/iAhmti999xD7oFvOenVgT/27FMdx2ZkpCmEDYwcOZKdu/fxeZIP9607QaWxbp9VvzEUMvzjbGa+8g6Ll30qhSk0obi4mM1ffcmKia3IzUonNjZWdSSbkdIUwkbCw8P5bc8BVu85TnmVqU6P+fxgJc//3xvc/8DUJk4nRN2tWbOGUb1CCPF3Y8qQICIjI1VHshkpTSFs6OTJk7QK9CHAq263jHRvbubEsZwmTiVE/Sxf+gn39bGcLbmvr45VkZ9SUVGhOJVtSGkKYUOJiYl0D/H9x9d/SyvhnZ/zqPrbadsewe4kHIqxVTwhLiohIYGs9GSu7eoFQFhLD3p3aMY333yjOJltyOIGQthQYmIiPVr+eV9mWZWJF7bms+5QBRG9erN2QRwrbm1JvzaWN6TuwV4k/p6oKq4QgGWN5JrFOVasWMHdQ1vj6vLn3+P7+rny7ux3MJvNtYtwOOptKFKaQthQwqEYup8pzV3ppUxek8OgYVcRY1hOy5YtWbcuimsfnsY9A3157doWdGvlQUpGGkajUVYBEjaxbds2tm/fXluSaWlpZxbqaEd4m1aEB3nxUN+zF+SYEOFJdIk7qxfPI/VoHqnp2Xh6edUWaM2PHj16MHz4cEW/M+uQW06EsKGrR17Go11y+TWtlMW/57Nk+UomTZp01vfk5ubyyIP3kRyzmxW3BjFh9XF++n0/nTt3VpRaOJPxY69hx87fefu+UfRobiLcp5g2rgXodPWriuNGP9LKA0gpdOf/Pt9NcYWJdRs3SWkKIequQ2grSkuKKauo5KlnX+S111477/euXBnJ0zOfoLy8jM+jNjJ27FgbJhXOqriokHtvuoK05MNsvK8THZo3fCWr4goT932RRUqRB19u3UGHLj2smFQNmQgkhI2UlJRgxI2uvfrj5deMp59++oLfP2XK3UQfNDBy5CgSE+W6prANP/8Aon6OZuIdk7j0/WR+SSlp0POk5FVy+QfJeAZ3ZWdsmkMUJkhpCmEzRqORdRs2sGfPHp588kn8/f0v+pg2bdqw+dutTJgwwQYJhbDQ6XQ8++5SVnyykNtXZrNk18l6Pf77hCIu/zCFf0++i1Xf78Xb558zxu2VnJ4VwoYmTJjAzz//TFpaGs2aNVMdR4iLSoqLZtzVo3jmCn/uH9riot+/M7WECZ9mseGLVQy/4TYbJLQtGWkKYSNxcXFs2rSJJ598UgpT2I2uvQYw4PJReLnXrS58PFwIadfRIQsTpDSFsJlXX30Vf39/Hn/8cdVRhKiXxIR4ugd7/uPrJZX/XA6ye7AnyWmZmEx1WyrS3khpCmEDBoOBjRs3MnPmTBllCrtiMplISs04qzSNJjNztp+g9csGZm46SulfytPXw4WWAd5kZGSoiNvkpDSFsIH//Oc/+Pv7M336dNVRhKiXrKwsmvl64u9pqYuUvEqu+jiV1dGlBPi4c9q7E31mH2Zb8p/7xXZvE+CwM76lNIVoYvHx8axfv54nnniC5s2bq44jRL0kJibSo20AJjMs2XWSyz5MYdQN40k4XsGoGyaw4ru9fPTBPO7+IodpUdkUV5joEeQqpSmEaJjXXnsNPz8/nnjiCdVRhKi3xMREXIwVDP8wmbWJLuzZu4/qwE6Ul5fX/p2+/t+PEJOQRllAOAPeO8zJU6dJiDcoTt40pDSFaELx8fFERUUxffp0WrS4+HR9IbQmMSGe3Un53HXvA/wYnU5w+y4sWrSIUaNGMWTIkNrvax7UmpVb9zJ3zntsSykj0XBQYeqmI6UpRBN644038PHxkVGmsFtt24QSG3OAh1/5AJ1Ox6effkpeXh5PPfXUOb//ximPE5eUzpAhl9o4qW3I4gZCNJGkpCQiIiJ45plnePPNN1XHEaLRTCYTvXr1wmw2YzAYcHFxvnGXbA0mRBN57bXX8PT0ZMaMGaqjCGEVmzdvJiEhgSVLljhlYYKMNIVoEsnJyfTs2ZNZs2bx3//+V3UcIaxixIgRJCYmkpGRgbe3t+o4SjjnRwUhmtjrr7+Op6cnM2fOVB1FCKvYt28fO3fu5NFHH3XawgQpTSGsLiUlhc8//5xHH32U4OBg1XGEsIp3330XLy8vHnroIdVRlJLSFMLK3njjDTw9Pc87u1AIe5ORkcHGjRu5++67ad26teo4SklpCmFFqamprF69mocfflhGmcJhvP/++xiNRrl1CpkIJIRV3X///Xz++eekpqYSGhqqOo4QjVZYWEj79u0ZOXIkmzdvVh1HORlpCmElGRkZrF69mkceeUQKUziMRYsWUVhYKJcbzpCRphBWMnXqVFavXk1KSgpt2rRRHUeIRquqqqJz584EBwezb98+1XE0QUaaQlhBZmYmK1eu5KGHHpLCFA5j7dq1ZGVlySjzL2SkKYQVTJs2jZUrV5KcnEzbtm1VxxHCKgYOHMiJEydITU3F3d1ddRxNkJGmEI2UlZXFp59+yoMPPiiFKRzGzz//THR0NDNnzpTC/AsZaQrRSA8//DArVqwgJSVFSlM4jLFjx/Lrr7+SlZVFYGCg6jiaISNNIRohKyuLFStWMHXqVClM4TASExPZunUrDz74oBTm30hpCtEIb7/9NmazmVmzZqmOIoTVvPvuu7i4uDB9+nTVUTRHSlOIBsrJyWHFihXcf//9dOzYUXUcIazi+PHjfPbZZ0ycOJEOHTqojqM5UppCNNBbb71FdXU1zzzzjOooQljNRx99RHl5uewDex4yEUiIBsjJyaFz585MmTKFRYsWqY4jhFWUlZXRoUMHevfuzbZt21TH0SQZaQrRAG+//TbV1dU8++yzqqMIYTWRkZHk5eXJYgYXICNNIeopNzeX8PBwJk+ezJIlS1THEcIqzGYzvXr1wmg0Eh8fj4uLjKnOxU11ACHszTvvvEN1dTXPP/+86ihCWM3mzZuJj49n8eLFUpgXICNNIerh2LFjhIeHc+edd7J06VLVcYSwmiuuuIKEhAQyMjLw9vZWHUez5OOEEPUwe/ZsKioq5FqmcCj79u3j119/5ZFHHpHCvAgZaQpRR3l5eYSFhTFx4kSWL1+uOo4QVnPHHXewadMm0tPTCQkJUR1H02SkKUQdvfPOO5SVlfHcc8+pjiKE1WRkZLBhwwbuvvtuKcw6kNIUog7y8vJYtGgRkydPplu3bqrjCGE1H3zwAUajURYzqCMpTSHq4N1336WsrExmzAqHUlhYyPLlyxk7diw9e/ZUHccuSGkKcRH5+fksXLiQSZMm0b17d9VxhLCaxYsXU1BQIIsZ1INMBBLiIp5//nneffdd4uLipDSFw6iqqqJLly4EBQWxf/9+1XHshow0hbiA/Px8FixYwB133CGFKRxKVFQUmZmZMsqsJxlpCnEBL774Iu+88w6HDh2iR48equMIYTVDhgwhJyeH1NRU3N3dVcexGzLSFOI8Tp8+zccff8xtt90mhSkcyrZt29i7dy8zZsyQwqwnKU0hzmPu3LkUFhbywgsvqI4ihFXNmTMHf39/HnjgAdVR7I6UphDnUFBQwPz585k4cSK9e/dWHUcIq0lMTOS7775j6tSpBAYGqo5jd6Q0hTiHefPmUVBQwIsvvqg6ihBW9d5776HT6XjsscdUR7FLMhFIiL8pKCggLCyMMWPGEBUVpTqOEFZz/PhxOnXqxM0338yaNWtUx7FLMtIU4m8++OADTp8+zUsvvaQ6ihBWtWDBAsrKymTJvEaQkaYQf1FYWEhYWBijRo1i/fr1quMIYTXl5eV06tSJHj16sH37dtVx7Jab6gBCaMmHH37IqVOnePnll1VHEcKqIiMjOXbsGJ988onqKHZNRppCnFFcXExYWBgjRoxg48aNquMIYTVms5levXphNBqJj4/HxUWuzDWUjDSFOOPDDz8kPz9f7ssUDufrr78mPj6eRYsWSWE2kow0hQBKSkoICwvj8ssvZ9OmTarjCGFVI0eO5NChQ2RmZuLr66s6jl2TjxxCAPPnz+fEiRNyX6ZwOPv372fHjh089thjUphWICNN4fRKSkoIDw/n0ksvZfPmzarjCGFVd955J19++SXp6emEhISojmP3ZKQpnN6CBQs4fvy4zJgVDic7O5sNGzYwZcoUKUwrkdIUTq2kpIQ5c+YwduxYBg8erDqOEFY1b948qqurZTEDK5LSFE5t4cKFHD9+nFdeeUV1FCGsqqioiGXLlnHDDTcQERGhOo7DkNIUTqu8vJy5c+dy/fXXM2TIENVxhLCqxYsXU1BQwFNPPaU6ikOR+zSF0/r444/Jyclh3bp1qqMIYVXV1dXMnz+fvn37cuWVV6qO41BkpCmcUnl5OXPmzOHaa69l2LBhquMIYVVRUVFkZmbyzDPPoNPpVMdxKDLSFE5p0aJFHD16lLVr16qOIoTVffDBB7Rt25aJEyeqjuJwZKQpnE55eTnvvfceV199NcOHD1cdRwir2r59O3v27OGJJ57Aw8NDdRyHIyNN4XSWLFnCkSNHZBNe4ZDmzJmDv78/U6dOVR3FIcmKQMKpVFRU0LlzZ3r06MGPP/6oOo4QVnX48GF69uzJE088wdy5c1XHcUgy0hRO5ZNPPuHIkSN8/vnnqqMIYXVz5sxBp9Px2GOPqY7isGSkKZxGRUUFXbp0oWvXrvz888+q4whhVSdOnKBjx47cdNNNfPHFF6rjOCwZaQqnsWzZMrKzs1m9erXqKEJY3YIFCygrK2PmzJmqozg0GWkKp1BVVUXXrl1p164dO3fuVB1HCKuqqKigY8eOdOvWjR07dqiO49BkpCmcwrJly8jIyGDFihWqowhhdZGRkRw7dozFixerjuLwZKQpHF5VVRXdunWjTZs2/Pbbb6rjCGFVZrOZXr16UV1dTUJCAi4ucvt9U5KRpnB4K1asID09naVLl6qOIoTVffPNN8THx7Nw4UIpTBuQkaZwaFVVVXTv3p2QkBB+//131XGEsLpRo0YRGxtLZmYmvr6+quM4PBlpCocWGRlJWlqaXOsRDmn//v1s376dl19+WQrTRmSkKRxWVVUVPXr0IDg4mF27dqmOI4TVTZo0iY0bN5Kenk5ISIjqOE5BRprCYa1evZrU1FQWLFigOooQVpednc369euZMmWKFKYNyUhTOKTq6mp69OhBUFAQu3fvVh1HCKubNWsWc+fO5eDBg/Tq1Ut1HKchI03hkFavXk1KSgrz589XHUUIqysqKmLp0qVcf/31Upg2JiNN4XCMRiMRERH4+/uzd+9e2bleOJy5c+fy1FNP8dNPPzF69GjVcZyKjDSFw/nss884fPgwW7ZskcIUDqe6upoPP/yQvn37MmrUKNVxnI6UpnAoRqORt956i4EDB3LDDTeojiOE1a1bt46MjAxWrVolHwoVkNIUDmXNmjUkJiayefNmeUMRDun999+nbdu23HbbbaqjOCW5pikchtFopHfv3nh7e7N//34pTeFwfvnlF6688kreeecdnnnmGdVxnJKMNIXDWLt2LQkJCXz55ZdSmMIhzZkzB39/fx588EHVUZyWjDSFQzCZTPTr1w+AmJgYWbhaOJzDhw/Ts2dPpk+fzrx581THcVoy0hQOISoqikOHDrFhwwYpTOGQ5s6di06n4/HHH1cdxanJSFPYPZPJRP/+/TGZTMTGxkppCodz8uRJOnTowNixY1m7dq3qOE5NRprC7q1fv56DBw+ybt06KUzhkObPn09JSQkzZ85UHcXpyUhT2DWz2Uz//v2prq7m4MGDUprC4VRUVNCpUye6dOnCr7/+qjqO05ORprBrGzZsIDY2lrVr10phCoe0cuVKcnNzWbhwoeooAhlpCjtmNpsZMGAAlZWVHDp0SEpTOByz2Uzv3r2pqqoiISFB/o5rgIw0hd368ssviYmJYc2aNfJmIhzSt99+i8Fg4OOPP5a/4xohI01hl8xmM4MHD6a0tFRGmcJhjR49mpiYGDIzM/H19VUdRyAjTWGnvvrqK/bv389nn30mhSkcUmxsLNu3b+fFF1+UwtQQGWkKuzR48GAKCgowGAy4uclnP+F4Jk+ezPr160lLSyM0NFR1HHGGvNsIu7N582b27dvHqlWrpDCFQzpy5AhRUVHcddddUpgaIyNNYXeGDBnCqVOniI+Pl9IUDunpp59mzpw56PV6+vbtqzqO+At5xxF2ZcuWLezdu5fIyEgpTOGQioqKWLp0Kdddd50UpgbJDAphV15//XU6d+7MpEmTVEcRokksXbqU06dP89RTT6mOIs5BTs8Ku/Htt98yduxYVqxYwT333KM6jhBWZzQa6datG76+vsTExMi+sBok57eE3XjrrbcIDw9n8uTJqqMI0STWr19PamoqK1eulMLUKClNYRe2bt3Kb7/9xrJly+RapnBY8+bNo02bNtx+++2qo4jzkGuawi68+eabdOzYUUaZwmHt2LGDP/74g+nTp+Ph4aE6jjgP+cguNO+HH35g586dfPLJJ/JmIhzWnDlz8PX15YEHHlAdRVyATAQSmnfFFVeQkZFBUlKSlKawqhMVpzhcnEF6yVEyS3M4UnacMmMFRdUllBrL0aHD29WTAHc/vF09aefdmo4+oXTwCaWHfydaeARaJUdSUhI9evTg8ccf5/3337fKc4qmISNNoWk//fQTv/76K4sXL5bCFI1iMpvYd8rAD8d2s+9UHPtPx5NVmnve79ehw8yFxxRhvm0Z1DyCIc17M6b1pfRv1h0d9Z/AM3fuXHQ6HY8//ni9HytsS0aaQtNGjhxJWloaycnJUpqi3ipMlXyT8ytfHvmZ74/9zomKUwC46lzo7t+JS5r3oldAZzr4hNDRpw0dfULxdvXE390XN50rAFWmaoqrSykxlpFRmkNGSQ4ZpUeJK0xh3ykDScWZmMwmAEK9grguZBjj247mutbDcHe5+Ljk5MmTdOjQgRtuuIGoqKim+8MQViEjTaFZ27ZtY8eOHSxcuFAKU9TLHycPEpnxNV9kbeVUZSEAfQK7cm+nm7m29eUMadEbPzefOj2Xu4sbzT0CaE4A7bxbM6xl/7N+vbCqhN0nY9ma+xvf5u5kRfpXrEj/imDPFtzZ4Xru7XQz/QK7nff5FyxYQElJCU8++WTDf8PCZmSkKTTryiuvJDU1laSkJDw9PVXHERpnMpv4OmcH7yZ+ym/5egB6BoQxpcONTOpwAx18QmySI6U4i88yv2VV5haSi7MAuCr4Up7ufjfXtL7srNO3FRUVdOrUic6dO7Nz506b5BONI6UpNOm3335j+PDhLFiwgEceeUR1HKFhZsysz/6RV+I+JqEoDQ8Xd+5sfx2PdrmDwc17Kc21Kz+W+clrWJ/9A9VmI30Du/FG70e5MXQkYFkyb+rUqWzcuJHx48cryyrqTkpTaNLo0aNJSEggJSUFb29v1XGERv2ad4CnY+fxx8mD+Lv5Mi38VmZ0/TdtvYNVRztLWskR5iWtZmnaRsqMFVzZ6hJm95nJPSNuo7y8nMOHD+Pq6qo6pqgDKU2hOb///jvDhg1j/vz5PPbYY6rjCA06UXGKGTGz+TzzO9xd3Jgadguv9JxGa6+WqqNdUHbZMV6J+5jIjK8xRxdifjOF2e+/x9NPyOLs9kJKU2jOmDFjMBgMMsoU5/RZ5rfMiJlNXsVpbggZzrx+T9PNv6PqWPUSW3CYcdNuJWvdIUKjruTjy17mX21GqY4l6kCW0ROasmvXLn766Seee+45KUxxltNVRUzY9RST97wAwOohb/HN8I/srjAB+gZ2o1dBW4I7hFDmVsX432cyZe9LFFeXqo4mLkJGmkJTrrnmGg4ePEhqaqqUpqj1x8mD3PHHs6SXHGVC2zEsHPgirTybq47VKB06dGDQoEEs+HwJD+z/D9/l7qSHfxhRQ2fTJ7Cr6njiPGSkKTRj9+7d/PDDDzz77LNSmKLWxylRjNh+L7nl+Xw04HnWX/ae3RdmUVER2dnZRERE0Ma7Fd8Mn887fWaQXJzJpT9PZnXmN6ojivOQ0hSa8eqrr9K6dWsefPBB1VGEBhjNJmbGvMuj0W/RwSeU30dF8mhnx9gyKy4uDrPZTEREBGBZsu+Z7vfwy5XLaeERyJQ9L/GqYdFFl/ETtielKTThjz/+4Pvvv+eZZ57Bx6duK7UIx1VSXcYtu57k/aTPGNayP7tHrWJAsx6qY1mNwWAAoFevs+8jvbxlP/4YvZp+zbrxH8Mi7trzIhWmShURxXlIaQpN+M9//kNQUJCMMgUl1WXc+Nt0Nh/dzq3truaHKxYT5NlMdSyrMhgMuLq60r1793/8WlvvYHZe+Sk3tbmSzzK/5V+/z6TMWKEgpTgXWXtWWBzPg+ISqDZCUbHlazodNAuw/Dw4CPx8m+TQ+/fvZ+vWrcyePRs/P78mOYawDwVVxVy/8xF25cfyWJc7+LD/sw3aNUTr4uLiCA8PP++1e183bzZeNpd7973Cqowt3Pz7E2y6/H18XL1snFT8ncyedRYmE8QnwaFESEiChGRIzYSjuXAsD6qqLv4cPt7QpjWEtobunS0/enaFAX0sX2+gcePG8ccff5CWlial6cQKq0oYs+NB9p6K46luU3i370yHLEywzJwdOHAgmzZtuuD3mcwmHjzwOsvSvmRUq8F8M/wjvF1lHWaVZKTpqIxG2KuH77fD7gOwaz8UWHZ7wM0NwtpDt87Qpwe0CbGMJAP8wNsLPDzA1wdOF4DZDIXFUFgER3Lh2AnIzoEtP8LSz/88Xsd2cPklMGwwXD8awut279yBAwf49ttvefvtt6UwnViFqZLxu2ay91Qcz/W4j//2nq46UpMpLi4mOzubu+6666Lf66Jz4ZNBr+Cmc2Vx6nru/ONZNlw2F1edXFlTRUrTkZRXwJYf4MvvLGWZfwpcXS3F+O9b4LJBMKA3dA0HD/fGH+90oWXUukcPu/fD7/tgzZlPzt07ww1XwcQbLcc9j1dffZUWLVrw8MMPNz6PsEsms4kpe17i5+N7eDB8gkMXJvxz5uzF6NCxcOCLlBrLWZWxhYcPvMGSQa80cUpxPlKajmDHboiMgg3fWkaTIcFw0zWWEd81IyEwoGmO2ywAhg6y/Jh+v+VraZnw3c/wzU+waCXMWwKdO1lK+57bIKxD7cOjo6PZsmULb731Fv7+/k2TUWjeU7FziMr+H+PbjubjAS+qjtPk4uLigH/OnL0QHTqWDvo/jpad4JO0jbTzbs0rEdOaKqK4ALmmaa8qKmHtVzB3McQYLMV40zWWkd31oyynYFUrK7eMfFeut4x8jUYYPQymPwDjxvCv8ePZuXMnaWlpUppOKjLja+7Z+zLDWvbnhysWO8X1ulmzZjFv3jyKi4vrvYhHUXUJI7bdS2xBEl9ePo+b21zZNCHFeUlp2puSUvhoBby3EPJOwsA+8Ph9cMe/wEvDbzhHj8HiVZYfx06g796BgYf38Mbrr/PCi44/uhD/FH06geHb7iHQ3Y99V62hjXcr1ZFs4vrrryc5OZmkpKQGPT6jNIfBP02i3FjJrtEr6RXQ2coJxYXI1WR7UVEJcxZB2KXw3JuW64Q7v4L938M9t2u7MMEyu/Y/syBzH6z8kMgT2fiY4bF1P8O3P6lOJ2wsr+I0N/8+A6PZxJeXz3OawgTLPZr1OTX7dx19Qvn80rcpNZZx665ZFFWXWDGduBgpTXvw9Q/Q60qY9Rr0i4A/voHNkZaZqvbGwx3uupUDvTszsGcEAeWVMPYuGHMbxCWqTidsZOr+/5BVmstHA57j0hZ9VMexmeLiYrKysuo8Ceh8xgRfylu9p5NQlMYM/btWSifqQkpTy9Kz4LpJcNPdlnskf4qCH9bCkAGqbfkYmgAAIABJREFUkzWK2WwmNjaW/mNGw6Ft8OEbcOAgDLjGMooul9VPHNnStI1sOrqNW9pexQNht6iOY1M1M2cbM9Ks8XT3u7k+ZDjL0zcRlf0/K6QTdSGlqUVms+XaX9+r4I8D8NGbcOB7GD1cdTKrSEtL4/Tp0/Tv398yYenx++Dwb3Dv7TD7Yxh4jeX3LRxOakk2T8bMoa13MEsGvaw6js3VrDnb2JEm/DmjtqVHIA8deIOs0txGP6e4OClNrTl2wjK6fOhZGD4EDm6DR+/VxmxYK9Hr9QCW0qwR1AIWz4Yf11pm3Q67GV6ebZlxKxyCGTP373uV4upSVlzyGi09HGs92bqIi4vDxcWFHj2ss/h8G+9WLBr4EqcqC3lc/7ZVnlNcmJSmluzYbRll/bYXls6Bb1dDu1DVqaxOr9fj5uZ27k/bo4dD7E+WUecb78PVd0DucduHFFYXmf4120/s4/6w8VzdeqjqOEoYDIYLrjnbELe2u5oJbcfw1dHtfHV0u9WeV5yblKZWzF0MV91mud9yz7dw/52qEzUZvV5PREQEXl7nWXza3w8+eQ9WfwR7omHgtZbVhoTdOllZwLMH36elR6DDr/hzIXFxcVY5Nft38wc8R6C7H4/r36a4utTqzy/+JKWpWnU1PPI8PPUfuHWspTAjuqlO1aSio6PPPjV7Pv++xfLnEeAHV02EqM1NH040iecOfsDxipPM6TfL4bb5qquambPWmAT0d6FeQbzW6xGySnN5LX6x1Z9f/ElKU6WSUrj5XlgYCS/NgM8/brLtt7QiPz+f7OzsupUmWD5A7NoClw6EOx62TBQSdiWuMIXl6ZsYHjSAKR3HqY6jjMFgqNeas/X1aOc76BfYjQ+T1pBecrRJjiGkNNUpLLJM+PlhByybC68/Y9m/0sFFR0cD1L00AZoHwvdrLCPPZ9+Al95ponSiKTx38AOMZhPv9JnhsFt91UVD1pytD1edC+/0nUGFqZKX4xY0yTGElKYaBYWWwtwTDV8shPvuUJ3IZvR6PTqdjn79+tXvgZ4esPJDy+0pb34AT7/eNAGFVf2ad4AtOTuY0HYMl7es52vuYAwGAy4uLnTv3r3JjnFt68u5uvVQPsv8lv2nDE12HGcmpWlrJaVw7STLzfwblsItN6hOZFN6vZ6OHTvSokWL+j9Yp4MPXrfsqPLeQnjhv9YPKKzqhUPzcdO58mbvx1RHUS4uLo6wsDB8fHya9Djv9JmBTqfj5Ti5lNEUHOfmP3tQVQUTH4T9sbBpOYwdozqRzen1+vqdmv27muI0muC/8yG0tWX0KTRnR95+duZFc0+nm+ju30l1HOUMBkP9z7A0wIBmPRjfZjQbj/xE9OkEBjSzzj2hwkJGmrZiNsPUp2HrNvjkXacszLKyMhITExtXmjU+fN2yDdqMV2RWrUb9N2E5LjoXnu52j+ooyhUXF5OZmdlk1zP/7sWeDwDwTuIKmxzPmUhp2sq7Cy0bRb/xrGVXEid08OBBqqurrVOaLi6waj5cMRTumWE53S00Q386ke9zf2dC26uICAhXHUe5pp45+3cDmvXgquAhrM/+gcNFGTY5prOQ0rSFn3Zarr/d+S94wXlv7D7n8nmN4elhuS4c2hrG3wcn8q3zvKLR3j38KWbMPNdDTp3DnzNnbVWaAM/3uB+j2cT7yZ/Z7JjOQEqzqWVkw+3ToHd3y9J4Tkyv19O8eXM6dOhgvSdt0QzWf2IpzEmPgMlkvecWDZJXcZoN2T9xRdAgBjbrqTqOJthi5uzfjQ4eQp/ArqzO+IbCKtlz01qkNJuSyQR3PwHVRti4zLK9lxPT6/UMGDAAnbXvRx3QGxa+DT/+atmoWyi1LP1LKkyVTAu/VXUUzTAYDISFheHra9vFSx4Mm0BRdQlrsr6z6XEdmZRmU5q7GH7ZZdnaK7yj6jRKmUwmDh48aL1Ts393921wx5mdUWLk/jRVzJhZlvYlQZ7NuKXtaNVxNCMuLs5mk4D+6u5ON+Lv5svClCibH9tRSWk2FcNhyxv4hLEweYLqNMolJSVRXFzcdKUJsOC/li3G7nocKqua7jjivH4+voek4kzu7XQzXq6equNoQs3MWVtez6zh7+bLHe2vJabgsCx2YCVSmk3BbIaHn7Ps1rFIlnyDBi6fV18tmlmuGx+Mh3lLmu444rw+z7ScBpzS8UbFSbQjPj7epjNn/67mtViTtVXJ8R2NlGZTWLnOsjfm7JcsIx9BTEwMnp6eVtt897yuGwW3joPX5kJ6VtMeS5yl0lTFpqPb6BvYjd4BXVTH0YymXnP2YoYF9aeTbxvWZH2HySwT5RpLStPaThfCs2/C8CGW62wCsIw0e/fujbu7e9MfbN5/LPdxznqt6Y8lan2bu5OTlQXc2f461VE0RcXM2b/SoWNiu6s5WnaCnfnRSjI4EilNa5uzyHL7w4L/OsWuJXVVM3PWJtqFWu6H3fAN7N5vm2MK1mX/Dx06bm9/reoomlKz5qytZ87+1Z3trwcgKut/yjI4CilNa8o7CR8stSxi0FfuT6uRk5PDsWPHbLLuZq0ZU6FtiGUylmhyRrOJ73N/p1+zboT5tlUdR1MMBoOy65k1BjTrQUefUL7O+UVpDkcgpWlNb30I5RXw6izVSTSlZiUgm400Aby94LnHLfdu/rzTdsd1UrtPxpJfWcANISNUR9GU4uJiMjIylF3P/KvrQ4aTWZqLoTBVdRS7JqVpLfmnYPEqmHIrdOmkOo2mREdHo9Pp6NOnj20PPPXf0L4NvP2RbY/rhL7NsXwwuT5kmOIk2qJ65uxf3RA6HIBvc3+16vNmluYy7cDr9P7fBFpsvoKe34/nCf1sCqqKrXocrZDStJZFK6GsHJ56SHUSzYmJiaFLly4EBATY9sCeHpZtw37YIQseNLGtub/R3COAoS37qo6iKapnzv7V6FZD8HL15Lvc36z2nN/l7qTb1pvwdPFg9+hVHL9xG/eH/YsPkz9n0E93UlJdZrVjaYWUpjVUVsGCT+GGq6BnV9VpNCc6Orpp78+8kGl3QYA/fPCJmuM7gYKqYmIKErmy1SW46VxVx9EU1TNn/8rXzZuhLfqwKz+GSlPjF/9ILs7i1l2zuKLVQD7s/yx+bj646VyZ1e1uuvp1IKU4iwUpa62QXFukNK1h03eQcwyeeEB1Es0pLi4mJSVFXWkG+MPdE2HNJjhVoCaDg/stX4/RbGJE0EDVUTTHYDDQqVMnpTNn/2p40ADKjBUcOB3f6OdamraRUmM593ca/49f6+gTCkB66dFGH0drpDStIXIddGwHVw1XnURzYmJiMJlM6koTLNc2yytks+om8mveAQApzXNQtebs+QwPskzG25nX+Ps1t545zXtpi3/OVagpy65+VtzRSCOkNBvreB787xe461bLDfXiLEpmzv5dn57QL8KyCbiwup150fi5+dC/mfpTkFpSUlKibM3Z87msRT9cdS6NLk2T2URicQa+bt509A0969d25O0nuTiLbv4dmRp2S6OOo0XyLt9YazZBdTVMmag6iSbp9XqCg4MJDQ29+Dc3pbtvg137ISVdbQ4HYzKbiD6dwCXNI+R65t8YDAZMJpOmRpoB7r5EBHRm/6nGnZ5NKcmm3FhBT/8wdOgorCph98lYEorSeDJmDpM6XM/uUavwc/OxUnLtkNJsrK++h/69oGuY6iSaZNOVgC7k1nGWFZo2y4oo1pRUnElJdZmMMs/BYLDM2NbSSBOgf7PuZJcdI6/idIOfI64wBYBeAZ0BGLH9Xi77eQo9vx9PqFcQKwe/SXMPG8+WtxEpzcY4XQg798BNsmzYuVRXV3Po0CG11zNrtG9jWaXp6x9UJ3EoMQWHAegXKKX5dzUzZ5t8k4J66hfYDYCYgsQGP4ehtjQtC/OvHvImP1yxmO9HLGRH3n6G/jy5UaWsZVKajfHdz1BVBTderTqJJiUkJFBeXq6N0gTLh5udeywfdoRVxJy2lKaMNP8pLi5OUzNna/Q781rVvHYNUTPSjAgIB6BPYFfGBF/KNa0vY0bXyew7ZWDibsdcGU1KszG2/WbZ+muQ3NB9LjbZQ7M+rhlp+ZCz8w/VSRyGoTAFV50LPQPk8sTfxcXFae7ULEDfQMu95DXF1xBxBWefnv2ra1pfBsD2E/vQn274aFarpDQb49c/LFuAyW4m5xQTE4OPjw9du2pkwYfB/cHL0zLaFFaRUpJNO+/WeLp4qI6iKaWlpWRmZmpqElCNYM8WBLj7klqS3aDHX2jmLIC3q2ftz/ecPNTgnFolpdlQeSchMQWGDVadRLOio6Pp27cvrq4amVXp6WEpTilNq0krOUJnv/aqY2hOzcxZLY40AcJ82ja4NP8+c/bv/vo1T1fH+zAlpdlQe6LBbIbLpTTPJzY2VhszZ//q8ktgX4zlNiHRKMfK8ymuLqWzbzvVUTRHS2vOnktnv/Zklx2nwlRZ78fW7JJyrlOzACcqTtX+/HzfY8+kNBvqYILltGxvmQBxLpmZmeTl5dl2D8266NMTKiohOV11EruXVnoEQPbPPAetzpytEe7bDpPZREZJTr0fG1eYDPw5c/bvvs217HjTybcNlzTX5ki7MaQ0G+pQgmXpvAB/1Uk0SRMrAZ1L7zNvYocS1OZwALnl+QC08Q5WnER74uLi6Nixo+ZmztYI9QoCILcir96PrZlAFOD+z99bZmkuS9M2AvB89/sbkVC7pDQbynAYesko83yio6NxdXWld+/eqqOcrUcXcHODOMeb1Wdrx8tPAtDKs7niJNpjMBg0e2oWINirBfDna1gfNadnp+vf4eOUKE5UnMKMmd0nY7n214cpqS5jSscbeTB8glUza4Wb6gB2Kz1LJgFdQExMDN27d8fHR2PLaHl6QNsQyGjYJAjxp5prV8GeLRQn0ZbS0lIyMjKYOFG7S2vWvGbH/3L9sS5MZhMJRen4ufmw8bK5PBr9Fo9Gv4W3qydlxgpaegSyZNArPBD2z51PHIWUZkOUlcPJ09BW8XqqGhYdHc3ll1+uOsa5tQuF7PpfyxFnO1FpecMN8mimOIm2aHHN2b+rKc0TFfUbadbMnL20RR+ubj2UhGs3kVZyhNSSI3TybUMXv/bnnFHrSOT0bEMcybX8t22I2hwadfr0aTIyMrSzqMHftZXStIaCqiIAmnnIdf2/0uqas3/VzN3ymhVUFdfrcbFnlk2smRXronOhs197rm49lK5+HRy+MEFKs2FOWCZAEBykNodG6fV6zGazdkuzdZBlSzfRKKXV5QD4uHopTqItcXFxuLi40LNnT9VRzsvrzP2TZcaKej3uh2O7Acuyec5KSrMhikss//X3U5tDo2pmzmrudpMavj5QUqo6hd0rM1bgqnPBw8VddRRNMRgMmp45C+B95oNOmbG8Xo+r2XjaEW8lqSspzYYoOnNKw09jk1w0Qq/X065dO4KDNXorgq8PlFeA0ag6iV0rNZbj4+qtOobmaHXN2b+qWequPiNNQ2EqGaU5BLr7MbC5dkfRTU1KsyHKznw683XA0jSb4Zb7wb8rfPxpg55Cr9dr99Qs/Pm6lZapzWHnKkyVeLo65ijzSNlxrv31YW78bXq9triqmTmr5UlAAB4u7ujQ1WtFIHcXNxYNfIl1Q99z6lPyDj179tVXXyU0NBSz2UxeXh5ZWVkAtGjRgk6dOpGbm4uPjw/JyZYVLnx8fGpX8KisrOTQIctiw66urvTt2xfdmYXZo6M2AgWYX3yePsMux93d8sYRHx9PWZnljbhbt274+vqi0+lITU3l9OnT6HQ62rdvT1CQ5VrokSNHOHbsGACtW7embVvLyir5+flkZGQAEBgYSOfOlovuxcXFJCUlYTab8fLyIiIiArPZjNFoJDY2FgCdTnfWggIxMTEYz4yoevXqhaen5RNmYmIiJSWW08ydO3cmMDAQgPQ4A6e+/AIz0O7NNwl2tXwSzc3N5ejRowC0atWKdu3aodPpOHXqFGlpaeh0Ovz8/AgLCyMuLo7g4GCmTZsGgIeHR+39miaTqfb0LVh2QHFxsXx2O3ToEJWVln/EPXv2xMvLC51OR1JSEkVFReh0Ojp16kTz5pb7AmtWHQJo06YNISGWiVnHjx8nOzv7rNcaoKCggJSUFIg14Esh3VesAE8PKioqapc9c3Nzo0+fPrWv9YEDB9DpdJjNZvr27Yubmxtms5n4+HjKyy0fnrp37157Ki4lJYWCggIAOnbsSMuWLf/xWoeEhBAaGopOpyMvL4/MzEx0Oh2BgYGEh1u2WioqKiIpKQkAb2/v2utjVVVVHDx48JyvtV6vx2QyAdC7d288PCzXrRISEigttZyO7tKlCwEBls2B09LSOH36NGazmfbt29OqVSvMZjO5ubnk5FgmSgUHB9OunWWZvJMnT5Keng5AQEAAucZEyirymJc8j4QEy2IRnp6eREREoNPpMBqNxMTE1P75DRgwoPbnhw4doqqqCrBMmPHysrwJHz58mOLiYnQ6HWFhYTRrZpmZm5GRQX6+ZS5B27Ztad26NQDHjh3jyBHLykQtW7akY8eOgGUyWlpaGmazGT8/P7p164bZbKaioqJ2oo67uzt9+vQBwGw21+7KA3AspJT/5W4HYOKSJLp5dfjHa52cnExRURFms5lOnTrRokULMjIyMJlM7Nmzh2nTphEaGkpISAg6nY4TJ06QlZWFTqejWbNmhIVZdoYpLCy86HuQi4vLWR9E//pa9+nTBzc3N3Q6Xe17kE6no0uXLvj7Wyb81LwHAXTo0IGWQS0xH8gjsfoPpkVO+8drnZ+fT2ZmJmazufY9yGw2U1payvrEH1jPCry8vOjZsyc6nY7q6mpiY2NrX9+BAwfW/rkePHiQ6jPLVtblPeivr/XixYvRHLMTu/POO82nTp2q/wO/+MpsJtRsTki2fijVTCaz+dapZnNgd7N50cp6P3z//v1mwLx+/fomCGcl7yywvH5l5aqT2LUrt99vDtw0THWMJrHjxH6z18YhZt8vh5qjTyXU+XGRkZFmwLx3794mTNd4VaZqM+v6mW/dNUt1FLvj0CPNC6murmbDhg2MHz++/jchu53ZtcMRr4npdLBuSYMfXjOK1PTp2ZrXzU0ju6/YKVedK0azSXWMJjEiaCA5437EBZdzLhd3PgaDAZ1Op9k1Z2sYzZZ/A646uUJXX077J7Z7924qKyvZuHFj/R9cc02sZhatqKXX6wkICKg9zahJJaXg4W5ZTk80mJvOlWqzA35wPKOZu3+9ChP+XHPWz0/bM+trPuy4OG8FNJjT/olt3rwZgO+++w6z2Vy/B7c8s9ZmXv3XbXR0NZOAaq4JatKJfAiSpd8ay9fNmwpjpUMXZ31pfc3ZGsXVlmvcfm4y+7m+nLY0N2zYAFgmptRMoqmzmtLMr9+6jY7ObDYTGxur7VOzYHndpDQbLdDdDzNmCuu5qoyjKi0tJT093S5Ks2YlIFnNqf6csjRzcnJqZ4JWVFSwZcuW+j1BK8uMSFlV5mypqakUFBRovzSP50FQS9Up7F6gu+UUZH2XYnNU8fHxmEwmzd+jCXD6zBKIgW5SmvXllKW5detWXF0tk0AqKyuJioqq3xP4+1lGKqmZTZDOftVM2dd8aaZmQFh71SnsXmAD1y91VDW3LdlDada8ZjUffETdOWVpRkVF1d5P6enpyaFDh2rvYaqzLmGQkm79cHYsJiYGd3d3bb9plJVDznHo3El1ErvX0sNyX11eZT3/7Tgoe5k5C5B/ZsGGFmdeQ1F3Tlea1dXV/Prrr1x99dUAREZGAvDjjz/W74m6dIKkNCuns2/R0dFERETU3rysSakZYDJB546qk9i9tt6WZRKzS48pTqINNWvO1iwooGVZZZadmtr5aHSpSw1zutLctWsX1113HV9//TUAt99+O59//jk//PBD/Z6oV3fLRtSFRU2Q0j7p9fqzVqjRpNh4y397dVebwwG087asypNdJqUJltOz9jAJCCzLBMKfr6GoO6crTU9PT9asWVO79B1YinPKlCn1e6JBfS0jlv31nHnroPLz8zly5Ih2dzapsVcPfr7Qo4vqJHZPSvNPNTNnNX1p4i+OlB1Hh442Xq1UR7E7TleaQ4YMOaswawwbNqx+T3RJP8vqOftirJTMvh04cACwg0lAe/UwsA+4ympAjRXi1RJ3FzcyS3NVR1HOnmbOAmSVHqOlZyBerhq+lKJRTleaVtM80HJdc9d+1Uk0ITo6Gp1Op+2RZkUlHDgIgzVe7HbCRedCZ9/2HC7OUB1FuZpF4O3l9GxicTrd/OS6fkNIaTbG6OGw7TfHXIO2nmJiYs7agUSTft9r2Q5sdD3PKojz6uHfibSSI/Xal9ER2dPM2dzyPE5VFtIzQMNLXWqYlGZjjBkBpwvlFC2WkabmT83+sMOy5uwVQ1UncRg9A8IxmU0kOflos2bNWXuYORtfZJn139M/THES+ySl2Rijh1uujX2/XXUSpcrKyjh8+LD2S/N/v8Bll1gmAgmrqHnjNRSmKk6iVlxcnN1cz0wotJRmDynNBpHSbIwWzWDEpbCunsvwOZjY2FiMRqO2SzM1w3I98+ZrVSdxKP2adQMg+nSC4iTq2NOaswAHzrxWfQO7Kk5in6Q0G+u2G+FQAhgOq06ijF3sobnWsqsNE8aqzeFgegV0wdfNmz0nD6mOokxCQoJdzZzdc/IQIV5BtPcJUR3FLklpNtaEsZZTtFFfq06ijF6vp2XLlnTo0EF1lPNb9zVcfgl0aKs6iUNx1bkwsFlP9p0yOOyG1BdTs+asPYw0S43lGApTuLRFb9VR7JZmSrO6upo9e/awZcsW8vPza79eWFhIRkYGVVVVCtNdQHAQXH0FfLrWaWfR1uyhqVnRhyw//n2L6iQOaXCLXhRXl5JQ5JzLStrTzNn9pwxUm40Mbi6l2VCaKM0dO3bQq1cvFi1axJ49exg2bFjtfU8TJkxg1KhRihNexENTICMbvvtZdRKbM5lMHDp0SNuluWilZfKPlGaTGNqiLwA786IVJ1EjLi6ODh062MXM2d/yLJdSLm3ZR3ES++WmOkBsbCzjxo3joYceYvbs2QAMHTqU119/nQcffJAff/yRVatWnXMVH80YNwY6toOFK2Hc1arT2NThw4cpLi7WbmkWFcOaTTBpPARo/03NHo1qNRgXnQs/Hf+DaeG3qo5jcwaDwS5OzQL8ePwPPF08uLylhhch0TjlpTl58mQAXnjhhdqvXXfddTz55JO8+OKL9O7dm0mTJqmKVzeurvDB69AuVHUSm9P8Hpo+3rBsjizQ3oSCPJvRN7ArPx/fg8lswkWniRNYNlFWVkZ6ejrjx49XHeWiyo0V/J6vZ1hQf3xcvVTHsVtKSzMhIYGDBw/yr3/9i2bNmtV+3cXFhZKSEhITE/nqq69wcbGDf4ROeitDTEwMnp6edO+u0VJydYWJN6pO4fDGBA/lvcOR6AsSGdisp+o4NhMfH4/RaLSLkebOfD1lxgquCh6iOopdU9pGW7ZY7m8cMWLEP37NaDQydOhQbrrpJlvHEvUQHR1Nnz59tH36XDS5Ma0vBWBr7m+Kk9hWzdwLe7jd5H/HfgcsH3BEwyktzRMnTgDQpk2bs76+YcMGcnJyzjplK7QpJiZG+3toiiZ3ZatLCHD35csjzjUZLi4uDp1OR8+e2h9df3V0OyFeQVzSXPsFr2VKS7PmtKub259niQsKCpgxYwbu7u4UFxcDsHz5ciX5xIUdPXqUY8eOaXtnE2ETni4ejA25gn2nDKSVHFEdx2YMBoNdzJyNLTjM4aIMbmk72qmuOTcFpX9648aNAyyjlRozZ87E09OT2bNnExkZSWRkZO2IVGhLzUpAMtIUAOPbjgYsIxpnYS9rzm48cwZgfNurFCexf0onAg0bNow33niDt99+m5KSEpKTkzEajezcuRNPT09eeukl9Hp97Zuz0Jbo6GhcXFzo27ev6ihCA64PGcag5hG09AhUHcUmysvL7WbmbBuvVgxp0ZuRQYNUR7F7OrPZbFYdoqysjISEBEJDQwkJ+XM9xJycHPz9/fHz82uS4+p0OjTw27dLZrOZ22+/nZiYGBITE1XHEcLmoqOjGThwIMuXL+fee+9VHUfYiPL7NAG8vb3PeYovNNT57nu0F5988gn79u1j8ODBqqMIocSyZcsA+1hzVliPXBEWDfLxh/PIyEjX7qIGQjShpKQkli9bajczZ4X1WK00X331VXQ6naZ+vPrqq9b67Ym/iI6OJik5GV93nZSmcEorVqygoqKCfmGtND9zVliXJq5pqiLXNBvmsYemEpTxDYt+O8Hqjd8xZswY1ZGEsBmj0UhYWCem9KxiS0I5+ozTqiMJG2rSa5rl5eXk5OQQFhbWlIcRTaygoIDU1NTaH1988QXRM9oDZv77xmskJycTHh5OeHg4HTt2lNWBhEM6fvw4aWlp/Pjjj7Rt7sMr13jyya4EVkeuIKJPP8LDw89aDlQ4piYZaVZWVrJ06VLefPNNpk+fzrPPPmvtQ1iFrUaasUcK2JGUf/Fv1CCT0cjrd1yOa3UZgzr6060FDGrjzuRLmnOsqJoVe05y+JSOpJMmdh0+gW9AMx6eHUm7Lra/d23K0A4EeGlibps4hz3ppygqr1Ydo97iovfy/AO34ummo2Mrf8JbevDAIB+u7+ZJ5N5TfGmoIOVkFeknSnBzc2PIyGuY8cZ8PDw9bZ61uY87AztIcTelJnmH2bZtGx4eHhw9erQpnt7ubD+cxxNRsapjNJiu/11471rM3f09ua3/n/fgtfZ347mrgimvNnP/umPoW4RQeM3LvLO/CvbHXOAZm8b1vVpLaWrYtM+i0WcXqI5Rf8V5uPiGMijUyNZ/++Pj8edUkLsHN+fuwZBbVM2EFZlku7Xlf8G38r9Fe5VEHdGlJTueukLJsZ1Fk7zDXHvttWRnZzfFU9eqrq7mwIEDHD8p3kHXAAALcklEQVR+nMsuu4yWLVsCUFhYyKlTp2jTpo1mThNOGxHG5CHtVcdohLHExtzBlFtvpLzKxJTBzc/61euW5RDUczgJ33yKt7e3oozQzEcbr7c4t0/vHkRxhf2NNAEqnx/L7JeeZMiSneya2hx/zz+LMzmvktEL0xk38S7emfUWOp1OWc5Ab/k30NSa7GN5U/7F2bFjB1OnTmXYsGG0a9eOWbNmsXHjRiIiIpgwYQIpKSmauuHe080FTzcP1TEa5crLhzDmqtFUVO4EYHtyMT1be9Ha340Ksyszn5pF2yDnWAlGNEy/dvb992NE1Gr8fH1xc7F8aDx8ooJurTwpLDfSItCfjxctUZxQ2ILdncuKjY1l3LhxPPTQQ8yePRuAoUOH8vrrr/Pggw/y448/smrVKs2MMh1JYoKBW/q7ce/aHKIOnCTAz4e5Y1vQPciNxMREhg0bpjqiEE0mPT2dNiGtOFlqZOraDH48XML9V3XjlWFuJB89hdlsVjrKFLZhd4sbTJ48GeCsbcOuu+46oqOjefHFF+nduzeTJk1SFc+hJSalcvfaXH454k7v/oP45oft/HevO5v1J0gwHFIdT4gmlZCQQGlJCQPnpqI/WsHUaQ9h7DiCyxfnYTSZyMpIVx1R2IBdlWZCQgIHDx7kqquuOmtqt4uLCyUlJezatYs333yzdssxYT15eXn4N2tO1JdbKCgp55JLLmHgwIHsi4nj0ekzSU1LVx1RiCaVmJhI23bt+OiTSHIKKhk0aBBLlixh8YrVBLcOJcFwUHVEYQNKTs/+8ssvvP3223X63ttuu612MeQtW7YAMGLEiH98n9FoZOjQodx0003WCypqubu7E3swjpMnT3Ly5MnaPTQ9PDx4/a23m3zilxCqjRo1iieeeIK1a9cCf645e80113AwziB3CzgJJaU5cuRIRo4cWe/H1eyr2aZNm7O+vmHDBnJycli8eLFV8ol/Cgy0TOL46aefgH/uodmuXTubZxLClgYOHAhYNp7W6XT06NGj9tcCAgIICAhQFU3YkF2dx6w57erm9mfXFxQUMGPGDNzd3SkuLgZg+fLlSvI5A71ej6urq+zsIJxWXFwc7dq1q/0gKZxLk5VmaWkpACaTyWrPOW7cOABiYv68cX7mzJl4enoye/ZsIiMjiYyMrB2RCuvT6/X06NEDHx8f1VGEUCIuLk4+NDqxJjk9+/XXXxMZGQnAxo0bCQkJ4ZZbbmn0J7Nhw4bxxhtv8Pbbb1NSUkJycjJGo5GdO3fi6enJSy+9hF6vR6/XW+O3Ic5Br9czfPhw1TGEUKK8vJy0tDRuvvlm1VGEIna5y0lZWRkJCQmEhoYSEhJS+/WcnBz8/f3x8/Or0/PILif1c/r0aVq0aMHs2bOZNWuW6jhC2Jxer2fAgAEsW7aM++67T3UcoYDdLW4A4O3t/Y+JKAChoaEK0jiP6OhozGaz7KEpnFZcXBwAERG235BAaINdTQQSakVHRwNIaQqnVTNztmfPnqqjCEWkNEWdxcTE0L59e4KCglRHEUIJmTkrpDRFnen1ehllCqdmMBhk5qyTk9IUdVJRUUF8fLyUpnBa5eXlpKamyvVMJyelKerk0KFDVFVVSWkKp5WQkIDRaJTSdHJSmqJOau59ldIUzspgMADI6VknJ6Up6kSv1xMQEEBYWJjqKEIoERcXJzNnhZSmqJuam7plk13hrAwGg8ycFVKa4uLMZjOxsbFyalY4tbi4OLmeKaQ0xcWlpKRQWFgopSmcVs3MWbmeKaQ0xUXJSkDC2SUmJsrMWQFIaYo6iImJwcPDQ94whNOqWXNWRppCSlNcVHR0NBEREXh4eKiOIoQSNbebyMxZIaUpLqpm5qwQzkrWnBU1pDTFBZ04ceL/27ufn6a6PI7j74MtVIoUQX5TAamghNbIyujfYGZj4iTGxA3R+E/own+CpVtnMZuZPDOLWU1cTCaRlmKgFqyA1AJFwWK1tOU8i6Y3+uCPzmZuk/t5raCrb3rS87nn3O89l2w2y5UrV9wuRcQ1OnNW6hSa8lP1JiCtNMWrSqWSzpwVh0JTfmphYQFjDLFYzO1SRFyxsrJCpVLRSlMAhab8QiKRYHx8nK6uLrdLEXFFvXNWK00Bhab8wsLCgp7PFE9T56x8TaEpP1QsFkmn0wpN8bT6mbPabRFQaMpPLC4uUq1WFZriaTpzVr6m0JQf0js0xevqnbNqApI6hab8UDwep6enh3A47HYpIq6od85qpSl1ngvNcrnM3t7eN59VKhV2d3ddqqh56SQg8bp6E5BWmlLnudB8/vw5Q0ND3Lt3D4BHjx4RDod5+PChu4U1mWq1SjKZ1NaseJo6Z+WPfG4X8P9248YN2traePr0KQBPnjzB5/Nx+/ZtlytrLqlUimKxqNAUT3v58iXDw8PqnBWH51aafr+fO3fu4PPVrheOj4/x+/3cvHnT5cqai5qARGqhqa1Z+ZrnQhNgbm6OtrY2AFpaWrh165bzv9TE43ECgQBTU1NulyLiCnXOyvd4MjRnZ2fp7e0FoKOjg/v377tcUfOJx+NEo1FnRS7iNalUSp2zcoInQxPgwYMHAASDQa5du+ZyNc0nkUioc1Y8TWfOyvd4NjTv3r2LMYa5uTmMMW6X01S2trbY2dnROzTF09Q5K9/jib23x48fMzg4iLWWfD7P5uYmANevX6e9vZ35+Xk+fvzI6uoqAO3t7Vy6dAmAo6MjlpaWADh16hSxWMwJ2fq7Jq21RKNR/H4/AMvLy3z+/BmAyclJgsEgxhhev37N/v4+xhjC4TDnzp0DaiG1vb0NQH9/P8PDwwDs7e2xvr4OQCgUYmJiAoDDw0PS6TTWWgKBANPT01hrqVarLC4uAmCM+WalmEgkqFarQO2Zs/o93FQqxadPnwCYmJggFArxj3//F4C///ZPEokEIyMj9PX1AZDL5chmswD09vYyMjKCMYYPHz6QyWQwxtDR0cHFixeB2vm1KysrALS2tjIzMwPUGrDqzUZQazhqaaldwy0tLXF0dATUJqxAIIAxhnQ6TaFQwBjD2NgYZ8+eBWBjY4N8Pg/A0NAQAwMDAOzs7PD27VsAuru7GRsbA+Dg4IC1tTWgttNQv29bKpWc1YXP5yMajTpj/eLFC4wxWGuJxWL4fD6stSwvL/PlyxcApqamCAaDAKytrXFwcADA6OgoPT09J8Z6YGCAwcFBjDHk83k2NjYwxhAKhbhw4QIAhUKBdDoNwOnTp50JvFwuk0wmvzvW8Xic4+NjAGZmZmhtbQVqD+oXi0UAIpEInZ2dAGQyGfb397HWEg6H6e3txVpLLpfj3bt3APT19TEyMgLA+/fvefPmDQCdnZ1EIpETY93W1sb09DTGGKrVKolEwvn+rl696vy9tLREuVwGaiu6QCAAwKtXrzg8PMQY881bdtbX153nrIeHh+nv7wdge3ubra0tAHp6ehgdHQVgf3+fTCaDtZaOjg4mJyex1lIqlZxQ9Pv9RKNRoPZbrv+u//q33wieCfHs2TOgtvIslUonxnp1dZVCoYC1lrGxMbq7u7HWOhefAIODgwwMDGCMYXd3l83NTYwxdHV1MT4+DtDQHNTS0vJNc97XY12/nWKMceYgYwyRSIQzZ84AOHMQwPnz5505KJvNksvlToz13t4eGxsbWGudOchaS7FYJJVKARAIBLh8+TLGGCqVCouLi874zs7OOt9rMpmkUqkAv56D/jjW8/PzNAtjrbVuFyHNpVQ5ZiW9xtSF8wTUICUe9Zd//Yf3uznu//lPbpciTUShKSIi0iDP3tMUERH5Xyk0RUREGqTQFBERaZBCU0REpEEKTRERkQYpNEVERBqk0BQREWmQQlNERKRBCk0REZEGKTRFREQapNAUERFpkEJTRESkQQpNERGRBik0RUREGvQ76EjAosNF6M0AAAAASUVORK5CYII=;" vertex="1" parent="1">
          <mxGeometry x="320" y="90" width="234.74" height="166" as="geometry" />
        </mxCell>
        <mxCell id="KH99gnBK2z-O9xpqxuGS-5" value="&lt;div&gt;Unified Cam&lt;span&gt;era Model&lt;/span&gt;&lt;/div&gt;&lt;div&gt;&lt;span&gt;(UCM)&lt;/span&gt;&lt;/div&gt;" style="text;html=1;align=center;verticalAlign=middle;resizable=0;points=[];autosize=1;" vertex="1" parent="1">
          <mxGeometry x="310" y="260" width="130" height="30" as="geometry" />
        </mxCell>
        <mxCell id="KH99gnBK2z-O9xpqxuGS-6" value="&lt;div&gt;Extended Unified Camera Model&lt;/div&gt;&lt;div&gt;(EUCM)&lt;/div&gt;" style="text;html=1;align=center;verticalAlign=middle;resizable=0;points=[];autosize=1;" vertex="1" parent="1">
          <mxGeometry x="440" y="260" width="190" height="30" as="geometry" />
        </mxCell>
        <mxCell id="KH99gnBK2z-O9xpqxuGS-7" value="主人公の祖父" style="text;html=1;align=center;verticalAlign=middle;resizable=0;points=[];autosize=1;" vertex="1" parent="1">
          <mxGeometry x="330" y="290" width="90" height="20" as="geometry" />
        </mxCell>
        <mxCell id="KH99gnBK2z-O9xpqxuGS-8" value="主人公の父" style="text;html=1;align=center;verticalAlign=middle;resizable=0;points=[];autosize=1;" vertex="1" parent="1">
          <mxGeometry x="505" y="290" width="80" height="20" as="geometry" />
        </mxCell>
        <mxCell id="KH99gnBK2z-O9xpqxuGS-9" value="" style="shape=image;verticalLabelPosition=bottom;labelBackgroundColor=#ffffff;verticalAlign=top;aspect=fixed;imageAspect=0;image=data:image/png,iVBORw0KGgoAAAANSUhEUgAAAisAAAGpCAYAAABMPnZmAAAABHNCSVQICAgIfAhkiAAAABl0RVh0U29mdHdhcmUAZ25vbWUtc2NyZWVuc2hvdO8Dvz4AACAASURBVHic7N15fEzn/gfwzzNJiJ1KQriWCKmlCLUUJWKJrYgW11VFcVttLa2ri2q1dNHWUksXNFfb61qKoqVqYonEEiXEEmvIQmwhKBJJJPP9/eGXuUYmyUwyk5mTft6vV1+VM+c8z3ees+Sb53nOOUpEBEREREROSufoAIiIiIjyw2SFiIiInBqTFSIiInJqTFaIiIjIqTFZISIiIqfGZIWIiIicGpMVIiIicmpMVoiIiMipMVkhIiIip8ZkhYiIiJwakxUiIiJyakxWiIiIyKkxWSEiIiKnxmSFiIiInBqTFSIiInJqTFaIiIjIqTFZISIiIqfGZIWIiIicGpMVIiIicmpMVoiIiMipMVkhIiIip8ZkhYiIiJwakxUiIiJyakxWiIiIyKkxWSEiIiKnxmSFiIiInBqTFSIiInJqTFaIiIjIqTFZISKnl5GR4egQiMiBmKwQkVO7c+cOOnbs6OgwiMiBmKwQkVNbtWoVDhw4gH379jk6FCJyECYrRBojInjxxRcdHUaxWRqyBF0bVcW//x3i6FCIyEGUiIijgyAiyxkMBri6usJgMDg6FLs7deoUunVqh/2veeOJL5NwPukSypcv7+iwiKiYsWeFSGN0Oh2+//57R4dRLEJCQjDyKS/UqOSGjg09sXbtWkeHREQOwGSFSGNEBOHh4Y4Ow+6ysrKwYtmPGNnswWVqVFNg6XeLHRwVETkCh4GINKakDgPdv38f58+fR1xcHOLi4vDHH38g7uAO7HyxEgAgyyCoPfMCRowZCz8/P9SrVw/16tVDzZo1odPx7y6ikozJCpEG/fDDDxg5cqSjwyiyrKws9OrVC+fOncOlixdRo7on6tX0RL1qFVHvMTf08rqK5tX+l4jsvOiKiGtVEJeSgbgrfyLuYjKu37iFunXrol69eujRowcmTpzowG9ERPbg6ugAiMg6IoLdu3eXiGTl5s2buHb+DHxL/4kjM/xQobQOgAHArf9fw7THpHPNLHSuee3/f1IAquHCrccQtDgR6l5ljBgxoviCJ6Jiw54VIo0pacNA6enpGPv3Xjh6aD/WvVgbdR8rZfG2hy/ew7M/XMDgZ4Px6bfLORxEVELxzCbSGJ1Oh5CQkvPMEXd3d/zwSxjGjnsD7ebHYfuZuxZtt+LQLfRYkohZs+fgs8UrmagQlWA8u4k0RkQQGRnp6DBs7qW3P8ay//4XA3+8gNPJ+b8LaMOx25iy5SbCIvbguRGvFlOEROQoHAYi0piSNgz0qKpVKuL05FrwKJf3lLodsXcxPboqwvfuL8bIiMhR2LNCpDE6nQ7fffedo8Owi+TkZMBgMElUEm/ex9sbL+N2erZxWUOv0jh1JtYRIRKRAzBZIdIYEcH+/SWzR+H06dNoWPPBc1VEgH/vu4GWc87i23230WxWLPSn7gAAvCu6IT09HTdv3nRkuERUTJisEGmMiJTYnpVTp07hcU83XL59H8FLE7DwQCaeH/Eixrz8Kv67cjXG/3oDg39MxK172fCrURmnT592dMhEVAyYrBBpjE6nw+LFJfOx86dPncKpCynwn30OT/UchKjTF3H0+GkEBQXh6aD+OHj6PDz82qLF3LNIS0tjskL0F8FkhUhjRAQHDx50dBh2cfrEUWS5lceOnTsxZVYIMjIyEB0djU6dOgEAKlSoiG9+0mPp9/9B2v0HPTFEVPIxWSHSGBHBkiVLHB2GXQwd/iL2Hr+AJi3bAQC2b9+Otm3bomzZsibrdek7GMfOJaFt2zaOCJOIihkft0+kMTqdDosWLXJ0GHbxj38MNfk5NDQUQUFBZtctX74CgoMHFEdYRORg7Fkh0hgRQXR0tKPDKBZ6vR49evRwdBhE5GB8KByRxpT0h8LliI+PR/v27XHp0iUopRwdDhE5EHtWiDRGp9Ph22+/dXQYdrdlyxb07NmTiQoRMVkh0hoRwdGjRx0dht3lN1+FiP5aOAxEpDF/hWGgrKwseHl54dSpU/Dy8nJ0OETkYOxZIdIYnU6Hr7/+2tFh2FVkZCR8fX2ZqBARACYrRJojIjh+/Lijw7Cr0NBQ3gVEREYcBiLSmL/CMFCbNm0we/Zs45NrieivjT0rRBqj0+nw1VdfOToMu0lJSUFsbCzatWvn6FCIyEkwWSHSGBEp0e/E2bp1KwICAuDm5uboUIjISTBZIdIYESnRPSu8ZZmIHsVkhUhjdDodFi5c6Ogw7Gbbtm2cXEtEJpisEGmMiODMmTOODsMuYmJi4OrqCl9fX0eHQkROhMkKkcaISIntWdHr9ejVq5ejwyAiJ8NkhUhjdDod5s+f7+gw7ILzVYjIHCYrRBojIjh37pyjw7C59PR07Nu3D507d3Z0KETkZJisEGmMiGDBggWODsPmwsPD4e/vj0qVKjk6FCJyMkxWiDRGp9Nh3rx5jg7D5viIfSLKC5MVIo0RESQkJDg6DJvT6/Wcr0JEZvHdQEQaUxLfDXTx4kX4+/vj6tWr0On4NxQRmeJVgUhjdDod5s6d6+gwbEqv16N79+5MVIjILF4ZiDRGRHDhwgVHh2FTnK9CRPnhMBCRxpS0YSCDwYDq1avj8OHDqFGjhqPDISInxJ4VIo3R6XSYM2eOo8OwmaioKFSvXp2JChHlickKkcaICC5evOjoMGxGr9dzCIiI8sVkhUhjRKRETbDlI/aJqCBMVog0RqfTYfbs2Y4OwyZu376No0eP4umnn3Z0KETkxJisEGmMiODKlSuODsMmtm/fjvbt26NMmTKODoWInBiTFSKNEZES07PCW5aJyBJMVog0RqfT4YsvvnB0GDbB+SpEZAkmK0QaIyK4du2ao8MostjYWGRmZqJx48aODoWInByTFSKNERHMmjXL0WEUGW9ZJiJLMVkh0hidTofPP//c0WEUGeerEJGlmKwQaYyI4MaNG44Oo0gyMzMRERGBrl27OjoUItIAJitEGiMimu9Z2bt3Lxo2bIjHHnvM0aEQkQYwWSHSGJ1Oh5kzZzo6jCLhfBUisgaTFSKNERH8+eefjg6jSDhfhYisoUREHB0EEVnOYDDA1dUVBoPB0aEUyvXr19GgQQMkJyfDzc3N0eEQkQawZ4VIY3Q6HT799FNHh1Foer0eXbp0YaJCRBZjskKkMSKCO3fuODqMQuN8FSKyFoeBiDRGy8NAIoKaNWtiz5498PHxcXQ4RKQR7Fkh0hidTodPPvnE0WEUytGjR1GhQgUmKkRkFSYrRBojIkhLS3N0GIXCISAiKgwmK0QaIyKa7VnhLctEVBhMVog0RqfT4aOPPnJ0GFZLS0vD/v37ERAQ4OhQiEhjmKwQaYyIICMjw9FhWG3nzp1o1aoVypcv7+hQiEhjeDcQkcZo9W6giRMnokaNGnj77bcdHQoRaQx7Vog0RqfTYcaMGY4Ow2qcr0JEhcVkhUhjRARZWVmODsMqSUlJuHnzJpo3b+7oUIhIgzgMRKQxWhwG+u677xAREYFly5Y5OhQi0iD2rBBpjE6nw/Tp0x0dhlX4fBUiKgomK0QaIyKa6lXJzs5GWFgYunbt6uhQiEijOAxEpDFaGwaKjIzEa6+9hkOHDjk6FCLSKPasEGmMUgoffPCBo8OwmF6vR1BQkKPDICINY7JCRHbF+SpEVFQcBiLSGC0NA926dQt16tRBcnIySpcu7ehwiEij2LNCpDFaGgbatm0bOnXqxESFiIqEyQqRxiiloNNp49TlfBUisgUOAxFpjJaGgerUqYOtW7fCz8/P0aEQkYZp488zIjJSSuH99993dBgFOnnyJJRSTFSIqMiYrBBpjFIKbm5ujg6jQHxxIRHZCoeBiDRGK8NAvXv3xpgxY/Dss886OhQi0jj2rBBpjFIK7733nqPDyFdmZib27t2LwMBAR4dCRCUAkxUijVFKOf2twLt27cITTzyBKlWqODoUIioBOAxEpDFaGAZ66623UL58eUybNs3RoRBRCcCeFSKNUUph6tSpjg4jX3zEPhHZEpMVIo1RSqFs2bKODiNPV65cQVJSElq1auXoUIiohOAwEJHGOPsw0H/+8x/89ttv+OmnnxwdChGVEOxZIdIYpRSmTJni6DDyxEfsE5GtMVkh0hilFCpUqODoMMwyGAzYtm0bunfv7uhQiKgE4TAQkcY48zDQwYMHMXz4cBw/ftzRoRBRCcKeFSKNUUrhnXfecXQYZvER+0RkD0xWiDRGKYXKlSs7OgyzOF+FiOyBw0BEGuOsw0CpqamoUaMGLl++7NS3VhOR9rBnhUhjlFJ46623HB1GLtu3b0fbtm2ZqBCRzTFZIdIYpRSqVq3q6DByCQ0N5RAQEdkFh4GINMZZh4EaNGiAdevWoWnTpo4OhYhKGPasEGmMUgpvvvmmo8MwkZCQgLt37+KJJ55wdChEVAIxWSHSGKUUPD09HR2GiS1btqBnz55QSjk6FCIqgZisEGmMwWBwugm2vGWZiOyJyQqRxiilMHnyZEeHYZSVlYXw8HB07drV0aEQUQnFZIVIY5RSqF69uqPDMIqMjISvry+8vLwcHQoRlVBMVog0xmAwOFXPCh+xT0T2xmSFSGOUUpg0aZKjwzDifBUisjcmK0Qao5RCzZo1HR0GACAlJQWxsbFo166do0MhohKMyQqRxhgMBvzrX/9ydBgAgK1btyIgIABubm6ODoWISjAmK0Qao5TCG2+84egwAPAR+0RUPJisEGmMUgq1a9d2dBgAgG3btnFyLRHZHd8NRKQxzvJuoJiYGPTr1w9xcXEOjYOISj72rBBpjFIKEydOdHQY0Ov16NWrl6PDIKK/ACYrRBqjlIKPj49V22RkZCAkJARvv/02tm3bZpM4OF+FiIoLkxUijTEYDHj99dctXj8+Ph4tWrRAVlYWRo0ahbFjx2L+/PlFiiE9PR379u1D586di1QOEZElmKwQaYxSChMmTLBo3fT0dPTq1QudO3fG2LFj8fjjj2P48OF49913kZ6eXugYwsPD4e/vj0qVKhW6DCIiSzFZIdIYpRR8fX0tWnfJkiU4ffo03n77beOyBg0aIC0tDTExMYWOgUNARFScmKwQaYzBYLB4gu3PP/+MJk2aoE6dOsZlt2/fBgC4uLgUOga9Xs9blomo2Lg6OgAiso5SCuPHjy9wvWvXrmHPnj3o27cv/vjjD+Py6OhoAEDZsmULVf/Fixdx9epVtGzZslDbExFZi8kKkcYopeDn51fgert370Z2djYSEhLw4YcfGpcfOnQISil4eHgUqn69Xo/u3btDp2PHLBEVDyYrRBpjMBgwfvx4vPbaa/mul5qaCgD4/PPPTeaX+Pn5wdfXF1WrVi1U/aGhoejZs2ehtiUiKgz+aUSkMUqpAhMVAMa7fTw9PY3LLl26hNjYWAwYMKBQdRsMBuzYsYOTa4moWDFZIdIYpRQaNWpU4Ho5txU/fIvysmXL4O7ujsGDBxeq7qioKFSvXh01atQo1PZERIXBZIVIYwwGA8aNG1fget26dUOlSpVw4MABAEBycjJmzZqFzz77zOTuIGvwLiAicgTOWSHSGKUUXn311QLXq1KlClatWoVXX30Vly5dwo4dOzBz5kz885//LHTdoaGhmDZtWqG3JyIqDL51mUiDFi1ahLFjx1q0bkZGBs6dOwdfX1+ULl260HXevn0btWrVwpUrV1CmTJlCl0NEZC0mK0QaYzAY4OrqCoPBUKz1rl+/HkuWLMHvv/9erPUSEXHOCpHGKKXwyiuvFHu9oaGhnK9CRA7BZIVIY5RSaNasWbHXy/cBEZGjcBiISGMcMQwUGxuLLl264MKFC8VWJxFRDvasEGmMUgovv/xysdbJW5aJyJGYrBBpjFIKLVq0KNY6OV+FiByJw0BEGlPcw0CZmZnw8vJCXFwcHnvssWKpk4joYexZIdIYpRReeumlYqtv7969aNiwIRMVInIYJitEGqOUQqtWrYqtPs5XISJH4zAQkcYU9zDQk08+iQULFqBDhw7FUh8R0aPYs0KkMUopjBkzpljqun79OuLi4tCmTZtiqY+IyBwmK0Qao5RC27Zti6UuvV6PLl26wM3NrVjqIyIyh8kKkcYYDIYivTnZGrxlmYicAZMVIo1RSmH06NF2r0dEsHXrVnTv3t3udRER5YfJCpHGKKXQrl07u9dz9OhRVKhQAT4+Pnavi4goP0xWiDTGYDAUywRb3rJMRM6CyQqRxiilMGrUKLvXw/kqROQsmKwQaYxSCk8//bRd60hLS8P+/fsREBBg13qIiCzBZIVIYwwGg917Vnbu3IlWrVqhfPnydq2HiMgSTFaINEYphZEjR9q1Ds5XISJnwmSFSGOUUnYfnuF8FSJyJnw3EJHG2PvdQElJSWjVqhUuX74MpZRd6iAisgZ7Vog0RimFESNG2K3833//Hd27d2eiQkROg8kKkcYopdClSxe7lc/5KkTkbDgMRKQx9hwGys7OhpeXF2JiYuDt7W3z8omICoM9K0Qao5TCCy+8YJey9+/fj9q1azNRISKnwmSFSGOUUnZ7uSCHgIjIGTFZIdIYg8GA4cOH26Vs3rJMRM6IyQqRxiilMGzYMJuXe+vWLRw/fhzt27e3edlEREXBZIVIY5RSdun92LZtGzp27IjSpUvbvGwioqJgskKkMQaDwS4TbDlfhYicFZMVIo1RSuH555+3ebmcr0JEzorJCpHGKKXQu3dvm5Z56tQpKKXg5+dn03KJiGyByQqRxhgMBpv3rHAIiIicGZMVIo1RSuEf//iHTctkskJEzozJCpHGKKXQt29fm5WXmZmJvXv3IjAw0GZlEhHZEpMVIo0xGAwYOnSozcrbtWsXnnjiCVSpUsVmZRIR2RKTFSKNUUphyJAhNitPr9cjKCjIZuUREdkakxUijVFKITg42Gblcb4KETk7JSLi6CCIyHIGgwGurq4wGAxFLuvKlSto0qQJkpOT4eLiYoPoiIhsjz0rRBqjlMLf//53m5QVGhqKbt26MVEhIqfGZIVIY5RSePbZZ21SFuerEJEWcBiISGNsNQxkMBjg7e2NAwcOoHbt2jaKjojI9tizQqQxSikMGjSoyOVER0fDw8ODiQoROT0mK0QaY6tkJTQ0lENARKQJTFaINMZgMGDw4MFFLoe3LBORVjBZIdIYpRQGDhxYpDJSU1MRHR2NTp062SgqIiL7YbJCpDG2eILtjh070LZtW5QtW9ZGURER2Y+rowMgIusYDAYMHDgQP/30EwCgQoUK8PT0RK1ateDl5WVRGbxlmYi0hLcuE2mMiCAgIADVq1cHANy+fRvXr19HYmIilFJo3749+vXrh0GDBqFChQpmy2jQoAHWrVuHpk2bFmfoRESFwmSFSIPWr1+PAQMG5Fp+5coVhIWF4eeff0ZERAReffVVvPPOO3B3dzeuk5CQgHbt2uHSpUtQShVn2EREhcJkhUhjLH0oXFxcHKZMmYJjx45h5cqVaN68OQBg0aJF+OOPP/D9998XR7hEREXGCbZEGqOUMtur8qh69erhp59+wvvvv4+goCBs3boVAOerEJH2sGeFSIM2bNiA4OBgi9ffs2cPnn32WaxcuRIDBw7EqVOnLJ6MS0TkaExWiDSmsO8GCgsLw4gRI+Dl5YWoqCg7RUdEZHu8dZlIY5RSVvWq5AgMDMTzzz8PFxcXO0RFRGQ/nLNCpDFKKYwcObJQ227fvp3zVYhIczgMRKQxhR0GSklJQf369ZGcnAw3Nzc7RUdEZHvsWSHSGKUU+vXrZ/V2W7duRUBAABMVItIcJitEGqOUwujRo63eLjQ0lENARKRJHAYi0pjCDgPVrl0bYWFh8PX1tVNkRET2wZ4VIo1RSqFv375WbRMTEwNXV1cmKkSkSUxWiDRGKYWXXnrJqm1CQ0PRq1cvO0VERGRfTFaINMZgMFjds2KrR+zfvXsXFy9eLHI5RETWYLJCpDFKKfTp08fi9dPT07Fv3z507ty5yHXPmzcPMz/9pMjlEBFZg8kKkcYopfDKK69YvH54eDj8/f1RqVKlItV748YNLFgwHyv/+x9cunSpSGUREVmDyQqRxhgMBjzzzDMWr2+rW5Y/++wzDAxsgRfbPoZZX3xe5PKIiCzFdwMRaYxSCr1797Z4fb1ejx9++KFQdSUkJGDPnj1Ys2YNIsJ3IuajjtDdrIDGs/+N+Ph4DBr8d/Tt2xcVK1YsVPlERJbgc1aICnA7PQvZBuc6TbaF6tEtqEeB612+dAmd2rXC6fgk6HTWd6SOeX4Q1m34BR/2rok3OlZGRfcHL0G8nZ6N7/bdwDsbr6B8ubL4fuXPCAjsgnKlXFDKlR22RGRbTFaICtDikx04nPSno8P4HxFg8UBg7M8Fr3tqO5B0FOj2RqHrqnziZ6Tv+wn3vmhi8lG5t2PQxL8FDjR8DShbGQCwanRr/L3V3wpXFxFRHpisEBUg6eY9ZGZb97RYexIRjBk6EP9eWXCyMuGfIxDQtTueGzKsSHX6epaHfNkM565n4nZGNlrULAP1xlGcu3bXZD2vCqVRvjRHl4nItpisEGmQXq9Hjx75DwMZDAZUr14dhw8fRo0aNYpUn1IKR9/yQ6/vLuA+XPDrizXx1NzT4OWDiIoD/wQi0hiDwYBevXoV+G6gqKgoVK9evciJSo7uIZex8NulKF+xEvoNf+H/lwoAZZPyiYjywmSFSGOUUgX2qgCW9b5Yqly5cvhxxRpjeStW/YT+/fs/mD+jmKwQkX1x2j6Rxiil8MYbBU+YtdXzVXLKejjx6dq1K37//XdA8RJCRPbHOStEGmMwGODq6prvMNDt27dRq1YtXLlyBWXKlCnG6IiIbI9/FhFpjFKqwB6T7du3o3379kxUiKhEYLJCpDFKKUyePDnfdWw5BERE5GgcBiLSGEuGgXx9fbFx40Y0bty4GCMjIrIP9qwQaYxSCt26dcvz89jYWGRmZjJRIaISg8kKkcYopfD222/n+bktb1kmInIGTFaINMZgMKB79+55fs75KkRU0jBZIdIYpRS6du1q9rPMzExERETk+TkRkRYxWSHSGKUUpkyZYvazvXv3omHDhqhatWoxR0VEZD9MVog0xmAw5DnB9tEnzRIRlQRMVog0RimFLl26mP1Mr9dzvgoRlTh8zgqRBu3cuROdO3c2WXb9+nU0aNAAycnJcHNzc0xgRER2wJ4VIo0xGAxme1b0ej26dOnCRIWIShwmK0Qao5TK1asCFG2+ys2bN7Fv375CbRsaGlqo7YiILMVkhUhjlFL44IMPTJaJCLZu3Zrv81dOnjyJVatW4dtvvzVZfufOHbz++uto0aKF2e0yMjIQEhKCt99+G9u2bcv1uZubG7755ptCfBMiIsswWSHSGIPBgMDAQJNlR48eRYUKFeDj45Pndu7u7vj444+xe/duk+WTJ0/GtGnTULp06VzbxMfHo0WLFsjKysKoUaMwduxYzJ8/32SdwMBAnD9/HkePHi3CtyIiyhuTFSKNUUohICDAZJklj9j38fFBcnKyyW3Phw8fRlpaGnx9fXOtn56ejl69eqFz584YO3YsHn/8cQwfPhzvvvsu0tPTTdadOHEipk6dWoRvRUSUNyYrRBqjlMKMGTNMllkyX+XEiRO4du2aydNtly9fjjFjxphdf8mSJTh9+rTJe4gaNGiAtLQ0xMTEmKzr7e0NFxcXXL161dqvQ0RUICYrRBpjMBhMelbS0tKwf//+XL0tOevu2bMHa9aswdatW+Hn54fatWsbP9+8eTPatm1rtp6ff/4ZTZo0QZ06dYzLbt++DQBwcXHJtX6HDh3wyy+/FPp7ERHlhckKkcYopdCpUyfjzzt37kSrVq1Qvnx5k/XOnTuH5557DhUrVkSrVq3wxRdfmAwBnT9/Hm5ubnB3d89Vx7Vr17Bnzx40aNAAf/zxh/G/6OhoAEDZsmVzbdOyZUvo9XpbfU0iIiNXRwdARNZRSuHjjz82/mxuCOj06dPo3LkzNm/ejKZNm+L69eu4dOmSyRDQpUuX4OXlZbaO3bt3Izs7GwkJCfjwww+Nyw8dOgSlFDw8PHJt4+HhgcuXLxfx2xER5cZkhUhjDAYDOnXqBIPBAODB5NoVK1YYPxcRjB49Gi+88ILxduRTp05Bp9OZ3EV07do1VKxY0WwdqampAIDPP//c5PH9fn5+8PX1NfuixCpVqiA5ObnoX5CI6BEcBiLSGKUUnn76aQBAUlISbt68CX9/f+PnGzZswJ49e/Dyyy8bl61evRpPPvkkqlSpYlxWtmxZ3L9/32wdOXf7eHp6GpddunQJsbGxGDBggNlt7t+/b3Z4iIioqJisEGmMUgozZ84EAPz+++/o3r07lFLGz8PCwuDt7W28Hfnq1av4/vvvTYaAAMDLywu3bt0yW0elSpUAwOQW5WXLlsHd3R2DBw82u82tW7fyHFYiIioKJitEGmMwGNCxY0cA5uerxMfHG3tE0tLSsHHjRqSnp6Nr167YvHmzcb169eohMTHRbB3dunVDpUqVcODAAQBAcnIyZs2ahc8++8zk7qCHnT17Fo0aNSry9yMiehSTFSKNUUqhQ4cOyM7ORlhYWK4ek2HDhuH48eMIDAzE5MmT0bdvX2RlZeE///kPWrdubVyvXLlyaNasGS5evJirjipVqmDVqlWYN28e3nnnHTzzzDOYOXMmJk6cmGdc+/fvR79+/Wz3RYmI/p8SEXF0EERkncjISADAq6++aryd+GHJycnIyMhArVq1AAAXLlww/vthP/zwA+7cuYPx48ebrScjIwPnzp2Dr6+v2cfx5xARtG3bFnv27OFbn4nI5tizQqQxBoMBHTp0yPcR+15eXibJiblEBQAGDRqE3377Lc+6SpcujcaNG+ebqAAP7kjq06cPExUisgsmK0Qao5RCu3btLHrEfkHKlSuHsWPH4quvvip0Gffu3cMPP/yAt956q0ixEBHlhckKkcYopTB9+nQcP34c7du3L3J5wcHBAGB2jJZzigAAIABJREFUOMkS8+bNwyeffIIyZcoUORYiInM4Z4VIYwwGA1xdXdG7d29s2rTJZuXevn07z4fE5efOnTuoUKGCzeIgInoUe1aINEYphYpVvdCw1dMFrnv9+nWLy304UcnMzMSdO3cs2o6JChHZGx+3T6QxSinExieirFvuvzVSU1OxY8cObNiwASdOnMDSpUvNvsenIKVKlcLnn3+OrVu3ok+fPujTpw+eeOIJW4RPRGQ1DgMRadypU6fw22+/Yc2aNTh8+DCysrJQvnx5REZGFvkhbe+88w4+//xzuLm5oXz58ujVqxcGDhyIbt26sUeFiIoNkxUiDYqPj8fs2bOxbNkyi4drbK1OnTqYOnUqXnzxRbi6spOWiOyHyQqRRiUnJ2PLli1Yu3YtduzYATc3N6SlpSErKwujR4/G4sWLTd4ZVBhxcXFo27YtUlJSULZsWWRnZ6N69ep47rnn0L9/f7Rr146JChHZHZMVohIgOzsb+/fvx6+//op169YhNjYW48aNw/z58wudsMTFxaFTp064ceMGAgICMGjQIPTq1Qve3t42jp6IKH9MVohKoOTkZBw9ehRt2rQp1O3IABATE4O7d++iVatW7D0hIodiskJEREROjc9ZISIiIqfGZIWIiIicGpMVIiIicmpMVoiIiMipMVkhIiIip8ZkhYiIiJwakxUiIiJyakxWiIiIyKkxWSEiIiKnxmSFiIiInBqTFSIiInJqTFaIiIjIqTFZISIiIqfGZIWIiIicGpMVIiIicmpMVoiIiMipMVkhIiIip8ZkhYiIiJwakxUiIiJyakxWiIiIyKkxWSEiIiKn5tBkJTs725HV/+WVlPYvKd/jr0qr+y8zM7PIZWj1uzsLtt//lPS2cLVVQatXr8bWrVuRnp5e4Loff/wxbt68iY4dO2LatGl48803bRVGsbty5Qref/99REREAAC6du2KGTNmwMPDw6b13LlzB5988gk2bdqEMmXKoHHjxmjfvj0SExPRo0cPBAQEWFROZGQkVq9ejfXr12P58uXo0KGDTeMsbocPHy4Rx9FflRb33+7duxEWFoYDBw4gKioKkyZNwuTJky3evrjOwcTERCxevBgXLlwwLvPw8MDAgQPRoUMHREdHY/Xq1UhKSgIAKKXQokULvPHGG3aJx1ZOnz6NdevWQa/Xo1SpUggNDbVJuXq9Hlu2bMH169dNlpcpUwbe3t6oV68eBgwYgIoVK9qkPltITk7GypUrsWnTJri5uWHz5s2ODsl+xIZiYmIEgACQFStWyNmzZ+Xs2bNy5swZiY6Oln//+99Svnx52b9/v8TExIinp6csWLDAliEUq4SEBGndurXMnTtXVqxYIUOGDBEA8vTTT9u0nvv370u7du2kbdu2kpSUJAaDQWJiYiQgIEAAyH/+8x+Lyzpz5ox069ZNAMju3bttGqcjlITj6K9Ma/svJiZGKleuLOnp6ZKVlSU9e/aU3r17W1VGcZ+DQ4cOFQDSpEkTycjIMPls//79AkA6deokly9ftnsstnD16lVZu3atAJDOnTvbtOyMjAzx8/MTADJ+/HiJj4+X/fv3y+LFi6V+/fpStmxZCQkJsWmdRXHr1i1Zs2aNAJBu3bo5Ohy7smmyIiLi7u4uAOTs2bNmP//www9lz549tq7WIV5++WWJj483Wda7d28BIImJiTar5+effxYA8ssvv5gsz8rKkk6dOslnn31mVXnTpk3TZLKyefNmiY2NdXQYf2lF2QclYf+9+uqr0qhRI5NlBoMh323Mfe/iPAdnz54tAGTgwIEmyzMzM6Vnz57ywgsvSGZmpt3jsKXs7GzR6XQ2T1ZERIKDgwWAzJs3z2T55cuXpWrVqqLT6eTo0aM2r7ewDAaD2WSlJJxvD7P5nBVX1/xHlsaOHYuGDRvautpiJyJ4+eWXUbduXZPlHTt2RKlSpfDYY4/ZrK4TJ04AAC5fvmyy3MXFBfPmzcPFixetKk+n09686sTERLzwwgvIyMhwdCh/WUXZByVl/x0+fBguLi4my5RSea6f1/cuznMw55r88LX5/v37GDp0KLy9vfHDDz/Azc2t2OKxBZ1OZ7c2zOt3WPXq1dGlSxcYDAaEhYXZpe7CMHf8lZTz7WE2m7NiiU2bNuGZZ54x/nz58mWcOHECXbt2zbXuiRMnEBERgfLly6NNmzbw8/MzfrZ3717cuXMHANC+fXtUqFABR44cwZUrVwAAtWrVQuPGjU3K27NnD7y9veHh4YENGzbA398fzZo1M35+4MABHDhwAB4eHggMDISnp2e+3yVnfPdR0dHReOWVV1C+fPlcn/36669o1KgRGjRokG/Zj6pZsyYA4P3330eLFi3Qpk0b42ctWrTAzZs3c21z7tw57Nq1C6mpqWjfvr3ZWAEgNTUVEREROHfuHLp165ZnIplf+4gIIiMjUbZsWfj7++PQoUPYt28f2rRpg1atWgEAUlJSEB4ejuvXryM4OBheXl4m5aelpWHLli1ITExE3bp10aVLF1SqVAkAEB8fj969eyMlJQW7d+9GUlIS2rRpgypVqgDI+ziytA3MKcrxIiKIiIhAnTp14OnpifDwcJw/fx6BgYF4/PHHbVYPAMTFxSEsLAzlypVDs2bNUKVKFXh7e5usU1AZ2dnZCA8PR+3ateHj44MdO3bgzJkzCAoKMh6rBe0De+y/2NhY7N+/H7dv34a/vz/atm2b6xeUJbFboqC6Tp06hcTERJw/fx4uLi7Q6/UAgKZNm6JGjRpmyyzoe+ew5By09vqUn7t37+K5555D7dq1sWTJknyTrfz2K2B5+1u7nwqqNz9F2bYg9+/fB/BgHsvD8juPbdWGD4uNjUV4eDjc3d0xYMAAk88sPe40x9ZdNeXLlzc7DJSRkSEBAQEiIrJ3714JDg4WnU4nwcHBucr46KOPpG/fvnLy5En58ssvRSkl3t7e8uSTT8q//vUvSUxMlBYtWggAOXz4sIiIXLp0Sd58800BIGPHjjWWFRISIvXq1RMAsnz5cmnfvr0AEH9/fxERSUtLk1GjRsmCBQtk/fr10r17d/Hw8JDw8HCrv/vatWtlzJgxZj/LGRt+4oknrC43NTVVateuLQDE1dVVZsyYIVlZWWbXzc7OlkmTJsmYMWMkMjJSVq5cKUopeemll4zrfPjhh8Z5RZ06dZLg4GDx8PAQd3d32b9/v0l5BbXPzp07xd/fXwDIxx9/LG+88YYEBwdLmzZtBICsXbtWNmzYIEFBQfL8889LxYoVxcfHR9LS0ox1/PHHH1KtWjVZv3693LhxQ1555RV5/PHH5cqVKyIismPHDuMY//Tp0yUkJEQuX76c53FkSRvkpajHy9KlS6VWrVoCQL766itp0qSJNGnSRHQ6nbi4uMiiRYtsUo+IyOrVqyUwMFBiY2MlPj5eWrduLQsXLrR434mI6PV68fX1FQDy3XffyaBBg6RXr15SpUoVKVeunMTExOS7D+yx/9LT02XChAkyZMgQiY6Oli1btkjz5s2lQ4cOEhcXZ3Xs+bG0rsjISAkJCZGqVauKp6enhISESEhIiJw5cybPsvNrM0vPQVtcn+bNmycAZMiQIZKcnCytWrWSl19+ucDhq4L2q6Xtb+1+KqjeHK6urrmGgSzdNj8DBw40OwwUFRUl7u7uUq1aNbl27ZqIFHwe26oNcxgMBnnvvfekf//+EhUVJTt37pS+ffuaDAPld9xpmd2SlWHDhsm4ceNk3Lhx8s9//lOaNWsmdevWNa53/PhxAZArWdm7d68opUSv1xuXDRgwQADI1atXjcsmT55skqyIiJw4cSJXsiIi8vrrrwsA6d27t9y8eVMiIiJk/fr1xs+WLl1qXDclJUVKlSolPj4+eSYEj4qKipJhw4YJAHF3d5eZM2fmuhDcvn1b+vfvX+iJhGfPnjVO/AIgrVq1koMHD+Zab9asWdK/f3+TZYGBgQJAkpKSROR/F8pBgwZJamqqiIhs27ZNAMjIkSNNtrWkfdatWycAJCAgwHgSZ2ZmSrly5aRChQqyZMkS4/Zz584VALJ69Wrjsq5du4qnp6fx55z9OGfOHJM4AOQ6ec0dR5a0QX6KerxMnDjR+Mvh1q1bIiJy8OBBqVSpkpQqVUoSEhJsUk+jRo3km2++Ma6j1+tl1qxZJt/DkmN7/vz5AkB69uwpKSkpIiKyceNG4yTDR9vl0X1g6/03ZcoUqV+/vkmMV69elcqVK0vz5s3l/v37VseeF2vqEhGpW7eu1K9fv8ByC/relp6Dtrg+5SQrHTp0kAYNGoibm5scOXKkwO0s2a+Wtr81+8mSekXMJyuWbpufnGQlMDBQJk+eLBMmTJA+ffpIuXLl5LXXXpMLFy6YrJ/feWzLNhR5sC99fHxMjssjR47kmrOS13GnZXYbBurevbtx+CI9PR2enp5YsWKF8fPatWub3U6v10NEjNsCQHBwMNavX48//vgDffv2BWB+XLFUqVJmy6xTpw4AYOjQoahcuTI6duwIAEhKSsKCBQvwxRdf4McffzSu7+Xlhfj4eBw/ftykSz4vBoMBffv2RY0aNbBw4UJMmTIFNWvWxAsvvGBcp0KFCtiwYUOBZeXF19cXR48exaefforPPvsMUVFRaNOmDebOnYsJEyYAAK5du4apU6fil19+Mdl2yZIliIiIMGlTAJg4cSLKli0L4MFwmpubG86dO2f83NL2yemSDgwMNN6y7ebmhhYtWmD37t0YPny4cVt/f38AD7oxcwwbNszkdsGc8nJuqczPo8eRtW1gTlGPl7/97W8AgBEjRhi7e1u2bIlx48bhk08+wYoVKzBlypQi15Oamopvv/0WwcHB8Pb2RlBQECpXrmxVGTnLAGDIkCHGuVY5t8I/fDzkxZb77/r165g9ezbGjRtnMjfEy8sLw4YNw1dffYVVq1Zh2LBhRY7d2rrsIb9z0FbXpxynT5+Gn58fYmNj0aNHD+zevRu+vr55rm/JfrW0/a3ZT0U5noqy7aPq16+Pp556Cnfv3kWpUqVw/PhxrF27Fl5eXpgyZYpxnk9e57Gl8VjaNqmpqfjoo4/wyiuvmPz+s+YY0DK7JSsdOnQwORH69OmDuLg44895jZPmjBOfOnUKTZo0AQDjGHxhJ63m1JVzIc9x5MgRGAwG+Pj4oHTp0sblixYtAgBUq1bNovJbt26N1q1bY/DgwejevTu6d++O77//3iRZsYXSpUtj+vTpGDJkCMaMGYO9e/di4sSJKF++PEaNGoVDhw4hMzMz1wWofv36qF+/fr5llylTBuXKlcO9e/eMyyxtn7z25aPtDfxvHz48z2bkyJEAHoylL1u2DCdPngTwv/Hh/Dxad1Ha4NEyC3u85Gz/aGy9evXCJ598gjNnztiknsmTJ2PChAlo2LAhPvzwQ4wfP944n8maY9vc/qtQoQIAyx58Zsv9d+TIEdy/fx9Vq1bNtW5AQAC++uorHDx40JhAFCV2a+uyt0fPQVtdn3J069YNS5cuRb9+/bBt2zZ069YNu3fvzjOBt2S/Wtr+1uynohxPBW37559/Yvfu3SbblClTBl26dMlVVpMmTfDcc88Zf54xYwa6d++ODz74AFeuXME333xj8t3MXe9s2YaHDx9GSkpKvglmSVasE2w///zzAtcZPnw4lixZgnnz5qFfv35wc3PDzp070bZtW5OJpbaQ80ujZcuWue7qKaxu3bqhU6dOJg9iKors7Gzcv38f7u7uxmWNGjXCjh070K9fP4SGhuLdd9/FqFGjjCdCSkqK1ZN4zbFH+5iTnZ2Nzz//HNHR0XjnnXcwePBgLFy4sFBl2boNHlbU9sj5pfDo5LzC1jN+/HjUqlULL774IiZNmoQVK1bgl19+QY0aNYpt3wG23X85d7zlTJZ/WE6P1a1btwofrIPqKgx77MMyZcpg48aN6NevH7Zu3Yru3bsjIiLC7EMsbblfrVGUegva9uzZsyY3eQBA3bp1ER8fX2DZZcqUwUsvvYQ9e/Zg0aJFmDlzZoETd23ZhqdPnzaW+VdUrPew5jX087C6devi4MGDSEpKwoABAzB16lRkZGTg999/t/ntdTldcnndhvbwUIU1fH190ahRo0LH9bDU1FSMGTMm1/LSpUsbM/urV6/ixo0bqF69OoAHM9PNuX37tlV126t9HjVo0CCsWbMGq1atwpNPPlmksmzdBg8ranv8+eefAFDgsWFpPampqQgODkZMTAyGDh2KqKgo9OjRwyaxWsOW+y/nTpicX9QPy8rKAgA88cQTRarDEXUVhr32obu7O9avX49WrVrh5MmT6NWrl/HuyofZcr9aoyj1FrTtk08+CXkwV9P4nyWJSo6cu1JFxGySa2081sh5cq4lQ7Mlkc2TFYPBAODBzsxPzufm1ps/fz42bNiATZs24ZNPPsHs2bNz3XaVM2b38F8+qampJjEUpHnz5gCA6dOnIzk52eSzH3/8EQcPHrSonEedPHkyV/ZuTVwPq1ixIrZv345Dhw7l+szb2xtKKVSrVg2PPfYYWrVqBZ1Oh9mzZ+c6kb788kvjQZ5X2+ecvDns1T4Pi4uLw/r169G4cWPjvIGcrs+HY8kZHrx7926umB/+v6VtUBhFbY/o6GiztxoWtp4vvvgCwIMem+XLl+O1115DTEwMLl++bJd9Z24f2Hr/NW3aFLVq1UJYWFiux56fPn0apUqVMs5bK6rC1PXoOVIQS7+3ufJttQ/NXZPLlSuH3377DT4+PoiKikKfPn0KtV9trSj12irm/NaNjIwE8GA4u6CeW1u3YfPmzaGUwooVK8z2rjy8LK/jTstsmqzcvXsXaWlpAJDr5De3LgBcunTJZPmqVavw7bffIiwsDL/88gu2b9+Offv25XrwWc5fp3PmzMHVq1dx7NgxfPvttwCAgwcPmvyiypkfkZPM5GjatCn69euHxMREdO3aFV9//TW2b9+OadOmYcOGDRg8eHCe8YsIZsyYgS1btpgceL/++is8PT3xz3/+02T9y5cvo2bNmhg1alS+7WJOvXr1EBwcjLNnz5osX7ZsGUQE7777LoAH8zJGjhyJK1euoHXr1pg1axaWL1+OkSNH4uLFi8bnjOS0zcNteufOHdy+fdvkomhp+6SkpABArgcQ3bhxI1c9Ofsi5zjJuZDq9XocO3YMR48exZw5cwA8ONnPnz+Pe/fuGcfnDxw4gOzsbOO7mB49jixtg/zY6ng5evSo8d9paWn48ssv8c477xiHGIpaz9q1a016igICAlC9enVUq1bNqlivXbsGwHT/5eyzh8s3tw9svf9Kly6NhQsXIisrC5999pmx7vv372Px4sWYMmWKyTOXLI3dHGvrAh6cJ9b8Asjre1tyDhbl+vSwq1evAvjf+ZjDy8vLOCSxa9cu9OjRw9hmlu5XS9vf0vUsrTclJQVZWVkm38nSbQuS87sr57oGPEgE1q9fj/feew86nQ6LFy82JgR5nce2bsMGDRpgyJAhSExMxOjRo43H4ddffw0AOH78OHbt2oXMzMw8jztNs9VtRWvWrJGgoCDjrbXNmzeX2bNnm72Xf9euXfKPf/xDAEjp0qVl7ty5xlu2jhw5YnymyKP/BQUFyb1790Tkwftych5tD0D69u0rSUlJ4ubmJj179pT//ve/IiLyzTffGJ970bhxY5kzZ47JLX+3bt2SgQMHik6nEwDi5uYm48ePN3kOiDnp6elSt25d4z31H3zwgbz33nuydOlSs7cUnjhxQnQ6nXTo0MHqth0xYoT07dtXnnrqKRk9erRMnz5dBg8eLJUrV5a5c+fmimvs2LHi5uZmvJV6+vTpkp2dLSIi33//vXh7ewsAadmypYSGhkpCQoLxvUZKKXnrrbeM6xfUPqGhodKhQwcBID4+PvLDDz9IWlqafPTRR1KqVCnjbezHjh2Tffv2GW8hrlmzpvz4448iIjJ69GgBIDqdTvr37y9XrlyRp556ynhLa0ZGhiQkJIiHh4fxdsUrV67keRwV1Ab5scXxkvN48+DgYOnRo4dMmTJFAgMD5csvv7RpPfXq1ZMuXbrIypUrZdGiRdK1a1fZtWuXVWVs27ZNmjRpIgCkWbNmsnHjRrlw4YI899xzxm1mzpwpImJ2H9hj/4mIbN26VRo0aCD/+Mc/ZO7cuTJo0CD57rvvTPaVNbHnx5K6Dhw4IBMmTDBeb9544w3Ztm1bgWWb+97WnIOFvT7l1D116lSpXLmyABAXFxcZP3687Nu3T0RETp06JTNmzBCllPF7+fn5GdusoP26efNmi9rf2v1UUL3h4eHGx1kopeT999+XixcvWrTto+9Gepher5fx48cb27pUqVLSvHlzadasmfztb3+TJk2ayLBhw+T48ePGbQo6j23Vhjnu3Lkjw4YNExcXF3F1dRUfHx/59ddfxdXVVXr37i3Lli2TzMzMPM9VLbP5c1aK6ty5c/L2229LcnKyHD9+XMLDw2XNmjUyd+5c6devX66XSCUkJBh3hMFgMD7Xwlp3796VkydPGpMhS2RnZ8vp06dlz549xueL5CcpKSnfkyUvDz9gLz09XaKiouTIkSP5lpWeni6nTp0qVH3mFKZ9rJGQkCA3b940/nz//n3j80hy3LlzJ9ey/Ni6DR6WX3vkJCtbtmyRW7duSWxsbIEP4CpMPRkZGWIwGOTSpUty+vTpPJ+7Yct9l9c+sMf+ExG5du2aTd+z5Yi6CvO9H2Xv8y8vluxXZ6vXUTEXZzypqaly5swZ4x9g169fz7WOLY47Z6JE7DgAaaU///wTfn5+iIqKQq1atXJ9HhMTg6ioKOPtYETOaM6cOZg8eTK2bNlinPBKRESF51RvtNu2bRuSk5OxcePGXBOIEhISsHjxYjz77LMOio7IMjnHbmEmVBMRUW5Olax07doV7du3x2uvvYYKFSrgqaeeQlBQEJ588kksWLAAH374ofH2LSJndO/ePezatQvAgzsH0tPTHRwREZH2OdUwUI7du3cjOjoa2dnZaNy4MVq0aFGkt4wSFZeQkBCTuwhcXFzw2muvFfggOCIiyptTJitEREREOZxqGIiIiIjoUUxWiIiIyKkxWSEiIiKnxmSFiIiInBqTlb+gwr5i/K/6anJ7cXR7FvQytOKsl4pHzov0iqok70NHfLeS3J624mqvgqOjo/Hjjz/i8OHDuHTpEmrWrAk/Pz80bdoUlStXRnR0tPGlTmR/ycnJWLlyJTZt2gQ3Nzds3rzZou1Onz6NdevWQa/Xo1SpUggNDS1U/VlZWViwYAGGDRuGhIQETJkyJdebpJs1a4aJEyfi2WefxcKFC/Hrr78iKioKAFCpUiU8/fTTmDNnDtavX4+vv/4aSUlJxm3Lli2Ltm3bIiUlBQaDAZ06dcKLL76I+vXrG9c5efIk9Ho9JkyYYHwJWVGsXLnS4nYEgIULF+LkyZNYvXo11q9fj+XLl6NDhw5FjsMa+R0Hhw8fRseOHTFt2jS8+eabNq3XVscRFc7u3bsRFhaGAwcOICoqCpMmTcLkyZOtKiMyMtKhx25xyMrKwhNPPIEaNWpgx44dxVKnPc+7EsXWz+//888/Zdy4ceLi4iKjR4+W6OhoycrKknv37sn27dulcePGAkCGDh1q66opH7du3ZI1a9YIAOnWrZvF2129elXWrl0rAKRz586FqvvOnTsyaNAgOXr0qMnyZ555xvgCtVq1auV6t82pU6cEgLzyyism79YQEbl3755UqlTJuP3UqVNF5ME7VJo1a2Z8geGWLVtMttuyZYuMHTvWopcaFmT8+PHi7e0tX331lWzbtk0iIyONdX/00UeyZ88e2bRpk7z88ssCQOLi4uTMmTPSrVs3ASC7d+8ucgzWyu84iImJEU9PT1mwYIHN67XFcUSFExMTI5UrV5b09HTJysqSnj17Su/eva0ux9HHbnHIysoSf39/6dOnT7HVac/zriSxabKSnp4unTp1EgAye/bsPNd56qmnpH///rasmixgMBisTlZEHrywUafTFeqXTFZWlnTp0sXsG2pzfokDkI4dO5p8dv36dWnWrJnMmDEjz7J9fX2N28+bN8+4/IsvvjAub9iwYa7tFi9eLG+99ZbV3+VRo0ePls2bN5sse/rppwWArFq1ymR5nz59jG9rnTZtmkMv+IU9DoqqKMdRSbV582aJjY21ax2vvvqqNGrUyGSZpS/WfDQ+Rx+7JUFx7POSyKZzVubOnYuIiAg0b94ckyZNMrtO6dKlERISgrS0NFtWTRZQShVqO51OV+hhk08//RQVK1ZE165d843HxcXF+O8bN24gKCgIo0ePxvvvv59n2Xl9n2rVqhn/febMGWRlZZl8PmrUKGzYsAF6vd7i72FOjRo1EBQUZNG6I0aMML4ryBZDUEVR2OOgqIpyHJVEiYmJeOGFF5CRkWHXeg4fPmxyfgGWHQPm4uP+K5ri2uclkc3mrGRnZ2Pu3LkAgDfffDPfk6FJkybo06ePybK0tDRs2bIFiYmJqFu3Lrp06YJKlSoZPxcRREZGomzZsvD398ehQ4ewb98+tGnTBq1atQIApKSkIDw8HNevX0dwcDC8vLxy1X3gwAEcOHAAHh4eCAwMzPUY/z179sDb2xseHh7YsGED/P390axZM4tiLIitvkNsbCz279+P27dvw9/fH23bts3zIhIbG4vw8HC4u7tjwIABecZWULsUxrVr1zBz5kx8//33Fm9z8+ZN9OjRAxMmTMCIESMKVe/Vq1eN/27dujVcXU0Pc1dXVwwdOhSTJk3CsWPHCn0BnjFjhsXrDho0yOzy1NRURERE4Ny5c+jWrRsaNmyYax1b7BtLj4PLly/jxIkTJsllXFwcwsLCUK5cOTRr1gxVqlSBt7c3gAfHdEREBOrUqQNPT0+Eh4fj/PnzCAwMxOOPP25RbJaeV+fOncOuXbuQmpqK9u3bo0WLFmbLy6+9iuM6kp2djfBZ9bY1AAAgAElEQVTwcNSuXRs+Pj7YsWMHzpw5g6CgIDRo0AAAEB8fj969eyMlJQW7d+9GUlIS2rRpgypVqljUZkDB14FTp04hMTER58+fh4uLizE5b9q0KWrUqJFv2XnF9zBLjt2C2qog1hxf+V27LWmvHHfv3sVvv/2Gv//971Z/j/yO0fz2ubnzztK4LTneSgRbddFERkYau96PHTtm1bZ//PGHVKtWTdavXy83btyQV155RR5//HG5cuWKiIjs3LlT/P39BYB8/PHH8sYbb0hwcLC0adNGAMjatWtlw4YNEhQUJM8//7xUrFhRfHx8JC0tzVhHWlqajBo1ShYsWCDr16+X7t27i4eHh4SHh4uISEhIiNSrV08AyPLly6V9+/YCQPz9/S2KsSC2+A7p6ekyYcIEGTJkiERHR8uWLVukefPm0qFDB4mLizOpz2AwyHvvvSf9+/eXqKgo2blzp/Tt2zdX939B7ZLD1dXV6u77mTNnilJKrl+/bvbzsWPHGo+Zzp07y40bN6Rly5bSunXrXPNXzKlfv36uYaBLly5JgwYNBIA89dRTcu7cObPbhoWFCQDZtGmTVd+pIHkNAz3sww8/FACyYsUK6dSpkwQHB4uHh4e4u7vL/v37jetZum/yY+lxsHfvXgkODhadTifBwcHG5atXr5bAwECJjY2V+Ph4ad26tSxcuFBERJYuXSq1atUSAPLVV19JkyZNpEmTJqLT6cTFxUUWLVqUK55HjyNLzqvs7GyZNGmSjBkzRiIjI2XlypWilJKXXnrJpOyC2qs4riN6vd44PPndd9/JoEGDpFevXlKlShUpV66cxMTEiIjIjh07jPM/pk+fLiEhIXL58mWL9qml14HIyEgJCQmRqlWriqenp4SEhEhISIicOXOmwDryis/SY9eStiqIpcdXQdduS9srPj5exo4dK2XKlBFXV1ervoclx6i5Nl23bp3Z887SuC093koCmyUry5cvN/7iSE1NtWrbrl27iqenp/HnEydOCACZM2eOcdm6desEgAQEBMi1a9dERCQzM1PKlSsnFSpUkCVLlhjXnTt3rgCQ1atXG5e9/vrrsnTpUuPPKSkpUqpUKfHx8TH+Ynz99dcFgPTu3Vtu3rwpERERsn79eotjLEhRv8OUKVOkfv36Jr/Ir169KpUrV5bmzZvL/fv3jcvnzZsnPj4+JsuOHDmS65eUJe0iUrhkpUuXLuLh4ZHn5w8nKy1atJAnn3zS+PPkyZMLLP/hZKVly5bSrl07KVWqlLi6usqUKVPk7t27eW578+ZNASDjxo2z6jsVxJpkZdCgQcZzZdu2bQJARo4caVzP0n2TH0uPAxGR48ePCwCTi2ajRo3km2++Mf6s1+tl1qxZxp8nTpwoAGTIkCFy69YtERE5ePCgVKpUSUqVKiUJCQkmdTx6HFlyXs2aNSvXHLfAwEABIElJScZllrRXcVxH5s+fLwCkZ8+ekpKSIiIiGzduFAAyfvx4k7IAWP0LxZrrgIhI3bp1pX79+lbVkVd8lh67OdsX9fi19PjK79ptTXtlZ2eLr6+vSbJiyfew5hh9tE3NnXfWxG3p8aZ1NhuAzLl/vzDj4cOGDcNbb71l/Dmne+3hW1NzlgUGBsLDwwMA4ObmhhYtWuDOnTsYPny4cV1/f38AD7rPcspZsGABbty4gR9//BE//vgjNm7cCC8vL8THx+P48eMAgDp16gAAhg4disqVK6Njx44IDg62OMaCFOU7XL9+HbNnz0bfvn1Nxp+9vLwwbNgwHDlyBKtWrQLwoHv2o48+wvPPP28yBPJwl6g17VJYx44dw2OPPWbRuidPnoS7u7vx59mzZ2PFihUW1zV8+HCEh4cjLCwMjz/+OGbOnIk6dergp59+Mrt+pUqVoNPpcOTIEYvrsLWJEyeibNmyAID27dvDzc0N586dA2CbfWPpcZCjdu3aZsv49ttvcfnyZQBAUFAQOnXqZPz8b3/7G4AHc3Jyhm5atmyJcePGITMzs8B9WNB5de3aNUydOhVjx4412W7JkiX497//jZo1axrXt6S9iuM6kjNsNGTIEOPxHxAQAADG/VtY1lwH7Cm/Yxew3bXF0uMrr2u3te2l0+mMdVr6PSw9RvNi7ryzJm57Hm/OxGZzVvz8/AA8GGOMjY3F/7V35nFRVf0f/zCsSrIobikKCioiiGho+lNEzK1ULDENMkotS9FUIslHi3zSUpDMBUVc+JVL6fNgLgluiFi44wKamgqICsIgsm/D9/cHv7kxzHZn5g6Mdt6vl6/i3HvPdznfc+6Zc8/St29f3s8GBQUBqP9W+OOPP+LmzZsAgJqaGu4eZZ0gGxsbuTRpgT19+hQAcPXqVdTV1cHR0RHm5ubcfZs2bQLw94RMqQxFefLRUR262lBTU4M2bdrI3evt7Y3169fj0qVLCAwMxJUrVyAWi9G9e3eV+vD1i7YUFhbC0dGR172DBg3C4cOH8eqrr+LatWsAgJkzZ6JXr17w9PTklYepqSkGDx6MPXv2wN3dHWKxGAEBAejcubPcnhBGRkawsrJCfn6+ZkbpiRYtWsDS0hIVFRUAhCkbvnEgRVF8hoSEYN68eejVqxe++uorBAcHy8xdkD7T+NmxY8fim2++we3bt1XKVFevLl++jOrqajkbnJycZPbQ0bSON0Yf7UhDWrVqBUD3Tdk0aQeaisaxK9VTiLaFb3wpa7u18VdDWXzs4Buj6mzUVm99xpshIVhnpXfv3tz/37p1S6POikQiwXfffYe0tDQsXrwYU6ZMwbp164RSjQtoT09PODg4aJWHvnVUh/SXbW5urtw16S+BoqIiAPX+B9TviiiEX1RhZmamUWeuZcuW2L9/PwYMGIDCwkJUVFTAz88PFy9eVDjJURl9+vRBp06dkJOTA4lEgu3btyvcwKqurk5u8q2hIETZ8I0DVQQHB8Pe3h7vv/8+Fi5ciF27duHXX39VO0FT+muyRYsWKu9TV6+knRexWKxysqC+Y7mpZKhDk3agOdG3r/jGl67+4mMH3xjVhOelnJsSwT4D2djY4I033gAAJCQkaPSsv78/9u7diz179qB///5CqcQhHfpNSkpSeF06zKsKfeuoDulMe0W/VKVLc/v06QMAsLKyAqB+CFAIv6iiffv2GlcoR0dH/Pzzz9zQ54MHDzB58mSNOj0AZD4/NfzFJ6W2thbFxcUadYKaEiHKhm8cqKKsrAx+fn5IT0/HO++8g4sXL2L06NFqn3v27BkAwMXFReV96upVhw4dANSv9FBEcXExAP3HclPJUIcm7UBzom9f8Y0vXf3Fxw6+MaoJz0s5NyWCLpqPiIiAqakpdu7ciUuXLim9r7KyklvmfO/ePcTHx6N3797cC0o6dEVEguglHeUJDw/HkydPZK7FxcWp1LWpdFSHm5sb7O3tkZSUhIKCAplrt27dgpmZGcaPHw+g3l4jIyPs2rVL5fkvuvpFHUOGDEF+fr7GPho5ciS+++477u+UlBTMnz+f9/O1tbXIzs7m/h47dqzcPYWFhQDqPz81RLoXirZIn1dls/Ra43uofsI7AGHKhm8cqNJr1apVAOp/ye7cuRNz5sxBeno698tPGWlpaWqXSfOpVwMGDIBIJEJERITcr8yoqCiuI6bvWNaHDOny09LSUt7PaNIOSGkYV7rqxyd2Af2XB5/4ArTzV0P42ME3RgH+PtVV7xcRQTsrPXv2xObNm1FXV4exY8fip59+kgvqK1euYPjw4XBzcwPwd+OemJiI69ev49q1a9yZQffu3UN2djYqKiogFosBQG4zHelL5+HDh1ya9BuzdOM5Nzc3TJgwAVlZWfD19cWGDRtw4sQJLFu2DPv378eUKVNknisrK5ORwVdHdehig7m5OdatW4fa2lp8++233H01NTXYvHkzwsLCuHlDzs7OmDp1KrKysjBjxgyuYmzYsAEAkJGRgZSUFPTs2ZOXX8RiMWprazk9+TJp0iSUlpYiPT1d4fWGlb9xQ7Bo0SIMHz6c+zs6OhoxMTHc3431uX//Pvf/33//PTeiM3fuXIXf76WNZcMKn5iYCFtbW0RHR/MxTyFSO6RlrQhpg9awvEtKSlBcXMw9zzdmVcE3DqQdBOn1R48ecXns27dP5peht7c3OnToIDfnQDrPCKiP2aioKCxevFhmsmLjOOJTrzp16oSgoCDk5ubilVdewerVq7Fz504EBQXh4cOH3D4WfP3VFO2IdB5UQxnSfBv6UurDCxcuQCKR4PTp01CHJu2AlJKSEo06RKr04xO7gDDx2xB18aWs7dbGXw3hY4eTkxOvGFXmU0X1ThO9+cbbc48+lhhduXKF/Pz8yNzcnDp16kRjxoyhKVOm0NChQ2n69OmUlZUlc/+MGTMIAIlEIpo4cSLl5ubSoEGDuOVchw4doiFDhhAAcnR0pB07dlB5eTktX76czMzMCAAFBgbS9evX6ezZs9ySsU6dOlFcXBwR1Z+JMnnyZBKJRASATE1NKTg4mNtDYePGjdya/t69e1NkZKTMkjF1OlZVVan0ydGjR3W2gYjo2LFj5OzsTNOmTaM1a9aQv78/bdmyRU5eSUkJBQYGkrGxMZmYmJCjoyMdOHCATExMaNy4cfTjjz9SdXW1Wr+kpqbSpEmTCAAZGRnR0qVL6eHDh7ziQCKRUO/evWnt2rUy6efOnaNhw4ZxMqX/3Nzc6JdffqGysjL67LPPyMXFRea6iYkJLVmyhKKjo6lXr14y18zMzMjX15eGDx9Offr0ocDAQPrjjz+U6vbpp5/SkCFDZNK2bt3Ke9l0Yw4cOEDTp0/n9OnYsSN9/fXXdP/+fZn7tm/fTh07duSWWx89epQyMzNp6tSpnI9DQ0NJIpGoLRs+8I2DlJQUmjZtGgEgc3NzWrNmDYnFYurWrRuNGDGCdu/eTZs2bSJfX19KSUnh8o+IiODqwOjRoyksLIx8fHwoKipKRg9lccSnXlVWVtLs2bPJ1NSUgPozn8LDw+XOd1LnLyHqoDoZx48fJ1dXVwJA7u7udPDgQXrw4AG99dZb3P0rV64kIqLMzEyys7PjlnPz3bOJiF87cOHCBZo3bx4XkwsWLFB47IUyGuv37bff8o5dPr7iA5/4Utd28/WXlOHDh8ssXeZjB98YbezTffv2Kax3fPXWJN6ed/TSWZFSWlpKly9fppMnT1J6ejpVVlYqvTczM1PmsLqamhq5PRqE0unmzZtUUVGh8bNNpSMf8vPz5Tp9iigrK6Pbt29zlUbZBm26+EUVZ86coV69esnt/dCcPH36lOzt7eUOViQiunfvHu9zU5oKIcqGbxw0pqqqiurq6ujRo0d069YtuZeA9GWSkJBARUVFdOfOHY39x7deVVZW0p9//qn2h4G+YlkfMkpKSnRqQ/i2A9qiq35EuvlKiPhqCB9/eXt7K9wfio8dfGJUG5/qu5yfB4yImmjSBeMfS2RkJExMTDSad6JPPvnkE3h5eXHLZhnaExkZiZCQECQkJPCaeMtgaEJzxNeQIUNQWVkpyDwnhnCwU6kYemfRokUoKSmRmXPSXISHh7OOioBIJ+nqOjGZwVBEU8RXcXEx9uzZw8l69uyZ2om7jKaHdVYYTcK//vUvdO3aVW5me1Ny8+ZNTJkyhXVUBKKiogIpKSkAgNTUVFRWVjazRowXiaaKr8TEREybNg1vvPEGduzYASsrKwQHB+tFFkN72GcgBoOhFbGxsTKrnoyNjTFnzhy1G3UxGHxoyvg6ceIErl69CicnJ4wePVpmt1qGYcA6KwwGg8FgMAwa9hmIwWAwGAyGQcM6KwwGg8FgMAwa1llhMBgMBoNh0LDOCoPBYDB4c/36dZ2eV3b8BoOhCr12VqRnjrwoKDoM7nmnKWx6Ef0mJMw/wmFovjQ0ffig6oTzpUuXqjz3SkphYSF3OnBjnj59ivDwcK310yd8ykvXMhUqJp7H2NIFvXRWzpw5g+XLl2Py5Ml4+eWXERERoQ8xTUJqaioWLFgABwcHnD17trnVEZQrV67AxsYGq1evFjzvW7duYeXKlRg+fLjCU48Z9eizDP5pGIovn8fYv3nzJt5//3106dIFr7/+usJ7tmzZAnNzc5kDRhtz6NAheHp64u2334aDgwO++OILuZfq0KFDYWlpia1btwppgtZo0sZrG2NCv0cMJdabEsE7KxkZGRg/fjxCQ0MRHx+Pvn37IikpSWgxTYadnR3S09ORlZXV3KoIjqmpKVq0aAELCwvB87a1tUWPHj2QnJys8pfaPx19lsE/DUPx5fMY+y4uLggODsaDBw/g6+srd/3x48fYunUrvvjiC6V5REZGYsqUKYiKisKxY8fw22+/YdWqVVi2bJncvYsWLUJMTAx3inNzokkbr22MCf0eMZRYb1KEPmzok08+IRcXF5k0QzsYThW//fYb3blzRyZt2bJlBIDOnDnTTFrpjiK79I1EIiGRSETDhw9vUrna0hw+YmiHoZeVLrHfXLZt376dANDFixflrn300Ue0adMmpc+ePHmSANCiRYtk0l1cXKhFixYKD7GNjY2lmTNn6q64ADRFG/8ivEeaE8FHVq5cuQJjY2OZNCMjI6HF6IWsrCy8++67qKqqkkkXiZ7vecjK7NI3IpHoufFdc/mIoTnPQ1lpG/vNaVtSUhJat26Nfv36yaTX1tbi8OHDCAwMVPrsnDlzYGpqis8++0wm3cXFBRUVFbh48aLcMwEBAfjPf/6D4uJiYQzQgaZop56XttBQMREqoz///BNZWVnIzs6GsbExEhMTAQBubm54+eWXAQC///47OnbsCDs7O+zfvx8eHh5wd3fn8rhz5w7Onz+P4uJieHh4YODAgTIFTERITU1Fy5Yt4eHhgcuXL+Ps2bPw8vLCgAEDAABisRjJyckoKCiAn58f2rVrx0v/+/fvY9y4cRCLxThz5gxycnLg5eUFW1tbmfvKyspw+vRp3L17FyNHjkSvXr3k8rpw4QIuXLgAOzs7+Pj4oG3btpo5UwN/nD59Gl27dkXbtm2RnJyM7Oxs+Pj4oGfPnrzsevz4MW7cuKFw6Pfu3btISUlBWVkZBg8eLNeIlZeXIyEhAVlZWXBwcMCIESNgbW2tla2KUCcfUO9riUSC5ORkdOnSBY6Ojjh58iRu376NUaNGwdnZGQC/slcnR11sq0JZGdy7dw9JSUmwtLSEu7s7bG1t0bFjR1558okNvroLEYeNUZenMr1atWqlVTzzkccnVqToI/b5xCEfOzSBiFBZWYkWLVrg+PHjGDFihFx+ycnJcHZ2hqWlpcI8Tp48iZs3b2Lo0KFo3769zDXpeT6FhYVyz1lYWMDV1RUHDx5EQECA1jYAf79/pAwdOhSZmZl48OABl9alSxe4uLigqKgI586dAwB4enrK1WV1bbwubSZfGXzQR7th0Ag1RJOamkqxsbHUpk0batu2LcXGxlJsbCzdvn2bYmNjqVu3bgSAdu7cSYMHDyYA5OHhQURElZWVNG/ePJo6dSqlpaVRQkIC9e3bl4YMGUL37t0jIqJTp06Rh4cHAaB///vftGDBAvLz8yMvLy8CQPv27aP9+/fTqFGjKCAggKysrMjR0ZHKy8t56X/y5EkaOXIkAaDw8HCKjY2lx48fExHRV199RQBo165dNGzYMPLz8yM7OzuysLCg8+fPc3mUl5fTBx98QD/88APFx8fTa6+9RnZ2dpScnKyRL/n4Y9u2bWRvb08AaP369eTq6kqurq4kEonI2NiYG7JVZtcff/xBfn5+JBKJyM/PT0a+RCKhhQsX0syZMyk1NZV2795NRkZG9OGHH3L3nDt3jtq3b0/x8fFUWFhIH3/8MfXs2ZNyc3Nl8jIxMdF4KJyPfD6+TkxMpO7duxMA2rJlC/n7+9PYsWPJ1taWLC0tKT09XaWP+MhRF9uqUFUGv/zyC/n4+NCdO3fo/v379Morr9C6det4+Y9vbAhRL/nKksInT1V6aRrPfORpEitE+ot9VXHI1w6+VFZWUmhoKH300Ue0cuVK+uabbwiAwk89c+fOpc8//1xpXh9//DEBoC+//FLu2oABAwgAHTx4UOGzn3/+uUy91pbHjx9Tly5duPKrq6ujvLw8eu211wgAzZgxg54+fUpERDU1NRQWFkYDBw7k3g982nhd20y+7xF16KvdMHQEn7Pi4OBATk5OcumffvopAaBx48bR06dP6fTp0xQfH09ERGFhYeTk5ES1tbXc/Xl5eWRjY0N9+/almpoaIiL673//SwDI29ub8vPziYiourqaLC0tqVWrVhQTE8M9v2bNGgJAv/zyC2/dpTo2bJiI/g4yf39/KisrIyKi48ePEwAKCgqSeX7btm3c32KxmMzMzMjR0VHGNnXw9cf8+fMJAE2dOpWKioqIiOjSpUtkbW1NZmZmlJmZqdKujIwMAiAX8KtXr6aJEyfKpPn4+BAAysnJISIiX19fatu2LXf9xo0bBIAiIyNlntOms8JHPl9fr127lgDQmDFjSCwWExHRwYMHCQAFBwdz9ynzER85qmJbHcrKwMXFhTZu3Mj9nZiYSKtXr+aVJ5HmsaFLveQrS5M8VemlSTzzlUfEP1b0GfvKbNPEDnUUFBTQ//zP/9DmzZu5tLFjxxIA+uuvv+TuHzZsGG3fvl1pfu7u7gSAxo4dS3PnzpX5Z21tTQDo8uXLCp/dtGmTYHPaoqOjCQBt3bqVS7t27RoBoNmzZ8vcGxoaSvv37+f+5tvG69Jm8pXBB321G4ZMk31E69q1KwDgnXfegY2NDYYOHQo/Pz8UFBQgIiIC48ePl5nr0q5dOwQGBuLq1avYs2cPAHDDdT4+PrCzswNQPyu6X79+KCkpwfTp07nnPTw8ANQPmwrF/Pnz0bJlSwDA4MGDYWpqirt37wIAcnJy8MMPP6CwsBBxcXGIi4vDwYMH0a5dO9y/fx8ZGRm8ZGjij86dOwMA3nvvPW4I2tPTE3PnzkV1dTV27dqlUlaXLl3k0vLz87FkyRLMnj1bJj0mJgZbt25Fp06dAACBgYEIDQ3lrkvLJicnh5edyuAjXxNfSz8DTp06Fa1btwYAeHt7AwBXdsrgK0dZbPNBURkA9cPE0dHRePz4MQBg1KhRGDZsGK88Af6xIUS95CtLkzy18WljX2oiT5oOqI8VfcW+MjS1QxXV1dXw8fGBs7MzPvzwQy49Ly8PXbt2Rffu3eWeyc/Pl/scLkUikXD1wMHBASYmJty/8vJyPHv2DCKRSGG+ANC6dWs8efKEl+7qCAgIgKWlJeLi4rg0Nzc3dOvWDfv37+f2fSEinDt3Dm+88YZcHqraeEC3NpOvDD7oq90wZJqssyKdZGtjYyOTfvXqVdTU1KBNmzZyz0gbikuXLsnk0ZjGeQLgGpunT59qr7QKWrRoAUtLS1RUVACot6Ourg6Ojo6ws7Pj/m3atAmHDh2S+5arDG380dgv0r0dbt++rVKWIn9evnwZ1dXVco2Lk5MTPvjgA+7voKAghISEoLS0FNHR0fj6668BqN5Qig985Gvia0U2tmrVCoD6TQv5ylEW23xQFtMhISG4fv06evXqhaioKNTW1sLLy0vjfNXFhpD1Up0sbfLUxKeN5WsiT9HzgOJY0VfsK0NTO1SxcuVK3L17FytWrODSiAi3bt3CyJEjFT7z5MkTWFlZKbyWl5cHiUQCY2NjrF+/HlFRUdy/N998E0D9D0dlz7dp00awzkqrVq3w9ttvc3NBgPrddisqKpCbm8vNozxx4gSGDRsmtxCkMY3beEC3NpOvDD7oq90wZASbYKst0h6govX20l9sRUVFTaqTNkgbZE9PTzg4OGidjxD+kPbkW7RoobH8mzdvAqifqNx4UmFDJBIJvvvuO6SlpWHx4sWYMmUK1q1bp7E8beQL5Wt1NJUcRQQHB8Pe3h7vv/8+Fi5ciF27duHXX3/lJqtrC9/Y0EccNnVd15c8fcW+MoSyIzMzEytWrEBAQAA6dOjApScmJqKsrExpZ8Xc3FzpbqnSDlqbNm3kJuaeOnUKABSOYEipra2Fubm5Wt35MmvWLGzbtg07duzA8uXLERERgd27d+PNN9/Ejh078PrrryMmJkbQzdT4tplNgb7aDUOg2ddSSWdBKxoFkA7b9enTp0l10gbpULCyDfD4fo4Swh/Pnj0DUL9sUFOkjdjvv/+u8Lp0maG/vz/27t2LPXv2oH///hrL0UW+UL5WR1PJUURZWRn8/PyQnp6Od955BxcvXsTo0aN1zpdvbOgjDpu6rutLnr5iXxlC2fHzzz+juroaEydOlEmPioqCkZERRowYofC5tm3bcmXZGOnnocYrhYgIR44cgYmJCWbNmqVUp6KiIt4rNvkwaNAguLm5IS4uDtnZ2Xj8+DG8vb0REBCAAwcOID09HZWVldxnRiHg22Y2BfpqNwwBwTsrVD9pl/f9bm5usLe3R1JSEgoKCmSu3bp1C2ZmZhg/frzQaipE+sugtLRUJl1qT2O7Gtrat29fAEB4eLjcsGZcXBzvYVoh/JGWlgYLCwtMmjRJY7sGDBgAkUiEiIgIuV9yUVFRuHv3Lu7du4f4+Hj07t2bG0qVDpNrUvaK4CNfKF83RJGP9CGnMcpia9WqVQDqRyd27tyJOXPmID09nfuVrS2NY0MZ+ohDoeo633jWR9uiz9gHFNsmlB3SAwQbLic/dOgQzp49C3d3d7Rr104ufwBo37498vLyFOZpZWUFV1dXZGdny+wNEx8fj4yMDISEhHCjP4rIz8+XGeWRUl5ertYeZcyaNQsPHjyAv78/Fi5cCACYMWMGqqur8eabbyr8NMOnjVd2H582SxMZfGjqdsMQELyzUlJSIteIAH/PHSkrK5NJNzc3x7p161BbW4tvv/2WS6+pqcHmzZsRFhaGHj16AAB3gFbjDZOka/gfPnwoJ0+ToJfOQbhw4QIkEglOnz4N4O/h14b5l5SUoLi4mCb4aG8AACAASURBVHuJubm5YcKECcjKyoKvry82bNiAEydOYNmyZdi/fz+mTJnCSwdN/CHl2rVr3P+Xl5cjKioKixcv5hoJZXZJy+nRo0fc805OTggKCkJubi5eeeUVrF69Gjt37kRQUBAePnyIfv36oa6uDkD98PH169dx7do1REZGAqhvzLOzs1FRUQGxWIza2lqFeywog498TXydn58PQDZmpOXY8BePIh/xlaMstvmgqAwAYN++fTL6eXt7o0OHDrznPklRFxtC1Eu+sjTJU5VP+cazpjbwiRV9xr4y27QpC0W89NJLAP4+NTk5ORkikQgSiQRDhgzBuXPncOPGDbnnPDw8kJaWpjTfefPmQSKR4OjRowDq57EsXrwYI0aMwJdffqlSp7S0NLkJoAsWLMBLL72EpUuXqrVJEYGBgbCwsEBVVRXGjBkDoP6Hh6enJ0pLSxV+luLTxgPat5mayOCDvtsNg0SoZUUXLlygefPmEQACQAsWLKDjx48TEdHGjRu5vRh69+5NkZGRckt5jx07Rs7OzjRt2jRas2YN+fv705YtW7jrR48epSFDhhAAcnR0pB07dlB5eTktX76czMzMCAAFBgbS9evX6ezZs9yysU6dOlFcXBwvGzIzM8nOzo5bcpibm0vbt2+njh07EgDy9PSko0ePUmZmJk2dOpUAkJGREYWGhpJEIqGioiKaPHkyiUQiAkCmpqYUHBzMe68XTfxBRBQREcEtXxs9ejSFhYWRj48PRUVFqbUrJSWFpk2bRgDI3Nyc1qxZwy3XrKyspNmzZ5OpqSkBIAsLCwoPDyeJRMLlOWPGDAJAIpGIJk6cSLm5uTRo0CBOn+TkZJo0aRLno6VLl9LDhw952c5HPh9fHz9+nFxdXQkAubu708GDB+nBgwf01ltvcc+sXLlSqY/4yOET28pQVQbdunWjESNG0O7du2nTpk3k6+tLKSkpvPIl4hcbQtRLvrI0yVOdXprGMx8bNIkVfca+sjjka4cqrl27Rq1btyZjY2Py9PSkjRs3UmVlJVlYWFDnzp1p7969Cp9LSEigfv36Kc23rq6OvvzyS2rdujW999575ODgQIsWLaKKigq1Orm7u9ONGzdk0qZPn04AqGXLlrxta8ysWbNo3759MmmxsbG0YsUKuXv5tvHJyclat5mavEfUoc92w5ARfJ8VXcnPz6esrKxmk19SUiKzL4Q2lJaW0s2bN3lVVnWo8of0JZGQkEBFRUV0584dpecwaWNXZWUl/fnnn1RVVaXwemZmJrfRElH9Zku6+k4T+UTC+lqVj4SUw4eqqiqqq6ujR48e0a1btzTap4dIs9jgg1BxyDdPdWgTz0K2LfqMfXW26WJHcXExXbp0iQoLC7m0u3fvqvxBVVtbS/b29gr3YGlIUVERnTt3jp49e8ZLl3v37lHPnj0VXnvy5AkNHjyYVz6KKCkpkUurra1VeEaRkPBps/SJru2GIdPsq4EaI90/pbl46aWXuOFSbbG0tNRq+2RF8PWHtbW1yu2+tbHL3Nxc6XbpAOQmqZmYmAg6cU2dfEBYX6vykZBy+GBmZgYA6Nixo85bZauLDT4IFYfa5KkIbeJZyLZFn7GvzjZd7GjVqhU8PT1l0rp166byGWNjYwQHB2PLli0yn6EaY21trdEy2Q0bNsjs9dKQX3/9FXPnzuWdV2MU+c/Y2FjtcmVd4dNm6RMh2w1Dw+A6Kwz+SJcTSr+jMxhSmjI2WBy++MyfPx8+Pj548uSJIKt3njx5gjNnziAlJUXu2tmzZ2Fubo5p06bpLIfx4tDsS5cZ2lFRUcFV9NTUVO7AMAajKWODxeE/AzMzM6xbtw6zZ8/WedVTXV0dPvzwQ2zatAmmpqZy1wcNGoR3331XJxmMFw8j0jXyGM1CbGwstzoKqB/inDNnjlYbwTFeLJoyNlgc/rM4ceIE/vrrL3z00Uda57Fx40a4uLjAx8dHQM0YLzqss8JgMBgM3lRVVem066yuzzP+mbDOCoPBYDAYDIOGzVlhMBgMBoNh0LDOCoPBYDAYDIPmH9NZUXZq6POIrrbo8rz0HBRD5XktZ6H8+rzazxd92EdEbNm1QDyv8fe86q2OF8muF7qzcuvWLaxcuRLDhw/H2LFjm1sdQbhy5QpsbGw0PuJcV1+cOXMGy5cvx+TJk/Hyyy8jIiJC4zz0jba+aU6E8GtqaioWLFgABwcHnD17Vg9aNi/6qseJiYn45JNP0KlTJ72eoP2i87zH3/PYbqjiyZMnWLt2LV577bUmOwS4KXihOyu2trbo0aMHkpOTUVNT09zqCIKpqSlatGgBCwsLjZ7TxRcZGRkYP348QkNDER8fj759+yIpKUmjPJoCbX3TXAjlVzs7O6SnpyMrK0sPWjY/+qrHL7/8Ms6fP/9CnEjbnDzv8fe8tRvqMDc3R6dOnXD8+PEX5r0HvOA72LZr1w6TJk3ijl1/EXB1ddX4hE5AN19s3LgRHTt25JYbHjlyROeNoXTlyJEjcHZ2hpOTE5emrW+aC2392th2Z2dnDB48GMePH9ervs2Fvuqxm5sbBg4ciEuXLgmar6LYfJF40eJPiHbDkMrc2toab731VnOrITgvzltcCSKR6IXqrOiCtr64cuWK3JkaRkZGQqmlMVlZWXj33XdRVVXVbDoIgTZ+VWb7ix7j+qrHQuf5osSmMv6p8acKQyzz5myf9YXgIyvl5eVISEhAVlYWHBwcMGLECN4HmxERTp8+ja5du6Jt27ZITk5GdnY2fHx8FB4OdefOHZw/fx7FxcXw8PDAwIEDeVWaS5cuoaCggPvb0dERPXr0AFD/HRsArKys8Oqrr0IikSA5ORldunSBo6MjTp48idu3b2PUqFFwdnbWWCciQmpqKlq2bAkPDw9cvnwZZ8+ehZeXFwYMGAAAEIvFSE5ORkFBAfz8/OTO4nj8+DFu3LgBX19fmXRdfK+IP//8E1lZWcjOzoaxsTHnGzc3N2RmZqKkpAQAMHjwYLRq1QpXr15Fbm4uAMDe3h69e/cGAI19CAB3795FSkoKysrKMHjwYPTr1w8AcP/+fYwbNw5isRhnzpxBTk4OvLy8YGtrq9I3fGJFGz2VoUqeKr++/PLLSvNUZ7uUsrIynD59Gnfv3sXIkSMVHsB44cIFXLhwAXZ2dvDx8UHbtm01sk9drGnqyxs3buD06dN46aWX4OXlxdVHvuhqDwAUFRXh2LFjqKysxMiRI5UeBKdMlqLysbKyQnFxMffs0KFDkZmZiQcPHnBpXbp0gYuLC4qKinDu3DkAgKenp4wNfO1TdZ+u8W0I8afpOwLgV/cVtRt8/MXXJ4oQug7duXMHycnJsLCwwKRJk3j587lCyCOcz507R+3bt6f4+HgqLCykjz/+mHr27Em5ublqn922bRvZ29sTAFq/fj25urqSq6sriUQiMjY2pk2bNnH3VlZW0rx582jq1KmUlpZGCQkJ1LdvXxoyZAjdu3dPLm8TExMaPnw49/ejR4+of//+BIAWL15MZWVl3LXLly9Ty5Yt6erVq5SYmEjdu3cnALRlyxby9/ensWPHkq2tLVlaWlJ6erpGOp06dYo8PDwIAP373/+mBQsWkJ+fH3l5eREA2rdvH+3fv59GjRpFAQEBZGVlRY6Ojtzx7X/88Qf5+fmRSCQiPz8/rXzf2BeqSE1NpdjYWGrTpg21bduWYmNjKTY2lm7fvk1ZWVnUr18/AkBXrlzh/PrZZ58RAJo9ezYRkUY+JCKSSCS0cOFCmjlzJqWmptLu3bvJyMiIPvzwQyIiOnnyJI0cOZIAUHh4OMXGxtLjx4+V+oZvrGiqpzL4yFPlV1Uos52I6KuvviIAtGvXLho2bBj5+fmRnZ0dWVhY0Pnz57k8ysvL6YMPPqAffviB4uPj6bXXXiM7OztKTk7mZR+R+ljT1JfLly+n8ePH082bNykqKoqMjIyoY8eO1L9/f1q0aBF3n6LY1dWeuXPnEgBavXo1WVlZUYcOHQgAWVtbU2JiokayFJVPWloadenShfNFXV0d5eXl0WuvvUYAaMaMGfT06VMiIqqpqaGwsDAaOHAgV+f52qfuPiHiu7njT5N3BBG/uqis3eDrL1U+UYWQdaiuro7+9a9/0cSJE+nixYt06tQpGj9+PAGgkSNHqtXleUHQzoqvry+1bduW+/vGjRsEgCIjI3k9P3/+fAJAU6dOpaKiIiIiunTpEllbW5OZmRllZmYSEVFYWBg5OTlRbW0t92xeXh7Z2NhQ3759qaamRiZfRY1cYmIiAaAPPvhAJv3AgQPci5aIaO3atQSAxowZQ2KxmIiIDh48SAAoODiYu4+vTv/9738JAHl7e1N+fj4REVVXV5OlpSW1atWKYmJiuOfXrFlDAOiXX37h0jIyMgiAXGeFr+816axIcXBwICcnJ7n0kJAQmc5KQ7na+JCIaPXq1TRx4kSZNB8fHwJAOTk5RET06aefEgC5BlaRbzSJFU30VIYm8pT5VRXKbJe+LPz9/bnO9/HjxwkABQUFyTy/bds27m+xWExmZmbk6Ogoo7Mq+MQaX1/+8ccfZGRkJNMxmDRpEgGgvLw8GbmKYldXe6SdldmzZ1NhYSEREf30009kbGxMdnZ29OzZM41kKSqf6OhoAkBbt27l0q5duyZXT4iIQkNDaf/+/Rrbx+c+IeK7ueOP7zuCiH9dVNam8vWXMp+oQsg69P3335Ojo6NM23L16tUXrrMi6IfGwMBAhIaGcn9Lh/ZycnJ4Pd+5c2cAwHvvvccNh3l6emLu3Lmorq7Grl27UFBQgIiICIwfP17me3+7du0QGBiIq1evYs+ePWpljRo1Ch4eHti1a5fM5Krdu3cjKChIJl8AmDp1Klq3bg0A8Pb2BlD/qQKARjpJfeLj4wM7OzsA9bPR+/Xrh5KSEkyfPp173sPDAwBkllV26dJFoT26+l4bTEzkvyKamZnJpfHxIQDk5+djyZIlmD17tszzMTEx2Lp1Kzp16qRSn8a+0TRW+OqpDKFiUxfmz5+Pli1bAqj/PGdqasrpnpOTgx9++AGFhYWIi4tDXFwcDh48iHbt2uH+/fvIyMjgJYNPrPH1ZWJiIohIpmz9/PwAgPskogyh7AGAOXPmcEP3AQEBeOutt1BQUICff/5ZZ1kBAQGwtLREXFwcl+bm5oZu3bph//79qK2tBVD/iePcuXN44403NJLJ9z5d45sP+o4/Pu8IQLO6qKxN1ae/hKpDZWVlWL58OQICAmTaY3d3d530M0QE7awEBQUhJCQEpaWliI6Oxtdffw0AvJdPSScFNZ4cJN1b4fbt27h69SpqamrQpk0bueelBcl3dn9oaCgqKyuxfv16APUFf/v2bQwcOFBOp4a0atUKwN8beWmik7KJTzY2NnJp0gB9+vSpSn0A3X2vT/j4EAAuX76M6upqdO/eXeZeJycnfPDBBxrL0TRW+OqpDCFjUwhatGgBS0tLVFRUcPrV1dXB0dERdnZ23L9Nmzbh0KFDaN++Pa98+cQaX182nMcjRTpXRBr/yhDKHqD+B0NDpKsppC9QXWS1atUKb7/9NjePAwCuX7+OiooK5ObmcnOWTpw4gWHDhnEvV74y+d6na3xrij7ij887QipL1zZZn/4Sqg5duXIFYrFYrs18ERF0gq1EIsF3332HtLQ0LF68GFOmTMG6det0zlf6q6tFixbcngjSiZwNkfa6i4qKeOXr7++PL774Ahs3bsTixYtx4MABTJkyRWP9hNRJW/Tl+6bk5s2bAOonGGs6oVURTV0uhhAHqpA25J6ennBwcNA6HyFjbfr06YiJicH333+PCRMmwNTUFKdOncLAgQPh5eWl8lmh7FGE9Ne2tBOjq6xZs2Zh27Zt2LFjB5YvX46IiAjs3r0bb775Jnbs2IHXX38dMTExMhuT8ZWpTz8IiT71bPiOAAy/LgpVh27dusXl96Ij6MiKv78/9u7diz179qB///6C5fvs2TMAgIuLCzezXBr4DZEOp/bp04dXviYmJliwYAHEYjG2b9+OX375Be+++67G+gmpk7boy/dNSYcOHQAAv//+u8LrDVdV8KGpy8UQ4kAV0qFmZRvP8d3FVchYc3BwwKVLl5CTk4NJkyZhyZIlqKqqwpEjR+RGOxojlD2KkP7ClQ6n6ypr0KBBcHNzQ1xcHLKzs/H48WN4e3sjICAABw4cQHp6OiorK9G1a1fuGb4y9ekHIdGnng3fEYDh10Wh6pCVlRUA4T7jGTKCdVbu3buH+Ph49O7dmxvGlA5VkY4biKWlpXHLsdzc3GBvb4+kpCSZ5cdAfS/TzMxMoy2GZ86cCTs7O6xatQoAlC5XVIXQOqlC6suGPtWn76V5KMpH+o204S+UsrIyANDqrJUBAwZAJBIhIiJC7hdRVFQUVyGlnw5KS0vl9Gz436YsF23kKfOrKvjarkhG3759AQDh4eFym2DFxcXx+kSlj1hbu3Yt9u/fj0OHDuGbb75BREQEr6WfQtijjIyMDNjZ2eH111/XSJay8gHqR1cePHgAf39/LFy4EAAwY8YMVFdX480335T71MlXpj790Jjmjj9lNHxHAJrVRWW680VVmStCyDrUt29fGBkZYdeuXQpHV16kERfBOivSl1NiYiKuX7+Oa9euITIyEkB94WRnZ3PfLtVx7do17v/Ly8sRFRWFxYsXo3PnzjA3N8e6detQW1uLb7/9lruvpqYGmzdvRlhYmMweDWKxGLW1tSgsLFQoq2XLlvjoo4+QnZ2NgIAAuev5+fkAILPhz8OHDwH8/UtfE53EYrFcfgA4/aR5A3/PVSkvL+fSpBXi0aNHXBpf36vzhTJKSkoUVkTpr5jIyEjk5eXh+vXriI6OBlD/PVja4eDjQ6B+bkpQUBByc3PxyiuvYPXq1di5cyeCgoLw8OFDbq8V6bftCxcuQCKR4PTp0wp9o2ms8NVTGZrKU+ZXVSizXerrhvFTUlKC4uJi7sXg5uaGCRMmICsrC76+vtiwYQNOnDiBZcuWYf/+/bw+gfKNNb6+3LNnD6Kjo5GUlIRff/0VJ06cwNmzZ2XsABTXYyHskSLtZEv9tmHDBqxdu5abN8NXlrLyAeonVVpYWKCqqgpjxowBUP+y8fT0RGlpKTexVlP7+N6na3yrsq+p4k+KqncEoFldVNSmAvz9parMFSFkHXJ2dsbUqVORlZWFGTNmcLZs2LABQH2nOyUlxeAPoOWFkEuLZsyYQQBIJBLRxIkTKTc3lwYNGsQtC6uqqlL5fEREBHfv6NGjKSwsjHx8fCgqKkru3mPHjpGzszNNmzaN1qxZQ/7+/rRlyxaZe1JTU7llkEZGRrR06VJ6+PChXF537tyh1q1by+l3/PhxcnV1JQDk7u5OBw8epAcPHtBbb71FAMjU1JRWrlzJW6ejR4/SkCFDCAA5OjrSjh07qLy8nJYvX05mZmYEgAIDA+n69et09uxZbslup06dKC4ujlJSUmjatGkEgMzNzWnNmjXckjZ1vk9OTubli4ZcuHCB5s2bRwAIAC1YsICOHz/OXa+pqaFx48Zx18ePH085OTlkampKY8aMoZ9++kljH1ZWVtLs2bPJ1NSUAJCFhQWFh4eTRCLh7snMzCQ7OztuKWtubq5K3/CJFU31VIU6eer8qgpFtm/fvp06duxIAMjT05OOHj1KmZmZNHXqVK68Q0NDSSKRUFFREU2ePJlEIhFnV3BwMLevBx/Uxdpvv/3G25dXr17l9iFp/G/UqFFUUVGhsh7rak9GRgb5+PhQz5496eOPP6awsDCaNGkSnTx5Uu5ePrIUlU9DZs2aRfv27ZNJi42NpRUrVijUj6996u4TKr6bO/40eUcQqa+LytoNTfylrswVIWQdKikpocDAQDI2NiYTExNydHSkAwcOkImJCY0bN45+/PFHqq6u5uVfQ0bQzgpRfcFJNzkiqn+hNVz7rgppICYkJFBRURHduXOH6urqVD6Tn59PWVlZOun8v//7vzR//nyd8miIEDppgy6+11WutILW1dVx+x/oQmVlJf35559KO7glJSUa29bU5aIvedrY3pjS0lK6efMmVVRUaPW8ULF29+5d+vzzz+nJkyeUkZFBycnJtHfvXlqzZg1NmDCBYmNjeeWjqz0SiYT++usvbq8VXWSpKp+SkhK5tNraWqqsrNRJpqb36UJzxp827wgi/dd9bXwidHtdVlZGt2/f5n7YFRQUaJ2XIWJE1Mwn0jUgMjISISEhSEhIwOjRo5tM7siRIxEdHS3IChQGg8GPZ8+eoUePHrh48SLs7e3lrqenp+PixYsy+x4x/tk01zuC0fwY1KnL0slA2kzO1ISioiKsWrUK3bt3x6NHj9CuXTvWUWEwmpjjx4/jyZMnOHjwID766COZzbsyMzOxefNmfPPNN82oIcPQaKp3BMPwMJjOSkVFBVJSUgAAqamp8PHxgYWFhV5kZWRkYOXKlQDql06ePXtWL3IYDIZyfH19MXjwYMyZMwchISFwd3eHlZUVxGIxvL298dVXX3FLMxmMpnxHMAwPg/kMFBsby62UAQBjY2PMmTOH2+RHaA4fPozs7Gz4+/tz294zGIym58yZM0hLS4NEIkHv3r3Rr18/rU5NZrzYNPU7gmFYGExnhcFgMBgMBkMRgu5gy2AwGAwGgyE0rLPCYDAYDAbDoGGdFQaDwWAwGAYN66wwGAwGg8EwaJ7bzkpTHNDUXIdA6VtuYWEhd/Iog8FgMBiGznPZWbly5QpsbGywevVqwfO+desWVq5cieHDh2Ps2LGC568Ofdp26NAheHp64u2334aDgwO++OKLF+pUTgaDwWC8mDyXnRVTU1O0aNFCLxsC2draokePHkhOTkZNTY3g+atDX7ZFRkZiypQpiIqKwrFjx/Dbb79h1apVWLZsmaByGAwGg8EQmudin5UjR47A2dkZTk5OTSKvrq4OpqamGDZsGJKSkppEpj5JSkrCiBEjsGjRIkRERHDpvXv3RmZmJp4+fQpzc/Nm1JDBYDAYDOUY/MhKVlYW3n33XVRVVTWZTJFIBJHI4F3Dmzlz5sDU1BSfffaZTLqLiwsqKipw8eLFZtKMwWAwGAz16OVsoDt37uD8+fMoLi6Gh4cHBg4cKPPyJyKcPn0aXbt2Rdu2bZGcnIzs7Gz4+PigZ8+e3H3379/HuHHjIBaLcebMGeTk5MDLywu2trZ4/Pgxbty4AV9fXzn5d+/eRUpKCsrKyjB48GD069dP5np5eTkSEhKQlZUFBwcHjBgxAtbW1lrbqyq/u3fv4q+//uLutbGxgYODA65cuQKg/rPPiBEjZPJTZNu9e/eQlJQES0tLuLu7w9bWFh07dlSr28mTJ3Hz5k0MHToU7du3l7lWWVkJoH7CLYPBYDAYhoqgwwdVVVWYP38+li1bBldXV3Tr1g0ff/wxhg0bhvv37wMAtm/fjq5du2L48OE4fPgwBg4ciNDQUMyZMweurq7YvHkzl19mZiY6d+4MAMjLy0NOTg5OnTqFSZMmoXPnzli/fr2M/Lq6OixatAjffvstevXqhTZt2qB///746KOPuHvOnz+Pbt26QSQSISgoCMeOHcPAgQORl5enlc3q8uvUqRNu376NMWPGYMKECbC3t0fr1q0RHR2NdevWwd7enssrNTVVoW179+7FzJkz4e3tjUGDBiEoKAj/+c9/eOm3b98+AJDrEAHAkydPAABGRkZa2c5gMBgMRpNAAhIWFkZOTk5UW1vLpeXl5ZGNjQ317duXampqiIho/vz5BICmTp1KRUVFRER06dIlsra2JjMzM8rMzOSe//TTTwkApaenc2kZGRkEgPz8/GTkr169miZOnCiT5uPjQwAoJyeHiIh8fX2pbdu23PUbN24QAIqMjJR5zsTEhIYPH67WZr75ffzxxwSAYmJiKCsri/r3708VFRVy+SmyzcXFhTZu3Mj9nZiYSKtXr1arGxGRu7s7AaCxY8fS3LlzZf5ZW1sTALp8+TKvvBgMBoPBaA4EG1kpKChAREQExo8fD2NjYy69Xbt2CAwMxNWrV7Fnzx4A4EZL3nvvPe5ziaenJ+bOnYvq6mrs2rVLpawuXbrIpeXn52PJkiWYPXu2THpMTAy2bt2KTp06AQACAwMRGhrKXZee7pqTk6OpyRrl991336FLly4IDw/HrFmzEBMTo3DFjyLbysrKEB0djcePHwMARo0ahWHDhqnVTSKRICMjAwDg4OAAExMT7l95eTmePXsGkUiE7t278zeYwWAwGIwmRrA5K1evXkVNTQ3atGkjd83b2xvr16/HpUuXEBgYyH12aPz5YezYsfjmm29w+/ZtlbIUfba4fPkyqqur5V68Tk5OMquIgoKCAAClpaX48ccfcfPmTQDQepky3/xatWqFmJgYjBkzBm5ubvD09ORtW0hICObNm4devXrhq6++QnBwMLy8vNTqlpeXB4lEAmNjY6xfv15m3tDhw4exbds2eHh4wMrKiq+5DAaDwWA0OYKNrEh/9efm5spdk46kFBUVqcxDOvrRokULjeVLOwlisVjlfRKJBCtWrMD7778PLy8vfPnllxrL0ja/AQMGwNraGomJiRotiQ4ODkZ8fDxEIhEWLlyIV199FY8ePVL7nLTD1KZNG7nVTadOnQIAvPHGG7z1YDAYDAajORCss9KrVy8AUDgqIt3avU+fPirzePbsGYD6JbWa0qFDBwDA77//rvB6cXExAMDf3x979+7Fnj170L9/f43lNEaT/ObOnYvY2Fi0bNkSM2fORHl5OS8ZZWVl8PPzQ3p6Ot555x1cvHgRo0ePVvucra0tAMDS0lImnYhw5MgRmJiYYNasWbx0YDAYDAajuRCss+Lm5gZ7e3skJSWhoKBA5tqtW7dgZmaG8ePHq8wjLS0NFhYWmDRp0t8K/v+IQGlpKZdG/7+PHTXYz27AgAEQiUSIiIiQG92JiorC3bt3ce/eoFxAiAAABAZJREFUPcTHx6N3797cvJrq6mq5vPiiSX47d+6Evb09Jk+ejBUrVuDevXtYsmSJXJ6KbFu1ahWA+pGnnTt3Ys6cOUhPT+dGs5RhZWUFV1dXZGdny+xTEx8fj4yMDISEhHCjXg2pq6vjYz6DwWAwGE2CYJ0Vc3NzrFu3DrW1tfj222+59JqaGmzevBlhYWHo0aOHzDPXrl3j/r+8vBxRUVFYvHixzAtUujfIhQsXIJFIcPr0aa7j0vBTiJOTE4KCgpCbm4tXXnkFq1evxs6dOxEUFISHDx+iX79+3Es4MTER169fx7Vr1xAZGQmgvuORnZ2NiooKiMVi1NbWqt1/hG9+WVlZ+O677xAeHg6gfoTl1VdfxQ8//ICTJ0/K5KnItn379nEjQ0D9HKAOHTrI7ZuiiHnz5kEikeDo0aMA6uexLF68GCNGjFD4ySoxMRG2traIjo5WmzeDwWAwGE2C0MuLjh07Rs7OzjRt2jRas2YN+fv705YtW2TuiYiI4Jbnjh49msLCwsjHx4eioqLk8svMzCQ7OztuKfG+ffto2rRpBIDMzc1pzZo1JBaLiYiosrKSZs+eTaampgSALCwsKDw8nCQSCZffjBkzCACJRCKaOHEi5ebm0qBBgzh9kpOTadKkSQSAjIyMaOnSpfTw4UOl9qrL7/Dhw9SzZ0/y9vam7OxsIqpfzj1u3DgCQNbW1rR582YiIkpJSVFoW7du3WjEiBG0e/du2rRpE/n6+lJKSgqv8qirq6Mvv/ySWrduTe+99x45ODjQokWLFC6bJiLaunUrAaCQkBBe+TMYDAaDoW/0djZQQUEBysvLFS7FjYyMREhICBISEjBo0CDk5+eje/fuSjcnKy0thVgsRteuXXnJrqqqQmZmJhwdHWFmZiZ3PSsrC9bW1rCxsQFQP6fm4cOHvPPXd36Nqa6uhqmpKXJzc1FSUoLu3bvLLA/nw7Nnz3Dr1i306tVL7eqf+/fvw8HBgW0Wx2AwGAyDoFkOMmzYWeEzUZTBYDAYDMY/l2Y5rU8ikQBgEzkZDAaDwWCop8k7KxUVFUhJSQFQfxaO9DA9BoPBYDAYDEU0+Weg2NhYmY3bjI2NMWfOHK02gmMwGAwGg/Hi0yxzVhgMBoPBYDD40ixzVhgMBoPBYDD4wjorDAaDwWAwDBrWWWEwGAwGg2HQsM4Kg8FgMBgMg4Z1VhgMBoPBYBg0rLPCYDAYDAbDoGGdFQaDwWAwGAYN66wwGAwGg8EwaFhnhcFgMBgMhkHDOisMBoPBYDAMGtZZYTAYDAaDYdCwzgqDwWAwGAyDhnVWGAwGg8FgGDSss8JgMBgMBsOgYZ0VBoPBYDAYBg3rrDAYDAaDwTBoWGeFwWAwGAyGQfN/pYjzGorZk0kAAAAASUVORK5CYII=;" vertex="1" parent="1">
          <mxGeometry x="30" y="395.5" width="241.58" height="185" as="geometry" />
        </mxCell>
        <mxCell id="KH99gnBK2z-O9xpqxuGS-10" value="&lt;div&gt;Kannala-Brandt&amp;nbsp;&lt;span&gt;Camera model (KB)&lt;/span&gt;&lt;/div&gt;" style="text;html=1;align=center;verticalAlign=middle;resizable=0;points=[];autosize=1;" vertex="1" parent="1">
          <mxGeometry x="45.4" y="596" width="210" height="20" as="geometry" />
        </mxCell>
        <mxCell id="KH99gnBK2z-O9xpqxuGS-12" value="" style="shape=image;verticalLabelPosition=bottom;labelBackgroundColor=#ffffff;verticalAlign=top;aspect=fixed;imageAspect=0;image=data:image/png,iVBORw0KGgoAAAANSUhEUgAAAgkAAAGWCAYAAADyuhDzAAAABHNCSVQICAgIfAhkiAAAABl0RVh0U29mdHdhcmUAZ25vbWUtc2NyZWVuc2hvdO8Dvz4AACAASURBVHic7N15XBTlHwfwz3IfipKioqmgpql5m5nmibepWIkXlkf107zvqyyv0vIo85Ys70JTVFLB+8gT8ULLC8ULQTmUGxae3x/TriILLLDL7A6f9+vFa5bZ2ZkvM7uzX57nO8+ohBACRERERK+wkDsAIiIiMk1MEoiIiEgnJglERESkE5MEIiIi0olJAhEREenEJIGIiIh0YpJAREREOjFJICIiIp2YJBAREZFOTBKIiIhIJyYJREREpBOTBCIiItKJSQIRERHpxCSBiIiIdGKSQERERDoxSSAiIiKdmCQQERGRTkwSiIiISCcmCURERKQTkwQiIiLSiUkCERER6cQkgYiIiHRikkBEREQ6MUkgIiIinZgkEBERkU5MEoiIiEgnJglERESkE5MEIiIi0olJAhEREenEJIGIiIh0YpJAREREOjFJICIiIp2YJBAREZFOTBKIiIhIJyYJREREpBOTBCIiItKJSQIRERHpxCSBiIiIdGKSQERERDoxSSBSkJiYGLlDICIFYZJApCCrV6+WOwQiUhAmCUQKwpYEIjIkJglECuLs7Cx3CESkIEwSiBSELQlEZEhMEogUhC0JRGRITBKIFIQtCURkSEwSiBQkLy0JqampOHjwICZOnIjdu3cbMSrKr2vXrmHkyJHYunUrYmNj5Q6HiiAmCUQKkltLQlhYGFatWgUPDw84OTmhXbt2eO2119CtW7dCipDyolatWujZsycGDBiAUqVKoV69epg7dy4uXLgAIYTc4VERoBJ8pxEpxvz58zF58mTt76mpqTh+/Dh27dqFnTt3IjIyEhYWFkhISICNjQ2++uorfPnllzJGTPo4dOgQunTpgpSUFFhbW8PGxgZWVlbo1KkTPvzwQ7Rv3x4lS5aUO0xSICYJRAoyf/589OnTB3v37sWff/6JEydOwNbWFgkJCVCr1drlHB0dMWXKFCYIZuTQoUPo3r07EhISMs13cHCAWq1GjRo14OXlha5du6J+/fpQqVQyRUpKwiSBSCFSU1PRs2dPHD16NMsXCRUd1tbWGDx4MGbNmoUyZcrIHQ6ZOdYkECmEjY0NWrZsifj4eISEhODbb79FkyZNYGtrCycnp0z/WTo4OKBz585IS0uDEII/ZvCzdOlSODg4ZDrm9vb2cHBwQNmyZTFw4EDs2rULcXFxWLlyJRMEMgi2JBApyKs1CYBUzLh//37s2LED+/btgxACycnJUKvV6NSpE/z8/GBlZSVTxKSPxYsXY8KECRBCwNHREWlpaXjnnXfQp08fdO7cGW5ubnKHSArFMwORwjk7O8PLywteXl4QQuDChQvw9/fH1q1bsXfvXvTr1w+bN29momCilixZgvHjx6NChQrw9PREjx490KJFC9ja2sodGhUBPCsQFSEqlQoNGzZEw4YNMWPGDMTExCAwMBCBgYHo0qWL3OHRK65duwYbGxuEhoaytYBkwSSBqAhzdnZG79695Q6DslGrVi3UqlVL7jCoCGPhIpGCKHVY5vj4eJw5cwbbt28HAAQHB2P//v0yR0WkfGxJICKTFxoaikmTJqF06dKwsbHB5MmTER8fj7CwMLlDI1I0JglEZPLq1q0LIQQqVKiA2NhYnDlzBk+fPpU7LCLFY5JARCYvOTkZQUFBqFSpEry9vQEAxYoVkzkqIuVjTQIRmbzjx48jKSlJmyAAwPPnz7Fz504cPHgQAPD06VPs2rVLrhCJFIlJAhGZvICAALi5uaFTp07aecWLF8fOnTtx9+5dAMCPP/6IAwcOyBSh6Xj69CmioqLkDoMUgkkCEZm8wMBAfPTRR5nmqVQqXLlyBa1bt0ZiYiJWrlwJDw8PmSI0HRvWr8fGDRvkDoMUgkkCEZm08PBwXLlyBb169co0PzY2Fk+ePEHVqlXx999/Q61Wo3Xr1vIEaUJ+W7Mcv6z8We4wSCGYJBCRSXN1dYUQAk2aNMk0/+zZs2jZsiVu376NxMREVK9evcg3s589exZJz6OQ9DwaQUFBcodDCsAkgYjM0t27d3HlyhUEBwdDCIH09HQ8fvxY7rBktXb1SgxuXAwDGzrg1zUr5Q6HFIB3gSRSEF13gVSqjIwMPH/+HCVLlgQgXSZpZ2cnc1TySUpKQqXyZXFpzOsQAOouuof74ZFZbi9NlBdsSSBSEKUOy6yLhYWFNkEAUKQTBADYunUrmroXQ/kS1qhQwhrvuBfHjh075A6LzBwHUyJSEGdnZ7lDoEL07NkzhIaGIjQ0FD8tmIcv37bRPjekgS2++/5b2NnZoUqVKqhSpQpKlCghY7RkjpgkEClIUWpJKIp8Vq/C/r27EXr7Nu7cf4DU1DRUKeuEKqVs0LZMBt6vVVq7bLe3nHDq3lNs/G4UQqNScScyDjbW1qjiVlFKGmrUxke9eqNhw4Yy/kVk6pgkECkIWxKUbfcOX5w99TfW962A+hUqwaVY9qdwG0sVFnRzyTTvSbwaFx4m4ePNB/A44gnGjB1v7JDJzLEmgUhB2JKgbH/uDsAnnw3D8J1RiIxX5/n1MUnpGOMfgx69+mL/kRMoU6aMEaIkJWGSQKQgbElQNisrK8z7YTG+/n4p2q5+hO2Xn+v92r+uxaHlykeY8M0CrPL5FdbW1kaMlJSC3Q1ERGamv7c33qheHR95vo9H8QIjmuVckLjk72dYeDIJ/gGH0Lhx40KKkpSALQlECsLuhqKjSZMmGDNhCm4+Tct12ZtP0zB24lQmCJRnTBKIFITdDUXL9ZBLqFFKlWleVEI6ohPTM82r8ZoKN/4JKczQSCGYJBApCFsSipbr/4Sghout9vcdV56h7uJ7qLvoHnaGvKhXqFHGFv9evSxHiGTmWJNApCBsSSha/r0Zijc7uSI2KR2T98Xg4F1gy3Z/2NjYYJB3H2y6FInlnq+hRhlbXL95W+5wyQyxJYFIQdiSUHTExsYiMSkJFx4koc7CMOCNDrh07QZatmyJpk2b4kLIv6jSui/qLb6Pc/eT8Ox5PJ4/1/9qCCKASQKRorAloejYunUr4hJTMPFwBnx3B2KVz69wdHTUPm9nZ4d5PyzC1l37MO1IOpJS03Djxg0ZIyZzxCSBSEHYklA0xMTEYNq0aejatQuCr/yLd999N9tlmzVrhotXr2PM6NG4efNmIUZJSsCaBCIFYUuC8gkhMGjQIHh5eWHZsmV6vcbe3h4LFy1GSkqKkaMjpWGSQKQgbElQvvnz5+Pu3bv4/fff8/xaW1vb3BciegmTBCIFYUuCsp0+fRqLFi3C6dOnYWdnJ3c4VASwJoGIyAxER0ejb9++WLFiBapUqSJ3OFREMEkgIjJxmjqE7t2748MPP5Q7HCpC2N1ARGTi5s2bh0ePHsHX11fuUKiIYZJARGTCTp8+jcWLF+P06dMsPKRCx+4GIiITFR0djT59+rAOgWTDJIFIQXgJpHJo6hA8PT1Zh0CyYXcDkYLwEkjlYB0CmQImCUQKwpYEZWAdApkKdjcQEZkQTR3CypUrWYdAsmOSQERkIjIyMtC/f394enrigw8+kDscIiYJRESmYt68eYiKisL3338vdyhEAFiTQERkEo4dO4bFixfj7NmzsLGxkTscIgBsSSAikt2TJ0/Qr18/rFq1Cu7u7nKHQ6TFJIGITM68efPkDqHQZGRkYMCAAejVqxfrEMjkMEkgIpLRd999h+joaMyfP1/uUIiyYE0CkYJwMCXzcuzYMfz444+sQyCTxZYEIgXhYErmQ1OHsHr1atYhkMlikkCkIGxJMA+aOgQvLy/07NlT7nCIssUkgUhB2JJgHr799ltER0cXqQJNMk+sSSBSELYkmL5jx47hp59+Yh0CmQW2JBApiFJaEpKTk+UOwSgiIyNZh0BmhUkCkYIopSVBiUmCpg6hd+/erEMgs8EkgYioEMydOxcxMTH47rvv5A6FSG+sSSAiMrKjR49iyZIlrEMgs8OWBCIiI4qMjET//v2xZs0a1iGQ2WGSQKQgSilcVApNHUKfPn3g6ekpdzhEecYkgUhBlFK4qBRz5sxBbGwsvv32W7lDIcoX1iQQKYhSWhJsbW3lDqHAjh49ip9//pl1CGTW2JJApCBKaUlwcHCQO4QCYR0CKQWTBCIFUUpLgjnT1CH07duXdQhk9pgkECmIUloShBByh5BvmjqEuXPnyh0KUYGxJoFIQdiSIC9NHcK5c+dYh0CKwJYEIgVRSkuCOdLcl2HNmjVwc3OTOxwig2CSQKQgbEmQR0ZGBry9vdGvXz/WIZCiMEkgUhCltCSkpqbKHUKezJ49G8+ePWMdAikOaxKIyOQkJCTIHYLejhw5gqVLl7IOgRSJLQlERPmkGQ/Bx8eHdQikSEwSiIjyQVOH0L9/f/To0UPucIiMgkkCkYLkVriYlJSEgwcPIikpqZAiyurOnTsIDg7OcSwElUpViBHlz6xZs/D8+XPMmTNH7lCIjIZJApGC6CpcvHXrFn7++We89957KFu2LOLi4mBvby9DdBI3NzesXr0aLi4u6N27N3x9fc3uqowjR45g2bJl+P3331mHQIrGwkUiBYmJiUFycjKOHj2KnTt3YufOnYiNjYVarYZarca2bdtkv0RPpVJhxYoVSElJwbp167B7926kp6ejevXq8PLywvvvvy9rfLmJiIhgHQIVGSphzuOfEpHWs2fP0L17d5w8eRJqtVrucArE1tYWa9asQf/+/WFhYToNnhkZGejUqRMaNGiA+fPnyx0OkdGZzqePiAqkRIkSePfdd3H79m2sXLkS7dq1g729PZydnWFhYQFbW1ucPHkSQgiT+Pn666+hUqlgY2MDR0dHODs7o3///ti+fTumTZuGAQMGmFSCALyoQ5g9e7bcoRAVCnY3EClMpUqV8L///Q//+9//kJqaiuPHj2Pnzp3w8/NDhw4dEBgYiHfffVfWGOfOnYu5c+eiQYMG8PLyQteuXfHWW29pn79x44aM0emmqUMICgpiHQIVGUwSiBTMxsYGHh4e8PDwwJIlSxAWFoa///4b9evXl614MTQ0FLVq1UJ0dDSKFy8uSwx59XIdQuXKleUOh6jQMEkgKkIqV64s+5dclSpVUKVKFVljyAvNeAgDBgzgeAhU5JhWhx8REZDjGAqFbebMmYiLi2MdAhVJbEkgIsrG4cOHsWLFCpw7dw7W1tZyh0NU6NiSQEQmxxQu4YyIiIC3tzfrEKhIY5JARCYnLi5O1u1r6hA+/vhjdO/eXdZYiOTEJIFIQXQNy2wI8fHxOHPmDLZv3w4ACA4Oxv79+42yLVPwzTffID4+HrNmzZI7FCJZsSaBSEGMdQ+E0NBQTJo0CaVLl4aNjQ0mT56M+Ph4hIWFGWV7ctLUIQQFBbEOgYo8JglECmKsloS6detCCIEKFSogNjYWZ86cwdOnTzMtEx4ejoCAAFSsWBEeHh5GicPYNHUIv/zyC+sQiMDuBiJFMVZLQnJyMoKCghAdHQ1vb28UK1Ysy82NXF1dsWPHDkRHRxslBmPT1CF88sknrEMg+g+TBCIFMVZLwvHjx5GUlARvb+8cl7t48SLatm1rlBiM7euvv0Z8fDxmzpwpdyhEJoPdDUSUq4CAALi5uaFTp05Znnv69CmCgoKQnJwMFxcXlCpVqsDbs7Iq3FPT4cOHsWrVKo6HQPQKtiQQUa4CAwPx0UcfZZl/9uxZzJo1C+3bt8f+/fvRrl07g2zPycnJIOvRB+/LQJQ9tiQQUY7Cw8Nx5coV+Pj4ZJofExODIUOG4MiRI7C0tERYWBhGjx4tU5T5k5GRgf79+2PQoEGsQyDSgUkCkYIYo3DR1dVV570UFi1ahLZt26JUqVKIiYnBqVOnsHXrVoNv35hmzJiBhIQEfPPNN3KHQmSS2N1ApCDGKlzU5eTJk3jnnXcAAMuWLUP9+vWNdnWFMRw6dAirV6/GH3/8wToEomywJYFIQQrzS7p169ZYuXIlwsPD4eLigsTERNy/fx/ly5cvtBjyKyIiAgMGDMD69etRqVIlucMhMllMEogUpDBbEr766iuMHj0aTk5OSE9Ph7e3NxwdHQtt+/mlqUMYOHCgzqs1iOgFdjcQKUhhN/drrkKwtLQ0aIKQkZFhsHW9asaMGUhLS+N4CER6YEsCkYIUZkuCMcXGxhplvYcOHcIvv/yCoKCgQh+LgcgcsSWBSEHMqXCwsD1+/BgDBgzAb7/9hgoVKsgdDpFZYJJApCBKaUkwtPT0dO14CB07dpQ7HCKzwSSBSEHYkqDbjBkzoFarOR4CUR6xU45IQZTUkpCSkgJbW9sCr+fgwYNYu3Yt6xCI8oEtCUQKopSWhMjISCxbtqzA62EdAlHBMEkgUhCltCScP3MSq5f9pHM4aH2p1Wp4eXlhyJAhrEMgyicmCURkUm7fvo379+5BlRqH48eP53s9M2bMgIWFBb7++msDRkdUtLCDjkhBlNDdsGDBAgxpVgYVi6djzYqlaNmyZZ7XsW/fPqxduxbBwcGsQyAqALYkECmIuXY39PHsBJVKBZVKhXVr12BSy2IY0Kgktv35p3Z+MQd7HDlyJNd1PXjwAAMHDsT69evN4j4SRKZMJQrS6UdFzrvfH0VkXIrcYVA2og/9gtfaDpE7jDxLOLcdaac2IuDT8mhc0T7TcydCE9Dj1wco13Mqkiu/m+N6REY6wjdOgn3lenBu9bExQzYJ7WuWwcp+9eUOgxSM7XCUJ2HRiQh/lix3GJSddFvEPk2QO4q8c+8IoCSa/7wIKd/X1M5OzxDo4nMfSW3GI9qxLpDb33ZmI6AWSK7VEzHmuB/yKOI5P4tkXEwSKE9W9WuAZHW63GEolxDA02jgUQTw4JE0ffgYiIkFomOBlNQcX74p6l/0fxqd8zacigElnACXUkCFckD5csDrrtLjYnLexbEJvBrNhxDA8pPRCIlIw/S2r6FZzfKo3swVLTo3yfHVF/4+hOW+x/D95gA4u5QtpJjlVaGkfe4LERUAuxuI5PQkCjgdDJwKAk4GAecvA/F6/gdc0glQqYCSJaSpUzHMf3IPk0uWB5KSgdRUICERSE2TpvpwLQs0bQg0awy82xhoVBewK/iARvpSqVRo9WZpPEq2RQ/Pnvj1Fx+UL2mLKg1bw8/PL9vXPXjwAI0aNcKGDRvQoUOHQouXSOmYJBAVpsQk4NAJYM8h4OBx4Eao7uVsrIE3qgBvVpN+Kr8OlCsDlHORvsjLlJaWecWUKVMwb968rOtLSJRaJSKeAI8jgfBI4PZd4J+bwPXbwL2HUiuGrjga1QU6tQE6t5UeWxiv3tnRwR5z58xBeEQk5s+fj8jISMyf8gV+9TuEu3fvam9N/TK1Wo22bduiTZs2vP0zkYExSSAytvuPgO17gD0HgWOngeRXCj/tbIGGdaT/3N9tBNStBbhXBPJx6V62SUJuEhKlZCH4CnDynNS68e+trIlDmdJSwtDVA3i/PeBg2Obu27dvo2rVqln+jvDwcAghdF6tMGXKFJw+fRoHDx6EpaWlQeMhKupYk0BkDM+eA3/uATb+CRw9BWRkvHjO2hpo/rb0n3nLd4CGdXW2ChQqRwcpUWlYB/i0nzQv5pnUDXL4pJTgXLsBRD4F1m+VfooXA3p2Bvp/AHi8BxjgC7pq1ao657u6uuqcv3fvXvz2228IDg5mgkBkBEwSiAxFCODgCWD1RmB3YOYWg7Iu0n/fXTyA9i0Bp+Lyxakv5xJSvF08gB++Au7eB/YeAv46CBw4BsTFv0gYXMsC/XoCQz8GqrkVeNP6NHBqxkPYsGEDx0MgMhImCUQFlZwC+O4CFqwErvzzYr69ndQkP+AjoFNrqQXBnLlVBIZ9Iv08ew7sDAC2+kuJQ3gEsHAlsHg10LY5MOpT4P12UkGlEajVavTt2xfDhg1joSKRETFJIMqv8Ahg0WrAZxMQ+/zF/DbNgSF9Ac9OUjO+EpVwAj7uJf3cfwRs2i61oNy5Bxw4Lv28WQ0Y8xkwqI/Bu1OmT58OS0tLfPXVVwZdLxFlxmGZifLqaTQwZS5QrRmwYIWUINjaSC0Glw4Ch7ZK/fRKTRBeVbE8MGUEcOsksP8PqfVEpZIKH4dOBqq9C/zkk7VgM5/27t2L9evXY/PmzaxDIDIyJglE+noSBUycDVR+G5i/TLqcsVwZ4PsvgfBLwPolQN2aua9HqSwsgHYtgN3rgCuHpAJIa2uppWHMDKBmS8BnM5CWluuqSpYsqXM+78tAVLiYJBDlJi1N+k/4jeZSy0FiElD6NWDedOD2KWDiF1KRnwkwmRs81a4BrFkgtS6MGiK1tNy9D3w2AXirjXS1RA5UOmoZXq5DaN++vbEiJ6KXMEkgysm+w0CdttJ/ws+eS8nB/C+Bu2eBycMNPk5AQZncraIrVQB+mg1cOwoM6i2N/XAjFOg6AOg5GAgN03tV06ZNg5WVFesQiAoRkwQiXcIeAN0+ATr3lwYZsrKS/iO+8Tcw6QuTrTcwmZaEV1WpDKxdDAQHAG3fk+b57QNqtwa++j7Xe1Ls2bMHGzZswKZNm1iHQFSImCQQvWr9Vqn1wH+/9Hvb96Qvt59mm0y3gtmqUxM46AvsWge4V5KKGef8CDTsAJy7qF3s5e6GBw8eYNCgQaxDIJIBkwQijfuPgI59gU9GSwMFlS8LbP9F+lKrU4QLEo2hW3vg6hFgxjipuPHaDaBZd2D6vEytCmq1Gn369MEXX3zBOgQiGTBJIAKADdukgrrAo9LvH/cCQo5Iww6TcdjbATMnAGf3APVqAWo18O0SoHEnuEREAZDqEKytrfHll1/KHCxR0cTBlKhoS04BJs8Blvwi/V7WBVgxj8lBYapfGwjaByxcBcz4Hgj5Fx//exN70oENvht4XwYiGbElgYquW3eBd99/kSB4dpKq8JkgFD4rK+lqkb93AVXdEK5OxaAlC7G+wXtwdX5N7uiIiiwmCVQ0+e0DGncCLl6VvqAWzJDqD17TPYiPuTC5SyDzqnE9qE/744NiqfgCjmi/928pkcvDpZJEZDhMEqjo+ckH+PBTadyDCuWAI38C44ca7WZEhclkL4HMg6nzv0Pxtxvgy0ULpHs+XLwKNOkCnDgrd2hERQ5rEqjoSE8HRn0FLP9N+r1lU2DbGsCllKxhGZK5tyTs2bMHGzdulOoQXF2Bt+sDHwyRhsTu0AfY8DPwYVe5wyQqMtiSQEVDQqI0wp8mQejVDQjYoqgEATDvloT79+9j0KBB2LBhA1xdXaWZ7zUBzvwl3VEyKRno9TnwzUJ5AyUqQpgkkPLFPAPa9gJ2/zc40vTRwB8rATtbeeMyAnNtSdDcl2H48OFo165d5ifdK0kFjS2bAkIAMxcCE2bJEyhREcMkgZQtKgZo5wWcvSAVKP6yCJgzWRH1B7qYa0vClClTYGNjg+nTp+te4LWSQODvQL+e0u8LV0r30xCi8IIkKoJYk0DK9SQKaN8buHRNShDW/fTiS0ahzLEl4a+//sKmTZtyHw/B1gbYuBQoWULqNvrJR+qCWDFPuk01ERkckwRSpognQLveQMi/UoW872qgR0e5ozI6c2tJuH//PgYPHoxNmza9qEPIiUoFLJ0LZGQAK9cDqzdK81fOV2zrEJGcmH6T8sTFA128i1yCAJhXS0JaWhr69OmDESNGZK1DyIlKBSz/Dhj9qfT76o3ApDnGCZKoiGOSQMqSmiZdMhd8RbpxkN+vRSZBAMyrJWHKlCmwtbXFtGnT8v5ilQpYPBMYMUj6fcEKYNEqwwZIROxuIAURAvhsAnDguPQlsvp7oHNbuaMiHf766y9s3ry5YPdlUKmAJXOAZ3HSDbomzAJKOQOfeBk2WKIijC0JpBzjZwLrt0qP508HBvaWNx4ZmEN3g2Y8hI0bN+pXh5ATlQpYswBo01xKEj+fCOw/ZphAiYhJAinEhm3A4tXS4y8GAhO/kDUcuZh6d4OmDmHUqFHw8PAwzEptbQC/tUCDt6Tupt7/k27eRUQFxiSBzF/QJek/SEC6k+PPRbeIzdRbEiZPngxbW1tMnTrVsCt2Kg74bwBcy0qDZ30wRBplk4gKhEkCmbeoGMDrf0ByClCjKvDbj0X6mnlTbknw9/fHli1bsHnz5vzXIeSkfFlgu4/UsnDlH+DjURxsiaiAiu7ZlMxfejrQ7wvgzj2geDHpVs8lnOSOSlam2pKgGQ9h48aNKFeunPE21LSRdNUDAGzfwyseiAqISQKZr1mLgcCjUvHa2kVArepyRyQ7U2xJ0NQhjB492nB1CDkZ9gkwpK/0eMq3wJlg42+TSKGYJJB5OnsB+HaJ9HjCMOCj9+WNx0SYYkvCpEmTYGdnhylTphTeRpd+C9SrBajVUrdDYlLhbZtIQZgkkPlJTJJO/Go1ULsGMGui3BFRNvz9/fHHH39g06ZNxqlDyI6dLbB5uTS9EQpMnF142yZSECYJZH4mzQGu35YK1DRfBGRy7t27h8GDB2PDhg3GrUPITq3qwOxJ0uMV64A9Bws/BiIzxySBzMuhE9IdAAHpC6BuTVnDId00dQhjxowpnDqE7Iz7H9C62YvROJ89ly8WIjPEJIHMR2oa8MVU6YTf4h1g/FC5I6JsTJw4Efb29pg8ebK8gVhYSJfFOhUHHkUAX30vbzxEZoZJApmPH5ZL3QxWVsCyb4v0eAimzN/fH76+voVfh5Cdyq8DX4+THi9fB1wIkTceIjPCsyyZh3sPge9+lh6P/x9Qh90MpkhTh2D08RDyatQQ6WqH9HTgf5OAjAy5IyIyC0wSyDyMnC4Ns1uxPPDlGLmjIR00dQhjx45F27YmdvdNKyvpskiVCjh3EfjNV+6IiMwCkwQyfYdOALsCpcc/zgKKOcobD+k0ceJEODg4yF+HkJ33mgDeH0qPp33HezsQ6YFJApm+6fOlaetmwAdd5I2FdNq9ezd8fX2xceNGWJhyrcj86YCDPRDxBPjJR+5oiEyeCX+aiSC1IJw+Lz2eW4gj9pkpOYZlngr8QAAAIABJREFUvnfvHj799FP88ccfplWHoItrWWDEIOnxD8uB6Fh54yEycUwSyHRlZABf/yA9fr890KyxvPFQFi+Ph9CiRQu5w9HPlJGAcwkg9jlvAEWUCyYJZLr+2AVcvCoVm2lGziOTMmHCBJQsWdJ06xB0cS4BjP1cevzjGiDyqbzxEJkwJglkuuYvlaa9ugH1a8sbC2Wxe/du7NixA+vXrzftOgRdxnwGlH5NKl5c+qvc0RCZLDP7ZFORceA4cOma9HgCR1Y0NWFhYfj000+xadMmlC5dWu5w8q54MWD4f7UJy37lXSKJssEkgUzT4tXStE1z4O368sZCmbw8HoLZ1CHoMnygdHOw6Fhg459yR0NkkpgkkOm5fhvYd1h6rOk7JpMxfvx4ODs7Y9IkM68TcSkF9P9AerxoFUdhJNKBSQKZnh/XSCfs6lWArjLeQZCy2L17N/z8/MyzDkGXsZ9LhbHXbwOBR+WOhsjkKOBTToqSlAxs8ZMejxzCmzjlUUxMjNHWralD2Lx5s3nWIehSuwbQ7r8uk1+2yBsLkQniGZhMi98+4NlzwMYa6OspdzRmx1iDKWnqEMaNG4f33nvPKNuQzcDe0nRXABBlvCSLyBwxSSDTsu6/G+907wiUKvzRA82dsVoSxo0bB2dnZ0ycONEo65dVz85ASScgNQ3w3SV3NEQmhUkCmY5HEdKljwDwSS95YzFTxmhJ2LZtm7LqEF5lbwd89L70eN1WeWMhMjEK/MST2dq8HUhPB8qUBjq2ljsas2ToloTbt29j6NCh2LJli3LqEHT5xEuangmWihiJCACTBDIlO/ZK097dAWtreWMxU4ZsSUhJSUHv3r0xadIk5dUhvKr524BbRemx3z55YyEyIUwSyDREPgVOB0uPe3SSNxYzZsiWhPHjx6NMmTLKrEN4lUoFdGsvPd4dKG8sRCaESQKZBv8D0tgIJZyAFu/IHY3ZMlRLwrZt27Br1y6sX78eKpXKIOs0ed06SNNT54GIJ/LGQmQimCSQadD899a5jXT5I+WLIVoSNHUIihoPQR+t35WucsjIeDHiJ1ERxySB5JeS+uKqhvfbyxtLEaepQ5g8ebLy6xBeZW0NtG8lPfY/IG8sRCaCSQLJ79xFID5B6hfu1EbuaMxaQbsbxo0bh7Jly2LChAkGisjMdG4rTY+eAoSQNxYiE2AldwBEOH5GmtaqzgGUCqgg3Q1bt27F7t27ERwcXHTqEF71XhNp+iRKuhTyzWryxkMkM7YkkPxOnJWmmhM05Vt+WxJu376NYcOGKX88hNy84Q64lpUea5JXoiKMSQLJKyMDOH1eetz8bXljUYD8tCSkpKTAy8sLU6ZMQfPmzY0QlZlp1liaMkkgYpJAMrt6HYiOlR6zJaHA8tOSMG7cOJQrVw7jx483QkRmSHMJrqaFi6gIY00CySv4ijQt6wK4V5I3FgXIa0sC6xB0aNpQmt65B8Q8A5xLyBsPkYzYkkDyCrkuTeu8KW8cCpGXloRbt26xDkGX2jWkK20AqaWLqAhjkkDyCvlXmr7FJMEQ9G1J0IyHwDoEHYo5vriPg+b9SVREMUkgeTFJkMXYsWPh6urKOoTsvFVDmrIlgYo4Jgkkn2fPgYePpceakzIZna+vL/z9/bFu3TrWIWRHk7ReYUsCFW0sXCT53LzzYlS7Ghy0pjDcunULX3zxBXbu3IlSpUrJHY7p0gyidOuOvHEQyYwtCSSfB+HStHgx6cY6ZFSaOoSpU6eyDiE3r7tK08dPALVa3liIZMQkgeSjSRI0J2QyqjFjxsDV1RXjxo2TOxTTV7GCNE1PB8Ij5Y2FSEbsbiD5PPwvSahQTt44igBfX1/89ddfuHDhAusQ9PFy4vogHKhYXr5YiGTElgSSj6Zo8XWegI1JU4fw+++/sw5BX/Z2L2429uCRvLEQyYhJAskn8qk0LecibxwK8upgSsnJyfDy8sK0adPQrFkzmaIyU5obPUU8lTcOIhkxSSD5xMVLU6fi8sahYGPGjEH58uUxduxYuUMxP8UdpWl8grxxEMmINQkkH83Jt5ijvHEolK+vL/bu3cv7MuSX5n2ZkChvHEQyYpJA8on7L0koziTB0DR1CLt27WIdQn45OkhTtiRQEcbuBpIPWxIMK/gKcOkaku/cg5eXF6ZPn846hIJgSwIRkwSSUVKyNHWwlzcOJVj6K9C4E7BlB0bXqIsKTiUwZswYuaMyb5qWBCYJVISxu4Hko+kn1wzNTPm3eiMgBO4gHYFpiQhu1JJ1CAWVkSFNLS3ljYNIRmxJIPlY/XfyVafLG4cSlJCuEHGHJU6jNJzLlpU5IAXQDMdsxSSBii4mCSQfq/8asjg2fsF9/xVQviwawRplW7wLDB0gd0TmT5O8siWBijB2N5B8tEkCWxIK7N1GwINgtItPkG6YRQWX/t/70oqnSSq62JJA8rH+7+SbliZvHEqhUjFBMKS0/1q42JJARRiTBJJPif9uDx3zTN44iHSJiZWmziXkjYNIRkwSSD6aG+hExcgbB5EuT6OlaSnnnJcjUjAmCSSf0q9J06hoeeMg0kWTJGjep0RFEJMEko/mP7SnTBLIBGlauNiSQEUYkwSSD5MEMlUJiS9GBGWSQEUYkwSST4Vy0jTsgbxxEL3q5ffk6+Xli4NIZkwSSD7V3KXp3QccUIlMy+0waepgD7iWkTcWIhkxSSD5VHOTpmlpwL2HsoZClMntu9K0qtuLe4wQFUFMEkg+lV8HbKylx5r/3IhMgTZJqCxrGERyY5JA8rG0BNwqSo9v3ZE3FqKXaZLWqm6yhkEkNyYJJK+ab0jTy//IGwfRyy5fk6ZvVpM3DiKZMUkgeTWsI02DLskbB5FGeATw8LH0+O368sZCJDMmCSSvxvWk6eVrQEqqvLEQAcDZi9LUzhao9Ya8sRDJjEkCyUvzn1pqGhDyr7yxEAHA+cvStMFbgLW1vLEQyYxJAsnLpRRQ8b/BatjlQKZA8z5sWFfeOIhMAJMEkl+TBtL02Gl54yBSq4GTQdLjdxrIGwuRCWCSQPLzeE+aHjwBCCFvLFS0nbsEPHsuPW7TXN5YiEwAkwSSX/tW0jTiCXCFdQkko/1HpWntGsDrrvLGQmQCmCSQ/Kq5Ae6VpMeakzSRHPYfk6btW8obB5GJYJJApkFzUtacpIkKW1w8cOaC9LhdC3ljITIRTBLINHT4r8vhyMkXfcJEhWnPIelmY7Y2QKt35Y6GyCQwSSDT0Lkt4OggDai0M0DuaKgo8t0lTTu3BYo5yhsLkYlgkkCmwcEe6NpOerzVX95YqOiJTwD2HpIee3WXNxYiE8IkgUyHVzdpGnAEiI6VNRQqYnYFAknJ0lDMXT3kjobIZDBJINPRxUNq5k1LA3axy4EK0dbd0rSLB+BUXN5YiEwIkwQyHfZ2QPcO0uO1v8sbCxUdEU+APQelx73Z1UD0MiYJZFo+6y9Nj58BrvwjbyxUNPyyRbrBWOnXgO4d5Y6GyKQwSSDT0roZ8Nab0uOVG+SNhZQvIwNYs0l6PKSvVJNARFpMEsj0fO4tTTdsA57HyRsLKdveQ8Dd+4BKBXzaX+5oiEwOkwQyPQM+ksZMiE8AjpySOxpSsl2B0rRja2l4cCLKRCUEb7tHJmjDNqDBWy+6HoiMISMD+OsgUMoZaNZY7miITA6TBCIiItKJ3Q1ERESkE5MEIiIi0olJAhEREenEJIGIiIh0YpJAREREOjFJICIiIp2YJBAREZFOTBKIiIhIJyYJREREpBOTBCIiItKJSQIRERHpxCSBiIiIdGKSQERERDoxSSAiIiKdmCQQERGRTkwSiIiISCcmCURERKQTkwQiIiLSiUkCERER6cQkgYiIiHRikkBEREQ6MUkgIiIinWRNEtLT0+XcPOVACcdGCX8DKeM4pqamGmxdprw/ChpbXl5v7P1gyGOmiykfx5dZGWpFvr6+2L9/P5KTk3Ndds6cOYiJiUGLFi0wY8YMTJw40VBhmJSRI0ciIyMDy5YtM9o24uLiMHfuXPj7+8Pe3h61atVCs2bNEBYWho4dO6JVq1Z6r+vUqVPw9fXFjh07sGnTJjRv3txocRvbxYsXFf/+KgrM/TieOHEChw8fxrlz5xAUFIRx48ZhwoQJeV5PYX8283o+r1y5cr6P1fXr17F9+3YEBATAxsYGgYGB2S4bGRmJLVu2wN/fH9bW1tizZ4/e29FXXo6Zv78/tm3bpv3Cd3R0ROvWrdGnT59My61YsQJnzpxBeno6rK2t0a1bN3z88cdm8b42WJLg5eWF2rVr46233gIAbN68GU2aNAEAZGRkICEhAcHBwRg9ejRGjRoFBwcH2Nvbw87OzlAhmBR/f38sXboUAwcONNo21Go1OnbsiIyMDAQEBKB8+fK4du0ahg8fjqNHj6JmzZp5Wl/p0qUREhKCsLAwI0VceKytrRX9/ioqzPk4Xr16Fd26dcPjx49hZWWF999/H4cPH85XklDYn828ns8rV66c72Pl7OyM6tWrY9q0aWjdunWOy9ra2qJChQo4cOAA2rVrl6+/LSd5PWbvv/8+EhIStEnBunXrsiQIADBs2DDExMRg5syZuHr1KlJSUsznfS0MzM7OTgAQt27d0vn8N998I/7++29Db9akRERECE9PT2FpaSkGDhxotO38+eefAoDYuXNnpvlqtVq0bNlSzJs3L8/rnDFjhgAgTpw4YagwC8WePXvEzZs35Q6DRMGOhZKO4xdffCFq1qyZaV5GRoZer9W1H+T4bBbW+Tw9PV1YWFiI1q1b57psRkaGACDatWtX4O2+Kr/HrH379gKA6N27d7bLDBs2TIwaNarAMRY2g9ckWFnl3DgxdOhQvPnmm4berEkZPXo0Fi5cCJVKZdTtXLt2DQAQHh6eab6lpSV+/PFHPHz4MM/rtLAwv1rWsLAwDBgwACkpKXKHUuQV5Fgo7ThevHgRlpaWmebpc07Ibj/I8dksrPO5hYWF3n+fMc+r+T1ms2bNAgDs3LkTsbGxWZ5PT0+Hv78/Ro4caZhAC5HBuhv04e/vj/fff1/7e3h4OK5duwYPD48sy167dg3Hjh1DsWLF0KRJE1SvXl373MmTJxEXFwcAaNasGYoXL45Lly7h8ePHAICKFSuiVq1amdb3999/w9XVFaVLl4afnx/q16+PunXrap8/d+4czp07h9KlS6NNmzZwcXHJ19+4YsUKtG/fHlWqVMl2mV27dqFmzZp444038rUNjQoVKgAAvvrqKzRo0EDbHAgADRo0QExMjM7X3b59G8ePH0dCQgKaNWuGBg0a6FwuISEBx44dw+3bt9GuXTudJ4Oc9psQAqdOnYKDgwPq16+P4OBgnD59Gk2aNEHjxo0BAFFRUTh69CiePn0KT09PlClTJtP6ExMTsW/fPoSFhcHNzQ1t27ZFiRIltM/fuXMHXbp0QVRUFE6cOIEHDx6gSZMmcHZ2zvH9pe8+yElB3lNCCBw7dgyVK1eGi4sLjh49inv37qFNmzaoUaOGwbYDAKGhoTh8+DAcHR1Rt25dODs7w9XVNdMyOa0jPT0dR48eRaVKleDu7o5Dhw7hxo0b6NChQ6b3cE7HwljH8ebNmzh79iyeP3+O+vXr45133sn0ZaNv7HmV03b//fdfhIWF4d69e7C0tERAQAAAoE6dOihfvnyO681pP7xMn88mYLjzmi6vns+BnM/pBYnl5s2bOHr0KOzs7NCzZ898xWusYwYATZs2RbNmzXDy5En4+Phk6Z7Ys2cPqlWrhmrVqmnn5WdfaeLUaNGiBe7evYv79+9r51WqVAk1a9ZEbGwszpw5AwBo2LBh/o+9oZsmihUrprN5KiUlRbRq1UoIIcTJkyeFp6ensLCwEJ6enlnWMXv2bNGtWzfxzz//iMWLFwuVSiVcXV1Fo0aNxPjx40VYWJho0KCBACAuXrwohBDi0aNHYuLEiQKAGDp0qHZdPj4+okqVKgKA2LRpk2jWrJkAIOrXry+EECIxMVEMHjxYLFmyROzYsUO0b99elC5dWhw9ejTPf/s///wj+vXrp/3dysoqS3fD2bNnBQDx1ltv5Xn9r0pISBCVKlUSAISVlZWYNWuWUKvV2S6fnp4uxo0bJz799FNx6tQpsWXLFqFSqcTnn3+uXeabb74RAMTmzZtFy5YthaenpyhdurSws7MTZ8+e1S6X2347cuSIqF+/vgAg5syZI8aOHSs8PT1FkyZNBACxbds24efnJzp06CD69+8vnJychLu7u0hMTNRu48yZM6Js2bJix44dIjo6WgwbNkzUqFFDPH78WLvMoUOHRLt27QQAMXPmTOHj4yO2b9+e7ftLn32Qm4K+p9auXSsqVqwoAIilS5eK2rVri9q1awsLCwthaWkpVq5caZDtCCGEr6+vaNOmjbh586a4c+eOePvtt8XPP/+s93EMCAgQVatWFQDEmjVrRK9evUTnzp2Fs7OzcHR0FCEhITkei/DwcKMcx+TkZDFq1CjRp08fceHCBbFv3z5Rr1490bx5cxEaGprn2PWlz3ZPnTolfHx8RKlSpYSLi4vw8fERPj4+4saNG7muP7t9KIT+n019jqu+9DmfC5HzOV3fWKysrLJ0N2RkZIgvv/xS9OjRQwQFBYkjR46Ibt265am7wdjHTGPbtm0CgKhYsaJIS0vL9FzXrl3Fli1bCryvwsPDtef8NWvWiIyMDBEREaHt7hgyZIiIiYkRQgiRlpYmpk6dKt55551M59W8MlqS4O3tLUaMGCFGjBghPvvsM1G3bl3h5uamXe7q1asCQJaddPLkSaFSqURAQIB2Xs+ePQUAERERoZ03YcKETEmCEEJcu3YtS5IghBBjxowRAESXLl1ETEyMOHbsmNixY4f2ubVr12qXjYqKEjY2NsLd3T3HL9xXpaamii5duognT55o5+lKEp4/fy569OghlixZove6c3Lr1i1RvXp1AUAAEI0bNxbnz5/XuewPP/wgevTokWlemzZtBADx4MEDIcSLE1GvXr1EQkKCEEKIAwcOCACZ/hZ99tv27dsFANGqVSvtfklNTRWOjo6iePHiYvXq1drXL1q0SAAQvr6+2nkeHh7CxcVF+7vm+C5cuDDT36A5vi+f9LN7f+mzD/RR0PfU6NGjBQDRp08fERsbK4QQ4vz586JEiRLCxsZG3L171yDbqVmzpli+fLl2mYCAAPHDDz9k+jtyW8dPP/0kAIhOnTqJqKgoIYQQu3fvFgDEyJEjde6Xl4+FMY7j1KlTRbVq1TJ9RiMiIkTJkiVFvXr1tCfpvMSuD323K4QQbm5uolq1annehq79IIT+n03NOgxxXtP3fC5E9sdK31h0JQk//vijcHd3z7RfL126lKckoTCOmRBSLZi7u7sAoE0IhBDi3r17okyZMiI5OVk7ryD7asWKFQKA+OWXX7TLXb58Wed336RJk4Sfn1++/h4No3VytW/fHp6envD09ESPHj2yNEtVqlRJ5+sCAgIghNA2pQOAp6cnAGibTgDdfWU2NjY611m5cmUAQL9+/VCyZEm0aNECnp6eePDgAZYsWYLo6GisW7cO69atw+7du1GmTBncuXMHV69e1fvv/frrrzF8+HCULl06x+WKFy8OPz8/g/VNVa1aFZcvX8aMGTNgY2ODoKAgNGnSBEuWLMm03JMnTzB9+nQMHTo00/zVq1fjl19+ybS/AamuwsHBAYDUpWNtbY3bt28DgN77TdO81aZNG+1+sba2RoMGDRAXF4ePP/5Yu7369esDkJoENby9vTFp0iTt75r1PXjwINf9ouv9ldd9kJOCvqdef/11AMAnn3yibXZv2LAhRowYgdTUVGzevNkg20lISMCKFSu0dSsdOnRAy5YttftRn3VouoD69OmD1157DQC0l9Zq3hM5MfRxfPr0KRYsWIBu3bpl6j8uU6YMvL29cenSJfz+++8GiT2/2zWmnD6bgP7HNS9yO58Duo9VQWJJSEjA7Nmz0b9//0zn+5e72nJTmMfM0tISY8aMAQAsXLhQO9/Hxwfe3t6wtbXVzivIvurfvz8cHR2xbt067Wvr1KmDKlWqwM/PD2q1GoDUpXnmzBmdxyovjFaT0Lx5c1StWlX7e9euXREaGqr9PbtikJf7iGrXrg0A2v5TzYc8rzTbKlmyZKb5ly5dQkZGBtzd3TMdwJUrVwIAypYtq9f6jx07hri4OHTp0iVf8RWUra0tZs6ciT59+uDTTz/FyZMnMXr0aBQrVgyDBw8GAAQHByM1NTXTMQGQpZ9MF3t7ezg6OiIpKQmA/vstu2P86nEAXhzbl+soNJePxsfHY8OGDfjnn38AAGlpaTnGm922C7IPslt/ft9Tmte/Gmfnzp0xd+5c3LhxwyDbmTBhAkaNGoU333wT33zzDUaOHKmtXSnIcSxevDgA/QacMfRxvHTpEtLS0lCqVKksz7Vq1QpLly7F+fPn4e3tXeDY87vdwvLqZ1MTpyHOay/L7XwOZH+s8hvLxYsXERUVleXz+qpnz57hxIkTmebZ29ujbdu2BjlmOa3/VYMHD8bXX3+NoKAgHD9+HM2aNcPatWuzjP1QkH1VvHhx9O7dG2vXrsXt27dRtWpVXLlyBUlJSXj8+DECAgLQtWtXHDx4EC1btsxSiJlXhVq4OH/+/FyX+fjjj7F69Wr8+OOP6N69O6ytrXHkyBG88847mQrzDEFzIm7YsCHc3NzyvZ7Zs2cjOjoaLVq0yDRfrVZjz549aNGiBRo3bozFixcXJNxM0tPTkZaWluk625o1a+LQoUPo3r07AgMDMW3aNG2SoDkxR0VFFbhg0lD7LTfp6emYP38+Lly4gClTpsDLyws///xzvtdnyH2QnYLuG01rhr29vUG2M3LkSFSsWBGDBg3CuHHjsHnzZuzcuRPly5c32+OoaRXRFCq/TNNCo6vCvKDk2m5eFdZx1ed8XpBYrl+/DiD3kQlv3bqV5b9lNzc33LlzxyDHLKf1v6pYsWL4/PPP8f3332PRokWIiYmBm5ubXmPW5GVfffbZZ1i7di1+++03zJ49GwsWLMCWLVvwwQcf4LfffkPXrl2xevVq/PDDD7luNzeFek1Ndl0ML3Nzc8P58+fx4MED9OzZE9OnT0dKSgr27t0La2trg8ajafY8fPiwzudfbvrOiaenJ1q2bInGjRtn+rG0tETp0qXRuHHjTFdnGEJCQgI+/fTTLPNtbW2xfPlyAEBERASio6MBAOXKlQMgVcrr8vz5c723baj9lptevXph69at+P3339GoUaMCr8+Q+yA7Bd03z549A4BcTyr6bichIQGenp4ICQlBv379EBQUhI4dOxokVn0Z+jhqKvk1J9WXaZpaNYMAGZJc282rwjqu+pzPCxKLk5MTgNy7hRo1agQh1ddpfzRf4IY4ZjmtX5eRI0fCysoKu3btwtdff43PP/88x/Vr5GVfNW3aFHXq1MG6detw7949hIeHo1WrVujfvz927dqFkJAQJCcna7srC8LgSUJGRgYAqT8kJ5rndS33008/wc/PD/7+/pg7dy4WLFiQ5RIgTR/Vy1lgQkJCphhyU69ePQDAzJkzERkZmem5devW4fz583qtZ/jw4Vi8eHGWH2trazRp0gSLFy/GsGHDtMvrG19OnJyccPDgQQQHB2d5ztXVFSqVCmXLltU24zdu3BgWFhZYsGBBlqx68eLF2g9idsdF8+EADLffchIaGoodO3agVq1a2uYyTfPwq7Fpuqji4+Mzxfvqsvrug4Io6L65cOGCXpd56bud77//HoDUQrFp0yYMHz4cISEhCA8PN8pxfPVYGOM41qlTBxUrVsThw4fx9OnTTOu4fv06bGxs0K1btzzHnpu8bvflz0xe6NoPmvW9PM1uO4Y8rvqez7OLryCx1KtXDyqVCps3b9bZmqDPvQ8K65i97PXXX4eXlxcyMjJw9+5dfPTRR1mWMcS++uyzz3D//n306tUL48aNAwAMGTIEqamp+OCDD7StyAVl0CQhPj4eiYmJAJDlgOhaFgAePXqUaf7vv/+OFStW4PDhw9i5cycOHjyI06dPZxkYSPOf1sKFCxEREYErV65gxYoVAIDz589n+hLQ9HNrkgiNOnXqoHv37ggLC4OHhweWLVuGgwcPYsaMGfDz84OXl1ded0GuwsPDUaFCBYMcwCpVqsDT0xO3bt3KNH/Dhg0QQmDatGnaedWqVcPAgQPx+PFjvP322/jhhx+wadMmDBw4EA8fPtSOE6DZby/v77i4ODx//lz7xtV3v0VFRQFAlkFhNK0bL29Dc4w07x/NySkgIABXrlzB5cuXtcVAoaGhuHfvnrYfVtNXd+7cOaSnp+PYsWM631/67gN9GOo9dfnyZe3jxMRELF68GFOmTNE2hRZ0O9u2bcvUQtKqVSuUK1cOZcuW1XsdT548AZD5OGqO3autL68eiyNHjgAw7HG0tbXFzz//DLVajXnz5mnnp6WlYdWqVZg6daq25S4vsecmL9sFpM/Nq1/0+tC1HwD9PpuA4c5reTmfa5YHMh+rvJwr1Gq19twAAG+88Qb69OmDsLAwDBkyRLt+zb1wrl69iuPHj+dYW1JYx+xV48ePByAV7erqOizIvtLw9vaGnZ0dUlJS0KlTJwBSotGwYUPEx8cXuGBRq0DXRrxk69atokOHDtpL8erVqycWLFigc0jL48ePi759+woAwtbWVixatEh7edKlS5e014G++tOhQweRlJQkhJCuAe3SpYv2uW7duokHDx4Ia2tr0alTJ7Fx40YhhBDLly/XXpNeq1YtsXDhwkyXwsTGxoqPPvpIWFhYCADC2tpajBw5skDXlWrY2dlluTTp2rVrwsLCQjRv3rzA6//kk09Et27dRNOmTcWQIUPEzJkzhZeXlyhZsqRYtGhRluWTk5PF0KFDhbW1tQAg7OzsxMyZM0V6eroQQohff/1VuLq6CgCiYcMdx7IEAAAgAElEQVSGIjAwUNy9e1f06dNHABAqlUpMmjRJpKen57rfAgMDRfPmzQUA4e7uLn777TeRmJgoZs+eLWxsbLSXVV25ckWcPn1aexlihQoVxLp164QQQgwZMkQAEBYWFqJHjx7i8ePHomnTptpLh1JSUoQQQty9e1eULl1aewnVtm3bsn1/5bYP9GGI99SCBQu0f0fHjh3F1KlTRZs2bcTixYsNup0qVaqItm3bii1btoiVK1cKDw8Pcfz4cb3XceDAAVG7dm0BQNStW1fs3r1b3L9/X3z44Yfa5b/77jvt+l49Fo8fPzbKcRRCiP3794s33nhD9O3bVyxatEj06tVLrFmzRvt8XmPXV27bPXfunBg1apT23DR27Fhx4MABvdevax/m5bOpz3HNTV7O50LkfE7PLZZTp05pL3NXqVTiq6++Eg8fPhRCCBEXFye8vb2FpaWlsLKyEu7u7mLXrl3CyspKdOnSRWzYsEGkpqbm+vcY+5jp0qpVK3Hp0iWD7qtXffbZZ2Lbtm2Z5vn4+Ihvv/22QLG/TCVEAdtWDCw0NBSrV6/G+PHj8eTJEzx9+hSRkZG4f/8+jhw5gu7du2PIkCHa5cPCwmBnZ4eyZctCCIHnz59nGslNXwkJCbh//z7c3NyMftONhw8fwsXFJdtLNvWlqWwFpP+UQkJCYG1tjTfffDPHdaekpODu3btwd3cvcAzG3m9hYWEoUaKEtrpfrVbj4cOHWfra4uPjERUVpXcfnCH3QXZy2jcLFy7EhAkTsG/fPjRt2hRPnjxB1apV8zXkbE7bSU1NhbW1NR4/foy4uDhUrVpVZ7WzIY+jrmNhrOMISP/lJiYm6tVHbkjG3G5+9oMuhXleM2YsiYmJePjwIapWrQoLCwtERUXpvGIhN4X5Xnn8+LG2Diqv9N1X8fHxKFasWKZ56enpUKvVma6QKAiTShKePXuG6tWrIygoCBUrVszyfEhICIKCgox6Z0WiwvBykqApJCQiMjUmdTefAwcOIDIyErt3785SlHL37l2sWrUKH3zwgUzRERmO5v1tiCJWIiJjMakkwcPDA82aNcPw4cNRvHhxNG3aFB06dECjRo2wZMkSfPPNN9rLYojMVVJSEo4fPw4AOHXqFJKTk2WOiIhIN5PqbtA4ceIELly4gPT0dNSqVQsNGjQw6N3LiOTk4+OjvfIDkIZzHT58eK4DKBERFTaTTBKIiIhIfibV3UBERESmg0kCERER6cQkgYiIiHRiklAE6DPGuSFfZ0ixsbEICQnBhQsXtEPsKlFh7GtTOJ5FRV5vQ/0yJR0nuf4WU9mHBXkfmAqj3Sr6woULWLduHS5evIhHjx6hQoUKqF69OurUqYOSJUviwoUL2jHcyfAiIyOxZcsW+Pv7w9raGnv27NHrddevX8f27dsREBAAGxubLPdBz4larcaSJUvg7e2NHTt2YPny5bh37572eUtLS7z55ptQq9W4f/++dlx4QBoJTTMSYEZGBjZv3owlS5YgPDwcXbp0gZ2dHfz8/FCyZEmMHDkSgwYN0i6/dOlSzJ8/P9OY605OTujUqROmTJkCd3d3AMDYsWNx4MABPHjwAC4uLli2bBlef/11BAQEYNSoUdob6+TVX3/9hb/++gtxcXGZ5js6OuK1115D7dq18d5772U7et7FixfRokULzJgxAxMnTsxXDNkpyPGkvDtx4gQOHz6Mc+fOISgoCOPGjcOECRNyfd2pU6fg6+uLHTt2YNOmTWjevHkhRGtcarUab731FsqXL49Dhw4V2naN+XnSV37fBybJYAM8/+fZs2dixIgRwtLSUgwZMkRcuHBBqNVqkZSUJA4ePChq1aolAIh+/foZetP0ktjYWLF161YBQLRr107v10VERIht27YJAKJ169Z6vy4uLk706tVLXL58WTsvOTlZlChRQjse+ogRIzK95siRI6JOnToCgPaeBDExMaJdu3YCgHjjjTfEkydPMv1NmvdP69atM43jHxgYmOk+H8OHD9cZZ2BgoHBychKRkZHaefv27RNDhw7N0/0bXvXkyRNhb28vAIgZM2aIa9euiUOHDom1a9eKVq1aCZVKJTp37qxzLPeQkBDh4uIilixZku/tZye/x5PyLiQkRJQsWVIkJycLtVotOnXqJLp06aLXa2/cuKF93584ccLIkRYOtVot6tevL7p27Vqo2zXm50nf7ef3fWCKDJokJCcni5YtWwoAYsGCBdku07RpU9GjRw9Dbpp0yMjIyHOSIIQQ6enpwsLCQu8vFbVaLdq2bavzhihVq1bVfnHPmTMny/MPHz4UDg4OQq1Wi7S0NNG2bVvt8rpOlkFBQdrnW7ZsKdLS0rTPeXh4aJ+rUaOGzlh/+OEHMWPGjCzzV61aJSZNmqTX35sdNzc3AUAcOXIky3P79+8XTk5Owt7eXmzfvr1A28mrvB7PomDPnj3i5s2bBl3nF198IWrWrJlpXnY3RNIVw4wZMxSVJBQGYxzHgsrr+8DUGbQmYdGiRTh27Bjq1aunvb/1q2xtbeHj45OpqZmMIz83CwKk+9nnpen922+/hZOTEzw8PPSO4e+//8aTJ09Qvnx5dOjQAQCwdu1abbNkxYoV0axZsyyva9SoEapVqwYAOHbsGNasWaN9buTIkdrH169fx+nTp7O8ftu2bTpv0z148GD4+fkhICAgpz81R1ZW2ffetWvXDtu2bUNSUhK8vb2z3N7bmPJ6PJUuLCwMAwYMyHIL84K6ePFilptnZff+1xUDj1HeGOs4FlRe3gfmwGA1Cenp6Vi0aBEAYOLEiTnulNq1a6Nr166Z5iUmJmLfvn0ICwuDm5sb2rZtm+lujkIInDp1Cg4ODqj///bOPCqKY9/jX4ZVUYGIuAWVTRQCKip69UZAXElUiMGgcpVEzdOLqDEeI8ckV15eogYQ9wXR6ElAn/qeJpgTcENAgxE3BFQ0rIKiMIjs2/B7f/CmL8P0zPTADKipzzkeme7q+v3qW7+qqamu6h45Erdu3cK1a9fg6uqKMWPGAGh5J3liYiJKS0vh7e0NCwsLOdupqalITU2Fubk5PDw85J7kePXqVfTv3x/m5uY4c+YMRo4cCWdnZ0E+8qEpvx89eoTr16+joqICI0eOxLhx43g7lUePHiExMRFGRkbw8fFR6JcqHYRSUlKCzZs344cfflDrukOHDuGLL77g1gbo6upi+/bt3PmpU6cqjKEZM2Zg9+7dAFoGpitWrAAAzJo1C1ZWVsjNzQUA7N27F+PHj+euS09Ph4mJCe/aAD09PSxYsABr165Fenq6VjrsqVOnYvbs2fjll1+wdetWmQHO06dPce/ePZmBVk5ODhISEmBsbAxnZ2eYmZmhf//+AFriKikpCYMHD0afPn2QmJiIgoICeHh4wN7eXpA/6sRzdnY2kpOTUV1djQkTJmDUqFFyaZTFVGe0X4lEgsTERAwaNAhWVla4dOkSHj58iGnTpsHOzg4AkJubCy8vL4jFYly5cgWFhYVwdXWFmZmZUq2Utb8HDx4gPz8fBQUF0NXV5QaaTk5OGDBggFxeinxoTXV1NZKSkpCdnY0pU6Zg2LBhvH6p047VjRllfaEqTaRUVVXh119/xUcffdQu3xXFnap65GtPQn0WEkd8qIoDTeipqXakFpqakkhJSeGmetPT09W69o8//qC+ffvS6dOnqaysjFasWEH29vZUXFxMRC33rkeOHMlNWX/22Wfk7e1Nrq6uBIBOnTpFZ86coWnTptHChQupV69eZGVlJfMO7pqaGvrkk09o586ddPr0aZo6dSqZm5tTYmIiEbW8g9va2poAUHR0NE2YMIEA0MiRIwX5yIcm/K6rq6NVq1aRn58f3b59m+Li4mjEiBE0ceJEysnJ4dI1NzfTl19+SXPmzKEbN27Q5cuXadasWXK3G1TpIEX6LntVbN68mXR0dKi0tJT3vK2trdzthuzsbOrevTs9ePCAS/f48WOZNQUbN25UaPO7776TSdtah9DQUO64oaGhzJqG1atX04kTJxTmm5CQQADo7NmzKsutrKx8txuk/PTTTwSAHBwciIjo999/J29vbxKJROTt7c2lO3HiBHl4eNCjR48oNzeXxo4dS7t27SIiosOHD5OlpSUBoN27d5OjoyM5OjqSSCQiXV1d2r9/v5zdtvUpNJ4lEgmtXbuWli5dSikpKXTs2DHS0dGhTz/9lEujKqY6o/3Gx8dzt7YOHjxIvr6+NHPmTDIzMyNjY2PKyMggIqJLly5x9/5DQkIoKiqKnj59qrC+hLS/lJQUioqKot69e1OfPn0oKiqKoqKi6OHDh7x5KvJh06ZNBIBiYmJo0qRJ5O3tTebm5mRkZETXr1+XyUNoO5aiTsyo6guFaJKbm0vLly+nbt26kZ6entq+q4o7RRoqak9C+1GhccSHojj44osvOqwnkWbaUXvQ2CAhOjqa65yrq6vVutbT05P69OnDfb537x4BoPDwcO7Y//7v/xIAcnNz4zr+hoYGMjY2pp49e1JkZCSXdtu2bQRA5gthzZo1dPjwYe6zWCwmAwMDsrKy4hbNrVmzhgCQl5cXvXjxgpKSkuj06dOCfeSjo34HBweTra0t5yNRy2I0U1NTGjFiBHdPfvv27WRlZSVzjz4tLU1ukCBEByLhg4TJkyeTubm5wvOtBwnu7u60bNky6tWrFwGQGSRcvXpV5ot/+/btCvOMioqSSXvp0iXuXFlZGXXv3p079/333xNRS0O0t7en+vp6hfm+ePGCd4GlUIQMEqRrKnR1damuro6IiDIzMwmATKc2fPhw2rt3L/c5Pj6eQkNDuc+rV68mAOTn50fl5eVERHTz5k0yMTEhAwMDysvLk7Hbtj6FxnNoaKjc+iEPDw8CQIWFhUQkLKY6o/3u2LGDANCMGTO4Ra2xsbEEgIKCgmTyAqC0w5citP0RtaxJsbW1VZmnIh+kgwRfX1+uD71w4QIBoICAALnrhbTj1qgTM8r6QqGaSCQSsrGxkRskCPFdaNzx1SNfe1KnHoXGkSL44kATehJ1vB21B43NqUr3g7bn3ou/vz/Wr1/PfZZOOxUWFsod8/DwgLm5OQBAX18fo0aNQmVlJRYtWsSlHTlyJICW6RtpPjt37kRZWRmOHj2Ko0ePIjY2FhYWFsjNzUVmZiYAcNPQCxYsgKmpKd599114e3sL9pGPjvhdWlqKsLAwzJo1S+Yel4WFBfz9/ZGWlobjx4+juroa33zzDRYuXChzX7z1VJY6OqhDeno63nrrLUFpra2t8fe//x1Dhw6VO9fU1CTzWdnLjoyMjBRea2ZmBn9/f+7z/v37QUQ4c+YMvLy8YGBgoDBfExMTiEQipKWlqSxLe+nRoweAlinNiooKAMCgQYPk0lVXV2Pfvn14+vQpAGDatGmYNGkSd/7tt98GACxevJi7ReDi4oKVK1eioaEBMTExSv0QEs8lJSXYuHEjli9fLnNtZGQkDh06hIEDBwqOqc5ov9JpVT8/Py4m3dzcALRMW6uL0PanaVavXo3u3bsDACZMmAB9fX0Z/9vbjtWJGUV9oTqaiEQizqY6vguJO2W0bU/q1qOm4wjQjJ5Ax9pRe9HYmgRpx09EePToEUaMGCH42oCAAAAt969+/PFH3L9/HwDQ2NjIpVE0+DA1NZU7Jq3YFy9eAADS0tLQ3NwMKysrGBoacun2798PAOjbt6+MDb48hfjIR0f9bmxsRO/eveXSurm5Yffu3bh58yasrKwgFothY2Oj1BehOqhDWVkZ9xwCVVhbW2PRokWYO3eu3D1W6b12Ka3fktiWtg9VattpBAUFITIyEkDLff34+HgcOnQIERERSv3T0dFBr169tPrQpmfPngFoGQRJGzlfjKxbtw6rVq3CsGHDsGnTJgQFBcnct5Ze0/bamTNn4ttvv8XDhw+V+iEknm/duoWGhga5uLK1teUWj6rbttqijfbbmp49ewJo30NthLa/1oNSTdOtWzcYGxujtrZWxq/2tGN1YkZRX6iuJm1tCfFdSNwpg89mR3wGOhZHrfPUtJ5ShLSj9qKxQYKDgwP3d1ZWllqDBIlEgq1bt+L27dvYsGED5s2bh127dmnKNS74XVxcMGTIkHbloW0f+ZD+iiwuLpY7Jx2hl5eXIysri/NRGZrQoS0GBgYqB0ptMTY2hq+vr8wxOzs7DBw4EEVFRQDkBwKtaX3OwsICw4cPlzn/zjvvwMPDAwkJCQCAr7/+Gvr6+nB0dFTpW3Nzs9JdCh0lJSUFAODp6al01i0oKAiWlpb4+OOPsXbtWsTExODnn3/mXQjXGumASdVrp4XEs3TgIBaLFS7Y0kZMdYUNPoS2v85G03oIjRmg45oI8V1I3KnDq1qPwKvtmxSN3W4wNTXF+++/DwCIi4tT61pfX1+cPHkSx48fx+jRozXlEod0ikb6pdEWIdMx2vaRD+mvbb5fhdIp9nfeeQe9evUCoHoqTBM6tKVv377tCuKlS5fK/eJZsmQJ93dqaqrCa69fvy6TD9+X7apVq2Ty+vjjj1X61NTUhIqKio6vBlZAQ0MDjhw5AgBYs2aN0rTV1dXw9vZGRkYGFixYgBs3bmD69Okqbbx8+RIA5AZObRESz/369QPQssqdj4qKCq3EVFs6wwYfQttfZ6NpPYTGDNBxTYT4LiTu1OFVrUfg1fZNikb3eYWFhUFfXx/R0dG4efOmwnR1dXXcdsmcnBycPn0aDg4O3D0Z6ZQOEWnEL+msRkhICJ4/fy5z7ujRo0p97Swf+XBycoKlpSUSEhJQWloqcy4rKwsGBgaYNWsWRowYAR0dHcTExPDOJkiPdVQHPiZOnIiSkhK1dXBwcJCbIvv888+56cSrV6/i8ePHctc9f/6c62Csra1l7qu3ZtasWdx9QGNjY94tWG0pKysDAJltk0DL7IIQlGnQ3NyMNWvW4MGDB/j0009ltmZJr2t9/ffffw+g5VdedHQ0AgMDkZGRwf3yUMTt27dVbn8VGs9jxoyBSCRCWFiY3C+diIgIZGdnayWm2qJpG9JtZa0f482H0PYnhVoWgrfbB7444MtX03oIiRkp6mrSFiG+C4k7QHE9ttWxoz6rizpx0Nm+tQeNDhLs7e1x4MABNDc3Y+bMmfjpp5/kxLpz5w7c3d3h5OQE4N8dcHx8PNLT03H37l3unQ45OTkoKChAbW0td4+67YMzpB27dJoa+Pc9GOkDm5ycnDB79mzk5+fD09MTe/bswcWLF/H111/jzJkzmDdvnsx11dXVMjaE+shHR/w2NDTErl270NTUhC1btnDpGhsbceDAAQQHB2Po0KGws7ODn58f8vPzsWTJEq7R7NmzBwCQmZmJ5ORk2NvbC9JBLBajqamJ81EZPj4+qKqqQkZGhtw5iUQicz+sbafQll69euHs2bOwsrICEWHlypUyg57m5mYEBgZCIpFg8ODBOHv2rMJ9/bq6uggMDAQAfPTRR9w9RWVIO9fWjTI+Ph5mZmbYt2+f0mubm5s5vVrPrEgkEvz222+YOnUqIiMjsWHDBuzdu1fmWml9PXnyhDt26tQpmV9Mbm5u6Nevn9zsy927d7m/a2pqEBERgQ0bNsgsGGtbn0Lj2dbWFgEBASguLsbYsWMRGhqK6OhoBAQEoKioCKNGjRLctjqj/UpvQ7W2Ic23tZZSDVNTUyGRSJCUlAQ+hLY/KZWVlSoHHsp8kH4httaisrISFRUVMm1HqB6KEBIzivpCdTVpixDfhcSdIg0B+fakrs9C40gRfHGgKT070o7aTYf2Rijgzp075O3tTYaGhjRw4ECaMWMGzZs3j959911atGgR5efny6RfsmQJASCRSERz5syh4uJiGj9+PLeN5ezZszRx4kQCQFZWVnTkyBGqqamhb775hgwMDAgA+fv7U3p6Ol27do3bKjNw4EA6evQoEbU89//DDz8kkUhEAEhfX5+CgoK4PaR79+7l9hE7ODhQeHi4zJYUVT7yba07d+5ch/0manmkr52dHc2fP5+2bdtGvr6+dPDgQRlblZWV5O/vT7q6uqSnp0dWVlb0yy+/kJ6eHnl5edGPP/5IDQ0NKnVISUkhHx8fAkA6Ojr01VdfUVFRkcK6lkgk5ODgQDt27JA5vn//fho+fLjMVkUDAwOaPHmy0u2NRC1botasWUM9evQgd3d32rNnD+3bt488PT3J2NiYVq1apfC5DG3z6datG129elVlWqKWbUoTJ06UOXbo0CECQOvWrVN43a+//koffvghV04TExMaM2YM2dvbk7W1NXl4eNCmTZvk4p6IKDk5mebPn88912Hbtm0kFovJ2tqaJk+eTMeOHaP9+/eTp6cnJScnc9eFhYVxsTd9+nQKDg4mDw8PioiIkMlfUX0Kjee6ujpavnw56evrEwAyMjKikJAQmfdcqIopTbQDVTYuXLhAjo6OBICcnZ0pNjaWHj9+THPnzuXSb968mYiI8vLyyNzcnNsWquxZJ0Sq219qaiqtWrWKq//PPvuM9xHlrWnrw5YtW6h///4EgFxcXOjcuXOUl5dHfn5+XN2tX7+e012VHnwIjRlVfaEQTaS4u7vLbYEU4ruQuOOrR0XtSajP6sRRWxTFgab01NT3ibpoZZAgpaqqim7dukWXLl2ijIwMbl84H3l5efTixQvuc2Njo9xeb035dP/+faqtrVX72s7yURElJSW8XzStqa6upocPH3KNSdGXaUd0aMuVK1do2LBhMvt5NUF9fT0lJyfTsWPHKCYmhpKSkpTGEB8XL14UlO7FixdkaWkp84IqKTk5OZ3+7PX6+npqbm6mJ0+eUFZWllynIu3w4+LiqLy8nB49eqS2j+rEc11dHT148EDpcyY0GVPatlFZWal22xXS/rTtQ1vU0UMTMdMWVZq4ubkpfI6KEN9Vxd2rUI+a5FX0TYdIizfVGX8ZwsPDoaenh9WrV3e1K+3in//8J1xdXbmtga864eHhWLduHeLi4gQtaGQwuiJmJk6ciLq6Oo2sTWF0DeyNIgyN8Pnnn6OyspJ7PsHrREhIyGs1QAD+vRhV6KJKBqMzYqaiogLHjx/nbL18+VLQgkjGqwsbJDA0xpdffonBgwfLrdJ9lbl//z7mzZv3Wg0QamtrkZycDKDluQt1dXVd7BHjVaezYiY+Ph7z58/H+++/jyNHjqBXr14yb2dlvH6w2w0MxmtGVFSUzBMppTs5hDwMh/HXpDNj5uLFi0hLS4OtrS2mT58u82RFxusHGyQwGAwGg8Hghd1uYDAYDAaDwQsbJDAYDAaDweCFDRIYDAaDwWDwwgYJDAaDwWAweOnUQYKqVxm/TnRGWd4kvTQF06TjvIoavoo+teV18LEjaKN8RMSe5aEBujL2tD5ISElJwWeffYYhQ4bg2rVr2jbXKdy5cwempqYIDQ3VeN5ZWVnYvHkz3N3dMXPmTI3n/zqjTd3/KrxKGr4Osf4m9l+t0VYdxMfH45///CcGDhyotVd5v+m8KrGn9UGCubk5MjIykJ+fr21TnYa+vj66desGIyMjjedtZmaGoUOHIjExEY2NjRrP/3VGm7r/VXiVNHwdYv1N7L9ao606GDBgAK5fv67y1eYMxbwqsafxQcJvv/2GP//8k/tsZ2eHCRMmaNpMp9K2TI6Ojnj+/LlWniRmYWEBHx8f7l3przpttdEm2tT9TaUzY1dd2hvr2oy5N7H/Uoa2+hsnJyeMGzdOo3l2Zl/TFbyqsafRyMjPz8c//vEPuXddvy5feHwoKpM2EYlEr4VmXaENQzivQ/2oG+vaLNOb2H8JQVv9jSbzfB1iuSO8yrGnp6mMcnNz4eXlBbFYjCtXrqCwsBCurq4wMzOTSVddXY2kpCRkZ2djypQpGDZsmFxeqampSE1Nhbm5OTw8PNCnTx+1fHn06BGuX7+OiooKjBw5EuPGjZMRm4iQlJSEwYMHo0+fPkhMTERBQQE8PDxgb28vqExPnz7FvXv34OnpKWc/OzsbycnJqK6uxoQJEzBq1CiZ8zU1NYiLi0N+fj6GDBmCyZMnw8TERK0yKkKVbUC5vhKJBImJiRg0aBCsrKxw6dIlPHz4ENOmTYOdnZ0gbVTZAICrV6+if//+MDc3x5kzZzBy5Eg4OzurLJ8i3XNycpCQkABjY2M4OzvDzMwM/fv3V5mf0FgQ4rOm4q41qvJU5FfPnj3bFbuq7AmNDymajHUhfYwQvdqbN6D9/kuIXurWwb1795CUlIQePXrA1dUVQ4cOFexPR8sjpby8HOfPn0ddXR2mTJnC2zYV2VFUN8+ePZOZin/33XeRl5eHx48fc8cGDRqE4cOHo7y8HH/88QcAwMXFRaYMQsqniT5TEa9K7ClCY8OUvLw8vP322wCAZ8+eobCwUG5UVFBQAC8vL0RGRiIkJASjRo1Camoqd762thZLlizBtWvXMGDAAERFRcHBwQFJSUmCfKivr8fq1avx9ddfw9HREdbW1lixYgUmTZqE3NxcAMAPP/yAwYMHw93dHb/++ivGjRuH9evXIzAwEI6Ojjhw4IDSMl2+fBk+Pj54++23sXv3bhn7zc3N+Pzzz7FlyxYMGzYMvXv3xujRo/Ef//EfXJrr16/D2toaIpEIAQEBOH/+PMaNG4dnz56pobY8Qmyr0vfcuXOwt7eHp6cnLl++jPnz5yMiIgJfffUVRo0ahczMTKXa1NfXq7Rx6NAh2NjY4O9//zuuXbuGmTNnYvHixVi8eLHS8qWkpCjU/eTJk1i6dCnc3Nwwfvx4BAQE4H/+539UaiY0FlT5rOm4E5qnMr/UjV0h9tSJD0Dzsa6sjxHif3vzlqLt/kuIXurWwX/9139hw4YNcHd3R2lpKYYNG4YBAwZgzJgxWLdunVJ/OloeKbGxsRg8eDBWrVqFRYsWYfjw4Th37pxgO4rqxtTUFJ9++ilmzJiBx48fo1u3bjA3N0d4eDhmzJiBkydPcoORHnKgXHAAABd+SURBVD16IDExEf/617/Qo0cPweXTZJ+piFch9pRCGmTNmjUEgDIyMmSOb9q0iQCQr68vVVdXExHRhQsXCAAFBATIXH/48GHus1gsJgMDA7KysqKmpiaV9oODg8nW1lYm7bNnz8jU1JRGjBhBjY2NRES0evVqAkB+fn5UXl5OREQ3b94kExMTMjAwoLy8PKVlyszMJADk7e0tYz80NJTmzJkjc8zDw4MAUGFhIREReXp6Up8+fbjz9+7dIwAUHh4uc52enh65u7urLLM6toXou2PHDgJAM2bMILFYTEREsbGxBICCgoJk8ufTRogN6XVeXl704sULSkpKotOnT6ssoyLdhw8fTnv37uU+x8fHU2hoqMr8iITHgjKftRF3QvNU5pc6sSvUnjrxoY1YV9THCPW/PXl3Vv8lVC+hdfD777+Tjo4OxcfHc8d8fHwIAD179kwmT7466Gh5Vq5cSQBo+fLlVFZWRkREP/30E+nq6pK5uTm9fPlSsB1FdbNv3z4CQIcOHeKO3b17l7PbmvXr19OZM2fUKp+m+0xFdHXsKaNTb3isXr0a3bt3BwBMmDAB+vr6yM7OBgAUFhZi586dKCsrw9GjR3H06FHExsbCwsICubm5KkdkpaWlCAsLw6xZs6Crq8sdt7CwgL+/P9LS0nD8+HEA4EZtixcv5qbyXFxcsHLlSjQ0NCAmJkaprUGDBskdKykpwcaNG7F8+XKZ45GRkTh06BAGDhwIAPD398f69eu589LpoMLCQqU2lSHEtlB9LSwsAAB+fn546623AABubm4AwNWVIoTaGDx4MABgwYIFMDU1xbvvvgtvb2+V5eTTHWiZhtu3bx+3knratGmYNGmSyvwA4bGgyGdtxJ06eaqrJZ+G6thTJz60Eet8qON/R9Bm/wUI10toHcTHx4OIuL4HABcb0ql3RWiiPFICAwO5qfOFCxdi7ty5KC0txX//93932M7ChQthbGyMo0ePcsecnJxgbW2NM2fOoKmpCUDLrb4//vgD77//vuDydUafKRRtx54yNLYmQV26desGY2Nj1NbWAgDS0tLQ3NwMKysrmVeL7t+/HwDQt29fpfmlpaWhsbERvXv3ljvn5uaG3bt34+bNm/D394eOjg4AcP9LmTlzJr799ls8fPhQqa221wHArVu30NDQABsbG5njtra2sLW15T4HBAQAAKqqqvDjjz/i/v37ANCh7UdCbAvVl69sPXv2BAA0NDQo9UNdG6ampsILqcA3AFi3bh1WrVqFYcOGYdOmTQgKCoKrq6taeaqKBUU+ayPu2pOnUC35NGyPvdYoig9txDof6vivKTTdfwHC9RJaB9K1GA8ePICjoyMAcNPv0i8zRWiiPFL09fVlPs+dOxcnTpxAZmYmBgwY0CE7PXv2xEcffYTDhw8jOzsbNjY2SE9PR21tLYqLixEfH4/33nsPFy9exKRJk7hBpJDy3bhxQ+t9ZnvQRuwpo8sGCW2RdpAuLi4YMmSI2tdLf0UWFxfLnZP+gisvL1eah3TE3Z53rEsbtFgsVrpYRSKRYOvWrbh9+zY2bNiAefPmYdeuXWrbU9d2R/UVQmfY4CMoKAiWlpb4+OOPsXbtWsTExODnn3/GgAED2p2n0FjQRtxpIk910JY9bcQ6H52tFx+aiH1N67Vo0SJERkZi+/btmD17NvT19XH58mWMGzdO5SBam21ZOpulr6+vETvLli3D4cOHceTIEXzzzTcICwvDsWPH8MEHH+DIkSN47733EBkZKfMAMSF2u6o/Uxdt+9n1+yv+H+nUWkJCAu95VU/tkq705JsFkE45vfPOO0rzePnyJQBg+PDhyp3loV+/fgBaVprzUVFRAQDw9fXFyZMncfz4cYwePVptO+213VF9hdAZNviorq6Gt7c3MjIysGDBAty4cQPTp0/vUJ5CY0EbcaeJPNVBW/a0Eet8dLZefGgi9jWt15AhQ3Dz5k0UFhbCx8cHGzduRH19PX777Te5X/dt0WZbls6MODs7a8TO+PHj4eTkhKNHj6KgoABPnz6Fm5sbFi5ciF9++QUZGRmoq6vjbs0BwsrXVf2ZumjbT40OEqTTW1VVVTLHiUjm/9bHpcdGjBgBAAgJCcHz589l0h09ehQ3b95UatvJyQmWlpZISEhAaWmpzLmsrCwYGBhg1qxZSvO4ffs2jIyM4OPjo7RMfOUZM2YMRCIRwsLC5H7RREREIDs7Gzk5OTh9+jQcHBy4aS/pdFRbbdRBiO2O6stHW220YaM1iuLo+++/B9Dyizw6OhqBgYHIyMjo0NPe+GKBD23EnSbyBITHrqbstUZbsc5XJm3q1dpfbfZf2tJrx44dOHPmDM6ePYtvv/0WYWFhclvr+NBmW87MzIS5uTnee+89wXYU1Y2UZcuW4fHjx/D19cXatWsBAEuWLEFDQwM++OADfPLJJ2qXT9v9WWu6MvZU+tahq9sgvfeRmpoKiUTCbb+QfnEVFRVxaSsrK1FRUcEVysnJCbNnz0Z+fj48PT2xZ88eXLx4EV9//TXOnDmDefPmKbVtaGiIXbt2oampCVu2bOGONzY24sCBAwgODpbbH3z37l3u75qaGkRERGDDhg3cFKWiMkkr8smTJ1w6W1tbBAQEoLi4GGPHjkVoaCiio6MREBCAoqIijBo1invRSXx8PNLT03H37l2Eh4cDaOkkCgoKUFtbC7FYjKamJpSVlanUXKhtofqWlJQAgMwWHGm9SWdDFGnz4sULQTZevHgBoGUGQB34dAeAU6dOyfjm5uaGfv36qXUvTlUsKPJZG3GnTp7KtBQau+rYExof2op1vjK1pw6E5g10Tv8lVC9AeB0cP34c+/btQ0JCAn7++WdcvHgR165dkykHAN466Gh5WtM6NisrK7Fnzx7s2LEDb731lmA7iupGir+/P4yMjFBfX48ZM2YAaPnydHFxQVVVFbdgUZ3yaaPPVERXxp5KOrQ3og15eXlkbm7ObacpLi6mH374gfr3708AyMXFhc6dO0d5eXnk5+dHAEhHR4fWr19PEomEysvL6cMPPySRSEQASF9fn4KCgqimpkawD+fPnyc7OzuaP38+bdu2jXx9fengwYMyacLCwrhtYNOnT6fg4GDy8PCgiIgIlWU6deoUzZ8/nwCQoaEhbdu2jdv2UldXR8uXLyd9fX0CQEZGRhQSEkISiYTLb8mSJQSARCIRzZkzh4qLi2n8+PGcP4mJidw2JR0dHfrqq6+oqKhIZbmF2Fal74ULF8jR0ZEAkLOzM8XGxtLjx49p7ty5XPrNmzcrrW9VNvbu3UuWlpYEgBwcHCg8PFzQFp3k5GSFultbW9PkyZPp2LFjtH//fvL09KTk5GSVeRIJiwUhPms67oTkqcovdWJXiD1140Mbsc4Xc+rUgbp5d2b/pUqv+vp6teogLS2NBg0aRADk/k2bNo1qa2spJSVFYR10tDyZmZnk4eFB9vb2tGLFCgoODiYfHx+6dOmSTDohdpTVu5Rly5bRqVOnZI5FRUXRd999x+ufELua7jMV0dWxpwyNDhKIiCorK2X2e7eHqqoqun//PtXW1rY7j5KSEsrPz+c9J+2s4+LiqLy8nB49ekTNzc0K81K3THV1dfTgwQOqr6/nPZ+Xl0cvXrzgPjc2NnZYM6G2iTSjrxRF2mjShirq6+upubmZnjx5QllZWWrtC1Y3FlShybgTkqcq2tMeO2KvLdqIdVVl6my92tKR2NekXtnZ2fTFF1/Q8+fPKTMzkxITE+nkyZO0bds2mj17NkVFRQnKp6NtWSKR0J9//sk9K6G9dlTVTWVlpdyxpqYmqqur65BdoWk6SlfHniJ0iDpww+s1JTw8HOvWrUNcXFyHF7gxXm86MxZY3DE6i5cvX2Lo0KG4ceMGLC0t5c5nZGTgxo0b3LZLBkMRr8zuhs5EIpEA+Pd9QMZfl86MBRZ3jM7iwoULeP78OWJjY7m4k5KXl4cDBw7ggw8+6CLvGK8Tf7lBQm1tLZKTkwG0vA+grq6uiz1idBWdGQss7hidiaenJyZMmIDAwED07NkT48ePx7Rp0zB69Gjs3LkTmzZtQq9evbraTcZrwF/udkNUVBTEYjH3WVdXF4GBge16gBLj9aYzY4HFHaMruHLlCm7fvg2JRAIHBweMGjVKI28GZPx1+MsNEhgMBoPBYAjjL3e7gcFgMBgMhjDYIIHBYDAYDAYvbJDAYDAYDAaDFzZIYDAYDAaDwctrMUhou8/3dedVK09n+NMVZX7VdGYwGIzXjVd+kHDnzh2YmprKvAv8deT58+fYsWMHpk6dqvYb9bSJNvXNysrC5s2b4e7ujpkzZ2o8f2W8KXHDYDAYXckrP0jQ19dHt27dYGRk1NWudAhDQ0MMHDgQFy5c4N6n/iqgTX3NzMwwdOhQJCYmdnqZ35S4YTAYjK7kL/GchN9++w12dnawtbXtUj+ICCKRCFOmTMH58+c73X5X6NDc3Ax9fX1MmjQJCQkJnWaXwWAwGB3nlZ9J6Cj5+fn4xz/+IfOu765CR0eny2x3lQ4ikQgi0RsfZgwGg/FGoqfJzIgISUlJGDx4MPr06YPExEQUFBTAw8MD9vb2cukfPXqE69evo6KiAiNHjsS4ceN4v1CePn2Ke/fuwdPTE0DLgrTExEQMGjQIVlZWuHTpEh4+fIhp06bBzs6Ouy43NxdeXl4Qi8W4cuUKCgsL4erqCjMzM17/a2pqEBcXh/z8fAwZMgSTJ0+GiYmJTBqhtluXMTExEUZGRvDx8VFLTyH6CNFclQ5t9ZWSnZ2N5ORkVFdXY8KECRg1alS7NFMHZfllZ2fjzz//5NKamppiyJAhuHPnDoCWWwyTJ0/mzisqV05ODhISEmBsbAxnZ2eYmZmhf//+7faZwWAw3lg09c7pw4cPk6WlJQGg3bt3k6OjIzk6OpJIJCJdXV3av38/l7auro5WrVpFfn5+dPv2bYqLi6MRI0bQxIkTKScnh0v3+++/k7e3N4lEIvL29iYiovj4eLKxsSEAdPDgQfL19aWZM2eSmZkZGRsbU0ZGBnf9pUuXaMqUKQSAQkJCKCoqip4+fcrr/x9//EF9+/al06dPU1lZGa1YsYLs7e2puLiYS6OO7ebmZvryyy9pzpw5dOPGDbp8+TLNmjWLANCUKVOUailUH6GaK9KBT1+ilve/r127lpYuXUopKSl07Ngx0tHRoU8//VRtzYiI9PT0yN3dXWmZheRXW1tLO3fuJABkYGBARUVF1NDQQHPmzKH33nuPHj58SET8cSPlxIkT5OHhQY8ePaLc3FwaO3Ys7dq1S6VvDAaD8VdEY4MEIqLVq1cTAPLz86Py8nIiIrp58yaZmJiQgYEB5eXlERFRcHAw2draUlNTE3fts2fPyNTUlEaMGEGNjY3c8czMTAIg09nv2LGDANCMGTNILBYTEVFsbCwBoKCgIBmf1qxZQwBkvsD58PT0pD59+nCf7927RwAoPDxcJp1Q29u3bycrKyuZsqSlpQkaJKijj1DNFenAp29oaCjNmTNHJp2HhwcBoMLCQrU1EzpIEJrfihUrCABFRkZSfn4+jR49mmpra1WWi4ho+PDhtHfvXu5zfHw8hYaGqvSNwWAw/opo9Gbx22+/DQBYvHgxN0Xs4uKClStXoqGhATExMSgtLUVYWBhmzZoFXV1d7loLCwv4+/sjLS0Nx48f544PGjRIzo6FhQUAwM/PD2+99RYAwM3NDUDLlHR78Pf3x/r167nP0jelFRYWqm27uroa33zzDRYuXAg9vX/f0XF2dlbph7r6CNFcGW31LSkpwcaNG7F8+XKZ45GRkTh06BAGDhzIHROqmVCE5rd161YMGjQIISEhWLZsGSIjI+V2MfDFDdBSN/v27cPTp08BANOmTcOkSZPa5S+DwWC86Wh0kCBdmNd2gZ50j/zDhw+RlpaGxsZG9O7dW+566ZftzZs35fLks9Oanj17AgAaGhra5XtAQADWrVuHqqoq7Nu3D//5n/8JAHJb94TYvnPnDsRiMWxsbNT2o736KNNcGW2vu3XrFhoaGuR8t7W1xSeffCJzTKhmQhGaX8+ePREZGYmioiKIRCK4uLioLJeUdevWIT09HcOGDUNERASamprg6uraLn8ZDAbjTadTlp1Lf31269aN+wVXXFwsl076q7i8vLwz3JJBIpHgu+++w8cffwxXV1f861//andeWVlZXJ7qoil9WmuuDvfv3wcAiMVilWk1qZm6+Y0ZMwYmJiaIj49Xa2tlUFAQTp8+DZFIhLVr1+Jvf/sbnjx50iG/GQwG401Fo7sbFPHy5UsAwPDhwzFs2DAA/L9wm5qaAADvvPNOZ7glg6+vL3Jzc3Hjxg3o6uoK+pJURK9evQC079aHpvRprbk69OvXDwBw9epVjB8/Xu58RUUFVz5NaqZufitXrkRUVBQCAgKwdOlSpKeno3v37iptVFdXw9vbG2PHjsX69esRExOD6dOnIz09vUO+MxgMxptIp8wk3L59m9sC6OTkBEtLSyQkJKC0tFQmXVZWFgwMDGQeW0z//6wnauczn6RbBquqqhSmycnJwenTp+Hg4MCtA5DeOmiP3REjRkBHRwcxMTG8swnKZhjU1UcRrTUHFOvQVt8xY8ZAJBIhLCxMbjYjIiKCG/hoWjN18ouOjoalpSU+/PBDfPfdd8jJycHGjRuVlkvK999/D6BlpiU6OhqBgYHIyMjgZnAYDAaD8W+0Mki4e/cu93dNTQ0iIiKwYcMGvP322zA0NMSuXbvQ1NSELVu2cOkaGxtx4MABBAcHY+jQodxx6Zda6ynhkpISAJB5MFBRURGAll+6renbty8AIDU1FRKJBElJSXL+Njc3AwDi4+ORnp6Ou3fvIjw8HEDLl1dBQQFqa2sF27azs4Ofnx/y8/OxZMkSrgx79uwBAGRmZiI5OZl3/YS6+khRprkyHdrqa2tri4CAABQXF2Ps2LEIDQ1FdHQ0AgICUFRUxD0rQahmYrEYTU1NKCsrk/O5PXWQn5+PrVu3IiQkBEDLjMLf/vY37Ny5E5cuXeLy44sbADh16pRMjLi5uaFfv36cPgwGg8FohSa3SoSFhXHbzqZPn07BwcHk4eFBERERcmnPnz9PdnZ2NH/+fNq2bRv5+vrSwYMHZdIkJyfT/PnzCQAZGhrStm3b6MSJE+To6EgAyNnZmWJjY+nx48c0d+5cAkD6+vq0efNmLo+8vDwyNzfntuG13cMvZcmSJQSARCIRzZkzh4qLi2n8+PFceerr6+nChQuCbVdWVpK/vz/p6uqSnp4eWVlZ0S+//EJ6enrk5eVFP/74IzU0NCjUUog+6mjOpwOfvmKxmOrq6mj58uWkr69PAMjIyIhCQkJIIpGopVliYiL5+PgQANLR0aGvvvqKioqKFJZZVX6//vor2dvbk5ubGxUUFBBRy9ZQLy8vAkAmJiZ04MABheUiIrK2tqbJkyfTsWPHaP/+/eTp6UnJyckKfWIwGIy/Mhp9d0N4eDjWrVuHuLg4jB8/HiUlJbCxsVH6OOLS0lLU1NQo3LKmCaqqqiAWizF48GCl6fLz82FiYgJTU1MALWsAioqKVF6njJqaGhQVFcHGxgYikQhisZh354IiVOmjjuZCdZBSX1+PvLw8WFlZwcDAgDeNpjXTRh20pqGhAfr6+iguLkZlZSVsbGxktpoyGAwG499obeGiiYmJoMfzmpuba8sFjh49eqBHjx4q07X9ItLT0+vwl1P37t1lHteszgABUE8fVZoL1UGKoaEh7+O0W6NpzbRRB62RDnb69+/PHsXMYDAYKtDomgTpgjzp/WWG9mGaMxgMBkNbaGyQUFtbi+TkZABASkoK6urqNJU1QwFMcwaDwWBoE42tSYiKipLZ166rq4vAwEC1H+bDEA7TnMFgMBjaRKMLFxkMBoPBYLw5dMrDlBgMBoPBYLx+sEECg8FgMBgMXtgggcFgMBgMBi9skMBgMBgMBoMXNkhgMBgMBoPBCxskMBgMBoPB4IUNEhgMBoPBYPDCBgkMBoPBYDB4+T8XUPFoBi9wcgAAAABJRU5ErkJggg==;" vertex="1" parent="1">
          <mxGeometry x="300" y="380" width="277.19" height="216" as="geometry" />
        </mxCell>
        <mxCell id="KH99gnBK2z-O9xpqxuGS-13" value="&lt;div&gt;Field-of-View&amp;nbsp;&lt;span&gt;Camera model (FOV)&lt;/span&gt;&lt;/div&gt;" style="text;html=1;align=center;verticalAlign=middle;resizable=0;points=[];autosize=1;" vertex="1" parent="1">
          <mxGeometry x="338.6" y="596" width="200" height="20" as="geometry" />
        </mxCell>
        <mxCell id="KH99gnBK2z-O9xpqxuGS-14" value="↑本命、これを使いたい" style="text;html=1;align=center;verticalAlign=middle;resizable=0;points=[];autosize=1;" vertex="1" parent="1">
          <mxGeometry x="85.78999999999999" y="322" width="140" height="20" as="geometry" />
        </mxCell>
        <mxCell id="KH99gnBK2z-O9xpqxuGS-15" value="よく出てくるやつ？&lt;br&gt;OpenCVのUndistort？" style="text;html=1;align=center;verticalAlign=middle;resizable=0;points=[];autosize=1;" vertex="1" parent="1">
          <mxGeometry x="80" y="627" width="130" height="30" as="geometry" />
        </mxCell>
        <mxCell id="KH99gnBK2z-O9xpqxuGS-16" value="メモ&lt;br&gt;&lt;br&gt;\( \boldsymbol{u} \) : 画像座標系での位置&lt;br&gt;\( \Theta \) : Project可能な画像中の領域&lt;br&gt;&lt;br&gt;\( \boldsymbol{x} = [x, y, z]^T \) : 3Dの位置&lt;br&gt;\( \Omega \) : ValidにProjectできる３次元位置の集合&lt;br&gt;&lt;br&gt;\( \pi \) : \( \Omega \rightarrow \Theta&amp;nbsp; \) のProjection、Mappingと呼ぶ&lt;br&gt;３次元点をイメージセンサに投影するイメージ&lt;br&gt;&lt;br&gt;\( \pi^{-1} \) : \( \Theta \rightarrow \mathbb{S}^2&amp;nbsp; \) のProjection、Unprojectionと呼ぶ&lt;br&gt;イメージセンサ上の２D位置を3次元点を通るBearing vectorに変換する。&lt;br&gt;なので、 \( \Theta \rightarrow \mathbb{S}^2&amp;nbsp; \) となっていて \( \Omega \) への変換になっていない" style="text;html=1;align=left;verticalAlign=middle;resizable=0;points=[];autosize=1;" vertex="1" parent="1">
          <mxGeometry x="48.6" y="665" width="540" height="200" as="geometry" />
        </mxCell>
        <mxCell id="KH99gnBK2z-O9xpqxuGS-17" value="" style="shape=image;verticalLabelPosition=bottom;labelBackgroundColor=#ffffff;verticalAlign=top;aspect=fixed;imageAspect=0;image=https://docs.opencv.org/3.4.9/pinhole_camera_model.png;" vertex="1" parent="1">
          <mxGeometry x="850" y="91.5" width="521" height="367" as="geometry" />
        </mxCell>
        <mxCell id="KH99gnBK2z-O9xpqxuGS-18" value="座標系" style="text;html=1;align=center;verticalAlign=middle;resizable=0;points=[];autosize=1;fontSize=19;" vertex="1" parent="1">
          <mxGeometry x="850" y="110" width="70" height="30" as="geometry" />
        </mxCell>
      </root>
    </mxGraphModel>
  </diagram>
</mxfile>
